<?xml version="1.0" encoding="UTF-8" standalone="no"?>
<!-- Created with Inkscape (http://www.inkscape.org/) -->

<svg
   xmlns:dc="http://purl.org/dc/elements/1.1/"
   xmlns:cc="http://creativecommons.org/ns#"
   xmlns:rdf="http://www.w3.org/1999/02/22-rdf-syntax-ns#"
   xmlns:svg="http://www.w3.org/2000/svg"
   xmlns="http://www.w3.org/2000/svg"
   xmlns:sodipodi="http://sodipodi.sourceforge.net/DTD/sodipodi-0.dtd"
   xmlns:inkscape="http://www.inkscape.org/namespaces/inkscape"
   width="210mm"
   height="297mm"
   viewBox="0 0 744.09448819 1052.3622047"
   id="svg5080"
   version="1.1"
   inkscape:version="0.91 r"
   sodipodi:docname="bbi.svg">
  <defs
     id="defs5082" />
  <sodipodi:namedview
     id="base"
     pagecolor="#ffffff"
     bordercolor="#666666"
     borderopacity="1.0"
     inkscape:pageopacity="0.0"
     inkscape:pageshadow="2"
     inkscape:zoom="1.979899"
     inkscape:cx="309.7401"
     inkscape:cy="965.27881"
     inkscape:document-units="px"
     inkscape:current-layer="layer1"
     showgrid="false"
     inkscape:window-width="1920"
     inkscape:window-height="1024"
     inkscape:window-x="0"
     inkscape:window-y="0"
     inkscape:window-maximized="1" />
  <metadata
     id="metadata5085">
    <rdf:RDF>
      <cc:Work
         rdf:about="">
        <dc:format>image/svg+xml</dc:format>
        <dc:type
           rdf:resource="http://purl.org/dc/dcmitype/StillImage" />
        <dc:title></dc:title>
      </cc:Work>
    </rdf:RDF>
  </metadata>
  <g
     inkscape:label="Layer 1"
     inkscape:groupmode="layer"
     id="layer1">
    <path
       inkscape:connector-curvature="0"
       id="path93"
       style="fill:#626266;fill-rule:evenodd"
       d="m 13.9138,96.868005 0,-7.71 1.5969,0 c 0.503,0 0.9048,0.0144 1.1819,0.0722 0.2613,0.0328 0.5398,0.155 0.7643,0.3125 0.5043,0.3796 0.7801,0.9324 0.7801,1.6468 0,0.855 -0.3979,1.3527 -1.1622,1.5799 0.4517,0.0853 0.8339,0.2797 1.0952,0.6277 0.2587,0.3257 0.3979,0.7604 0.3979,1.2856 0,0.3126 -0.0525,0.6054 -0.172,0.8865 -0.1064,0.2718 -0.2784,0.5029 -0.4715,0.7288 -0.2416,0.2443 -0.587,0.3979 -1.0059,0.4833 -0.2942,0.0552 -0.7643,0.0867 -1.4078,0.0867 z m 0.9035,-6.909 0,0 0,2.5832 0.6934,0 c 0.6435,0 1.0952,-0.1038 1.3553,-0.2758 0.2784,-0.172 0.4189,-0.5017 0.4189,-0.9731 0,-0.5201 -0.1248,-0.8812 -0.4032,-1.0585 -0.2758,-0.1943 -0.7275,-0.2758 -1.371,-0.2758 z m 0,3.2989 0,0 0,2.8142 0.6776,0 c 0.398,0 0.6435,0 0.7289,0 0.3821,-0.0551 0.6789,-0.1273 0.851,-0.2626 0.3453,-0.2403 0.52,-0.629 0.52,-1.1451 0,-0.5516 -0.2088,-0.9731 -0.6409,-1.199 -0.1392,-0.0854 -0.3138,-0.1405 -0.5055,-0.176 -0.1721,-0.0131 -0.3993,-0.0315 -0.6764,-0.0315 z" />
    <path
       inkscape:connector-curvature="0"
       id="path95"
       style="fill:#626266;fill-rule:evenodd"
       d="m 24.1767,94.579005 -3.8202,0 0,0.0854 c 0,0.5029 0.1563,0.9363 0.4505,1.2488 0.2784,0.3297 0.6763,0.4886 1.1464,0.4886 0.6422,0 1.1636,-0.3664 1.5641,-1.0585 l 0.6238,0.4163 c -0.4872,0.868 -1.2331,1.3211 -2.2233,1.3211 -0.7446,0 -1.3343,-0.2272 -1.7847,-0.7328 -0.4557,-0.4662 -0.6816,-1.1083 -0.6816,-1.9094 0,-0.7472 0.2259,-1.371 0.6816,-1.8412 0.4504,-0.4885 1.0217,-0.7288 1.7321,-0.7288 0.6974,0 1.2713,0.2259 1.6849,0.6737 0.4189,0.453 0.6264,1.0768 0.6264,1.8779 z m -0.8864,-0.6619 0,0 c 0,-0.415 -0.1221,-0.7459 -0.4005,-0.9718 -0.2601,-0.2442 -0.6212,-0.348 -1.0756,-0.348 -0.3808,0 -0.7288,0.1208 -0.9888,0.3664 -0.2614,0.239 -0.4163,0.5516 -0.4689,0.9534 z" />
    <path
       inkscape:connector-curvature="0"
       id="path97"
       style="fill:#626266;fill-rule:evenodd"
       d="m 25.2194,99.210805 1.3041,-2.809 -1.8963,-4.3573 0.9547,0 1.4078,3.4656 1.4918,-3.4656 0.8878,0 -3.228,7.1663 z" />
    <path
       inkscape:connector-curvature="0"
       id="path99"
       style="fill:#626266;fill-rule:evenodd"
       d="m 29.7698,94.475305 c 0,-0.3494 0.0512,-0.679 0.1878,-0.9915 0.1405,-0.331 0.3139,-0.6107 0.5739,-0.851 0.5043,-0.5069 1.132,-0.7643 1.8595,-0.7643 0.7105,0 1.3185,0.2574 1.8412,0.7643 0.5187,0.503 0.7656,1.1267 0.7656,1.8556 0,0.7144 -0.2469,1.3211 -0.7656,1.8411 -0.5385,0.507 -1.1465,0.7512 -1.8412,0.7512 -0.7275,0 -1.3395,-0.2442 -1.8595,-0.7656 -0.5017,-0.524 -0.7617,-1.1346 -0.7617,-1.8398 z m 0.8654,0 0,0 c 0,0.52 0.1747,0.9534 0.5214,1.3027 0.3296,0.3427 0.7485,0.52 1.2344,0.52 0.4662,0 0.8851,-0.1773 1.2305,-0.5069 0.331,-0.3624 0.5069,-0.7958 0.5069,-1.3027 0,-0.5201 -0.1759,-0.9324 -0.5069,-1.3041 -0.3454,-0.3611 -0.7643,-0.5384 -1.2305,-0.5384 -0.4859,0 -0.9048,0.1773 -1.2344,0.5384 -0.3467,0.3717 -0.5214,0.784 -0.5214,1.291 z" />
    <path
       inkscape:connector-curvature="0"
       id="path101"
       style="fill:#626266;fill-rule:evenodd"
       d="m 36.2795,96.868005 0,-4.8235 0.8168,0 0,0.7656 c 0.398,-0.612 0.9889,-0.9416 1.7532,-0.9416 0.5739,0 1.0059,0.176 1.3369,0.4478 0.3125,0.3165 0.4688,0.7328 0.4688,1.2896 l 0,3.2621 -0.8155,0 0,-2.8143 c 0,-0.9731 -0.4334,-1.4564 -1.2844,-1.4564 -0.5042,0 -0.8864,0.1721 -1.1648,0.524 -0.1379,0.155 -0.2062,0.3086 -0.2429,0.4846 -0.0355,0.176 -0.0513,0.4347 -0.0513,0.7774 l 0,2.4847 z" />
    <path
       inkscape:connector-curvature="0"
       id="path103"
       style="fill:#626266;fill-rule:evenodd"
       d="m 46.7696,88.706205 0,8.1618 -0.801,0 0,-0.8641 c -0.398,0.7288 -0.9732,1.0768 -1.7532,1.0768 -0.6763,0 -1.2515,-0.2272 -1.6652,-0.7013 -0.4189,-0.4845 -0.6264,-1.1083 -0.6264,-1.891 0,-0.8103 0.2075,-1.4393 0.6067,-1.9055 0.4334,-0.4741 0.9718,-0.7013 1.6849,-0.7013 0.78,0 1.371,0.3493 1.7532,1.0821 l 0,-4.2575 z m -0.801,5.7993 0,0 c 0,-0.57 -0.1379,-1.0034 -0.4347,-1.3212 -0.3099,-0.3112 -0.6921,-0.4832 -1.199,-0.4832 -0.4662,0 -0.8484,0.1536 -1.1268,0.4517 -0.2784,0.2994 -0.4176,0.7105 -0.4176,1.2305 0,0.612 0.1392,1.0637 0.4176,1.4078 0.2784,0.3296 0.6764,0.5069 1.1478,0.5069 0.5017,0 0.8838,-0.1773 1.178,-0.4885 0.2968,-0.2994 0.4347,-0.7472 0.4347,-1.304 z" />
    <path
       inkscape:connector-curvature="0"
       id="path105"
       style="fill:#626266;fill-rule:evenodd"
       d="m 51.7166,96.868005 0,-7.6956 1.5995,0 c 0.52,0 0.918,0 1.178,0.0578 0.2784,0.046 0.5226,0.155 0.7643,0.3257 0.5226,0.3808 0.7656,0.9192 0.7656,1.6336 0,0.855 -0.3835,1.3711 -1.1268,1.6022 0.4505,0.063 0.7959,0.2758 1.0743,0.6054 0.26,0.3441 0.3821,0.7604 0.3821,1.2856 0,0.3126 -0.0525,0.6054 -0.1576,0.8865 -0.1208,0.2718 -0.2587,0.52 -0.4504,0.7288 -0.2613,0.2443 -0.6067,0.4111 -1.0073,0.4833 -0.2968,0.0722 -0.7827,0.0867 -1.4222,0.0867 z m 0.9048,-6.909 0,0 0,2.5832 0.6947,0 c 0.6395,0 1.0939,-0.0814 1.3526,-0.2574 0.2955,-0.1904 0.4163,-0.5201 0.4163,-0.9731 0,-0.5385 -0.1208,-0.8996 -0.3979,-1.0585 -0.2771,-0.1904 -0.7315,-0.2942 -1.371,-0.2942 z m 0,3.3173 0,0 0,2.7958 0.6947,0 c 0.3822,0 0.6238,0 0.7118,0 0.3821,-0.0367 0.6592,-0.1273 0.8693,-0.2626 0.3283,-0.2403 0.5017,-0.629 0.5017,-1.1268 0,-0.5699 -0.2075,-0.9731 -0.6422,-1.2173 -0.1405,-0.0854 -0.2941,-0.1405 -0.4872,-0.1576 -0.1891,-0.0315 -0.4176,-0.0315 -0.696,-0.0315 z" />
    <path
       inkscape:connector-curvature="0"
       id="path107"
       style="fill:#626266;fill-rule:evenodd"
       d="m 58.4364,92.044505 0,2.394 c 0,0.6605 0.1051,1.1438 0.2968,1.4248 0.2075,0.2942 0.5542,0.4347 1.0742,0.4347 0.5227,0 0.8694,-0.1405 1.0611,-0.4347 0.1904,-0.281 0.2942,-0.7643 0.2942,-1.4248 l 0,-2.3796 0.8168,0 0,2.8143 c 0,1.4747 -0.7288,2.2075 -2.2062,2.2075 -0.6934,0 -1.2318,-0.1773 -1.5969,-0.5384 -0.3638,-0.3717 -0.5555,-0.9048 -0.5555,-1.6022 l 0,-2.8956 z" />
    <path
       inkscape:connector-curvature="0"
       id="path109"
       style="fill:#626266;fill-rule:evenodd"
       d="m 63.0721,96.072105 0.6763,-0.4898 c 0.2811,0.5253 0.679,0.784 1.2345,0.784 0.2784,0 0.5029,-0.0683 0.6763,-0.2088 0.1563,-0.1405 0.2456,-0.3165 0.2456,-0.52 0,-0.3126 -0.2456,-0.5621 -0.7656,-0.7289 -0.5897,-0.2075 -0.9561,-0.348 -1.1097,-0.4202 -0.5043,-0.2587 -0.784,-0.6435 -0.784,-1.1399 0,-0.4347 0.1746,-0.8063 0.4714,-1.0637 0.3126,-0.2587 0.7276,-0.4032 1.2305,-0.4032 0.4189,0 0.7827,0.0906 1.0769,0.2679 0.2941,0.1668 0.5226,0.3927 0.6448,0.6921 l -0.679,0.4163 c -0.1904,-0.4662 -0.5568,-0.6973 -1.0952,-0.6973 -0.2416,0 -0.4321,0.0722 -0.5883,0.2088 -0.1563,0.1221 -0.2259,0.2981 -0.2259,0.52 0,0.2666 0.1536,0.4518 0.4688,0.5962 0.0355,0 0.3126,0.0827 0.7801,0.2403 0.4859,0.1537 0.8352,0.3126 1.0427,0.5253 0.2272,0.222 0.348,0.5161 0.348,0.918 0,0.4478 -0.1563,0.8102 -0.4701,1.09 -0.3297,0.2994 -0.7644,0.4346 -1.2831,0.4346 -0.8864,-0.0131 -1.5286,-0.344 -1.895,-1.0217 z" />
    <path
       inkscape:connector-curvature="0"
       id="path111"
       style="fill:#626266;fill-rule:evenodd"
       d="m 67.8142,89.751605 c 0,-0.1773 0.0539,-0.331 0.1734,-0.4531 0.1037,-0.1038 0.2416,-0.1576 0.4189,-0.1576 0.172,0 0.3099,0.0538 0.4347,0.176 0.1195,0.1221 0.172,0.2574 0.172,0.4347 0,0.1536 -0.0525,0.3112 -0.172,0.4333 -0.1051,0.1051 -0.2627,0.1721 -0.4347,0.1721 -0.1773,0 -0.3152,-0.067 -0.4189,-0.1721 -0.1195,-0.1221 -0.1734,-0.2797 -0.1734,-0.4333 z m 0.1891,7.1164 0,0 0,-4.8091 0.8169,0 0,4.8091 z" />
    <path
       inkscape:connector-curvature="0"
       id="path113"
       style="fill:#626266;fill-rule:evenodd"
       d="m 70.5733,96.868005 0,-4.8091 0.8169,0 0,0.7512 c 0.4031,-0.612 0.9717,-0.9285 1.7374,-0.9285 0.5725,0 1.0243,0.1629 1.3368,0.4347 0.3113,0.3165 0.4859,0.7328 0.4859,1.2896 l 0,3.2621 -0.8326,0 0,-2.8143 c 0,-0.9731 -0.4176,-1.4564 -1.2843,-1.4564 -0.5043,0 -0.8864,0.1721 -1.1648,0.524 -0.1379,0.155 -0.2088,0.3086 -0.243,0.4846 -0.0157,0.176 -0.0354,0.4347 -0.0354,0.7774 l 0,2.4847 z" />
    <path
       inkscape:connector-curvature="0"
       id="path115"
       style="fill:#626266;fill-rule:evenodd"
       d="m 80.873,94.592105 -3.8215,0 0,0.0723 c 0,0.5161 0.1589,0.9494 0.4531,1.2488 0.2941,0.3297 0.6737,0.4886 1.1438,0.4886 0.6448,0 1.1635,-0.3533 1.5654,-1.0585 l 0.6224,0.4347 c -0.4858,0.868 -1.2331,1.3158 -2.239,1.3158 -0.7289,0 -1.3198,-0.2403 -1.7689,-0.7275 -0.4557,-0.4714 -0.679,-1.1136 -0.679,-1.9107 0,-0.746 0.2233,-1.375 0.679,-1.8583 0.4491,-0.4714 1.0217,-0.7157 1.7164,-0.7157 0.713,0 1.2672,0.2272 1.7019,0.679 0.4176,0.457 0.6264,1.0768 0.6264,1.8779 z m -0.8877,-0.6566 0,0 c 0,-0.4334 -0.1222,-0.7512 -0.3979,-0.9718 -0.2627,-0.2456 -0.6081,-0.3664 -1.0585,-0.3664 -0.4032,0 -0.7302,0.1208 -1.0086,0.3664 -0.2784,0.239 -0.4163,0.57 -0.4688,0.9534 z" />
    <path
       inkscape:connector-curvature="0"
       id="path117"
       style="fill:#626266;fill-rule:evenodd"
       d="m 81.6006,96.072105 0.6973,-0.4714 c 0.2574,0.52 0.6763,0.7656 1.2305,0.7656 0.26,0 0.4859,-0.0683 0.6605,-0.1957 0.1563,-0.1536 0.2443,-0.3296 0.2443,-0.5161 0,-0.3112 -0.2443,-0.5791 -0.7485,-0.7459 -0.6068,-0.2075 -0.9732,-0.348 -1.1294,-0.4202 -0.5043,-0.2587 -0.7801,-0.6251 -0.7801,-1.1399 0,-0.4347 0.172,-0.7879 0.4859,-1.0637 0.2942,-0.2587 0.7131,-0.4032 1.2148,-0.4032 0.4189,0 0.7826,0.0906 1.0768,0.2679 0.2942,0.1668 0.5227,0.3927 0.6448,0.6921 l -0.6606,0.4163 c -0.2074,-0.4478 -0.5738,-0.6973 -1.1123,-0.6973 -0.2416,0 -0.4346,0.0722 -0.5883,0.2088 -0.1563,0.1221 -0.2285,0.3112 -0.2285,0.52 0,0.2666 0.1563,0.4518 0.4859,0.5962 0.021,0 0.2968,0.0827 0.7656,0.2403 0.4859,0.1537 0.8339,0.3297 1.0401,0.5253 0.2443,0.222 0.3506,0.5161 0.3506,0.918 0,0.4478 -0.1589,0.8102 -0.4701,1.09 -0.3152,0.2994 -0.7656,0.4346 -1.2857,0.4346 -0.8864,0 -1.5259,-0.344 -1.8936,-1.0217 z" />
    <path
       inkscape:connector-curvature="0"
       id="path119"
       style="fill:#626266;fill-rule:evenodd"
       d="m 85.9789,96.072105 0.6934,-0.4714 c 0.2784,0.52 0.692,0.7656 1.2305,0.7656 0.2784,0 0.4872,-0.0683 0.6605,-0.1957 0.1773,-0.1536 0.26,-0.3296 0.26,-0.5161 0,-0.3112 -0.26,-0.5791 -0.7616,-0.7459 -0.5923,-0.2075 -0.9758,-0.348 -1.1307,-0.4202 -0.503,-0.2587 -0.7604,-0.6251 -0.7604,-1.1399 0,-0.4347 0.1537,-0.7879 0.4662,-1.0637 0.3139,-0.2587 0.7275,-0.4032 1.2344,-0.4032 0.4137,0 0.7801,0.0906 1.0743,0.2679 0.2968,0.1668 0.5056,0.3927 0.6435,0.6921 l -0.6593,0.4163 c -0.2101,-0.4478 -0.5923,-0.6973 -1.1097,-0.6973 -0.2442,0 -0.4557,0.0722 -0.5936,0.2088 -0.1562,0.1221 -0.2442,0.3112 -0.2442,0.52 0,0.2666 0.1773,0.4518 0.5069,0.5962 0.0158,0 0.2784,0.0827 0.7801,0.2403 0.4714,0.1537 0.8168,0.3297 1.0072,0.5385 0.2443,0.2088 0.3638,0.5029 0.3638,0.9048 0,0.4478 -0.1563,0.8102 -0.4859,1.1084 -0.3126,0.281 -0.7459,0.4162 -1.2673,0.4162 -0.9048,0 -1.5286,-0.344 -1.9081,-1.0217 z" />
    <path
       inkscape:connector-curvature="0"
       id="path121"
       style="fill:#626266;fill-rule:evenodd"
       d="m 94.138,96.868005 0.0197,-7.6956 0.9009,0 0,7.6956 z" />
    <path
       inkscape:connector-curvature="0"
       id="path123"
       style="fill:#626266;fill-rule:evenodd"
       d="m 96.8314,96.868005 0,-4.8091 0.8484,0 0,0.7512 c 0.3821,-0.612 0.9731,-0.9285 1.7374,-0.9285 0.5568,0 1.0073,0.1629 1.3369,0.4531 0.3125,0.2981 0.4714,0.7144 0.4714,1.2712 l 0,3.2621 -0.8168,0 0,-2.8143 c 0,-0.9547 -0.4347,-1.4393 -1.287,-1.4393 -0.5029,0 -0.8851,0.1773 -1.1635,0.5214 -0.1379,0.1536 -0.2259,0.3164 -0.2416,0.4701 -0.0368,0.176 -0.0368,0.4478 -0.0368,0.7774 l 0,2.4847 z" />
    <path
       inkscape:connector-curvature="0"
       id="path125"
       style="fill:#626266;fill-rule:evenodd"
       d="m 102.9774,92.737805 -0.8838,0 0,-0.6789 0.8838,0 0,-1.9278 0.8168,0 0,1.9278 0.9009,0 0,0.6789 -0.9009,0 0,4.1302 -0.8168,0 z" />
    <path
       inkscape:connector-curvature="0"
       id="path127"
       style="fill:#626266;fill-rule:evenodd"
       d="m 109.9402,94.592105 -3.8202,0 0,0.0723 c 0,0.5161 0.1562,0.9494 0.453,1.2672 0.2771,0.3113 0.6763,0.4702 1.1465,0.4702 0.6395,0 1.1622,-0.3297 1.5614,-1.0585 l 0.6264,0.4347 c -0.4872,0.8812 -1.2357,1.3158 -2.2246,1.3158 -0.7485,0 -1.3369,-0.2403 -1.7702,-0.7144 -0.4689,-0.4845 -0.6947,-1.1267 -0.6947,-1.9238 0,-0.746 0.2258,-1.375 0.6763,-1.8583 0.4517,-0.4714 1.0243,-0.7157 1.7374,-0.7157 0.6947,0 1.2659,0.2272 1.6849,0.679 0.4136,0.457 0.6238,1.0768 0.6238,1.8779 z m -0.8865,-0.6566 0,0 c 0,-0.4202 -0.1195,-0.7328 -0.3979,-0.9718 -0.26,-0.2456 -0.6264,-0.3493 -1.0768,-0.3493 -0.3822,0 -0.7289,0.1234 -0.9902,0.3625 -0.26,0.2258 -0.4163,0.5568 -0.4688,0.9586 z" />
    <path
       inkscape:connector-curvature="0"
       id="path129"
       style="fill:#626266;fill-rule:evenodd"
       d="m 111.2258,96.886405 0,-8.1631 0.8168,0 0,8.1631 z" />
    <path
       inkscape:connector-curvature="0"
       id="path131"
       style="fill:#626266;fill-rule:evenodd"
       d="m 113.83,96.886405 0,-8.1631 0.8155,0 0,8.1631 z" />
    <path
       inkscape:connector-curvature="0"
       id="path133"
       style="fill:#626266;fill-rule:evenodd"
       d="m 116.245,89.751605 c 0,-0.1773 0.0525,-0.3126 0.172,-0.4347 0.1064,-0.1222 0.2417,-0.176 0.4163,-0.176 0.176,0 0.3296,0.0722 0.4347,0.176 0.1038,0.1221 0.176,0.2757 0.176,0.4347 0,0.1707 -0.0525,0.3112 -0.176,0.4333 -0.1051,0.1221 -0.2587,0.1721 -0.4347,0.1721 -0.1746,0 -0.3099,-0.05 -0.4163,-0.1721 -0.1195,-0.1221 -0.172,-0.2626 -0.172,-0.4333 z m 0.1904,7.1348 0,0 0,-4.8275 0.8168,0 0,4.8275 z" />
    <path
       inkscape:connector-curvature="0"
       id="path135"
       style="fill:#626266;fill-rule:evenodd"
       d="m 123.5019,92.058905 0,4.7408 c 0,0.4163 -0.0184,0.7288 -0.0696,0.9232 -0.0683,0.3073 -0.1904,0.5699 -0.3979,0.7958 -0.4504,0.4662 -1.1136,0.7105 -1.9462,0.7105 -0.7446,0 -1.3027,-0.1721 -1.719,-0.5017 -0.4163,-0.3441 -0.6422,-0.8194 -0.6422,-1.4248 l 0.9363,0 0,0.0669 c 0,0.3664 0.1222,0.6422 0.3664,0.8366 0.2601,0.2088 0.6081,0.3125 1.0585,0.3125 0.6789,0 1.1465,-0.2075 1.392,-0.6422 0.0828,-0.1405 0.1353,-0.2981 0.1708,-0.4517 0.0183,-0.1773 0.0341,-0.3848 0.0341,-0.6435 l 0,-0.8142 c -0.3822,0.7105 -0.9705,1.0585 -1.7532,1.0585 -0.6934,0 -1.2502,-0.2259 -1.6665,-0.6961 -0.4346,-0.4885 -0.6421,-1.0899 -0.6421,-1.8739 0,-0.7998 0.2075,-1.4065 0.6264,-1.8727 0.432,-0.457 0.9705,-0.6829 1.6652,-0.6829 0.8168,0 1.4064,0.3533 1.7702,1.0637 l 0,-0.9048 z m -0.8168,2.4295 0,0 c 0,-0.5529 -0.1536,-0.9863 -0.4504,-1.3041 -0.2929,-0.3296 -0.6764,-0.4832 -1.1623,-0.4832 -0.4885,0 -0.8864,0.1405 -1.1464,0.4517 -0.2784,0.2994 -0.4189,0.7328 -0.4189,1.2673 0,0.5923 0.1405,1.0269 0.4189,1.3579 0.2784,0.3112 0.6763,0.4649 1.1806,0.4649 0.4846,0 0.8667,-0.1537 1.1451,-0.4518 0.2798,-0.3125 0.4334,-0.7472 0.4334,-1.3027 z" />
    <path
       inkscape:connector-curvature="0"
       id="path137"
       style="fill:#626266;fill-rule:evenodd"
       d="m 129.4575,94.610505 -3.8202,0 0,0.0539 c 0,0.5384 0.1405,0.9494 0.4346,1.2672 0.2955,0.3113 0.679,0.4702 1.1649,0.4702 0.6395,0 1.1622,-0.3297 1.5601,-1.0454 l 0.6277,0.4216 c -0.5043,0.8812 -1.2331,1.3158 -2.2404,1.3158 -0.7301,0 -1.3184,-0.2403 -1.7728,-0.7144 -0.4662,-0.4845 -0.6763,-1.1267 -0.6763,-1.9041 0,-0.7657 0.2101,-1.3763 0.6605,-1.878 0.4505,-0.4478 1.0401,-0.6973 1.7374,-0.6973 0.7105,0 1.2817,0.2259 1.6849,0.6606 0.4294,0.4701 0.6396,1.0952 0.6396,1.8779 z m -0.8865,-0.675 0,0 c 0,-0.4202 -0.1352,-0.7328 -0.3979,-0.9718 -0.26,-0.2259 -0.6067,-0.3493 -1.0768,-0.3493 -0.3822,0 -0.7289,0.1234 -0.9876,0.3625 -0.2784,0.2258 -0.4347,0.5568 -0.4714,0.9586 z" />
    <path
       inkscape:connector-curvature="0"
       id="path139"
       style="fill:#626266;fill-rule:evenodd"
       d="m 130.6906,96.886405 0,-4.8275 0.8168,0 0,0.7643 c 0.3979,-0.6251 0.9915,-0.9232 1.7532,-0.9232 0.5568,0 1.0072,0.1445 1.3211,0.4347 0.3283,0.3112 0.4872,0.7328 0.4872,1.2712 l 0,3.2805 -0.8352,0 0,-2.8327 c 0,-0.9547 -0.4163,-1.4393 -1.2686,-1.4393 -0.503,0 -0.9009,0.1773 -1.1793,0.5214 -0.1405,0.1536 -0.2088,0.3164 -0.2442,0.4832 -0.0184,0.1773 -0.0342,0.4347 -0.0342,0.7827 l 0,2.4847 z" />
    <path
       inkscape:connector-curvature="0"
       id="path141"
       style="fill:#626266;fill-rule:evenodd"
       d="m 140.398,95.741205 0,0.9679 c -0.4531,0.2495 -0.9915,0.3847 -1.631,0.3847 -0.7459,0 -1.3395,-0.2258 -1.79,-0.7144 -0.4491,-0.4845 -0.6776,-1.0913 -0.6776,-1.8556 0,-0.7826 0.2285,-1.4248 0.6934,-1.891 0.4714,-0.4833 1.0795,-0.7328 1.8083,-0.7328 0.5384,0 1.0401,0.1037 1.4905,0.3309 l 0,0.8904 c -0.4136,-0.2797 -0.8483,-0.4202 -1.3342,-0.4202 -0.5214,0 -0.9731,0.172 -1.3041,0.5016 -0.3112,0.331 -0.4675,0.7827 -0.4675,1.3579 0,0.4833 0.1563,0.8864 0.4675,1.2305 0.331,0.3296 0.7499,0.5069 1.2516,0.5069 0.4859,0 0.9731,-0.1773 1.4931,-0.5568 z" />
    <path
       inkscape:connector-curvature="0"
       id="path143"
       style="fill:#626266;fill-rule:evenodd"
       d="m 145.8151,94.610505 -3.8018,0 0,0.0722 c 0,0.5201 0.1563,0.9311 0.4504,1.2489 0.2771,0.3297 0.6803,0.4702 1.1465,0.4702 0.6422,0 1.1622,-0.3297 1.5627,-1.0454 l 0.6251,0.4347 c -0.4872,0.8681 -1.2305,1.3027 -2.222,1.3027 -0.7459,0 -1.3368,-0.2258 -1.7886,-0.7144 -0.4504,-0.4845 -0.6789,-1.1083 -0.6789,-1.9041 0,-0.7657 0.2285,-1.3763 0.6789,-1.8609 0.4518,-0.4649 1.006,-0.7144 1.7374,-0.7144 0.6934,0 1.2686,0.2259 1.6823,0.6829 0.4005,0.4478 0.608,1.0729 0.608,1.8556 z m -0.8654,-0.675 0,0 c 0,-0.4202 -0.1405,-0.7328 -0.4032,-0.9718 -0.2574,-0.2259 -0.6225,-0.3493 -1.0742,-0.3493 -0.4005,0 -0.7315,0.1234 -0.9889,0.3625 -0.2626,0.2258 -0.4189,0.5568 -0.4701,0.9586 z" />
    <g
       transform="translate(-225.7641,-226.5216)"
       id="Layer1005">
      <path
         inkscape:connector-curvature="0"
         id="path145"
         style="fill:#0367a6;fill-rule:evenodd"
         d="m 243.4311,292.5706 0,11.7718 -3.769,0 0,-11.7718 z" />
      <path
         inkscape:connector-curvature="0"
         id="path147"
         style="fill:#0367a6;fill-rule:evenodd"
         d="m 247.9106,295.9863 0,1.2712 0.1536,0 c 0.5739,-1.0768 1.5286,-1.48 3.5418,-1.48 1.9804,0 3.0415,0.281 3.769,1.0453 0.7643,0.7972 0.9206,1.4249 0.9206,3.7139 l 0,3.8057 -3.1242,0 0,-3.8057 c 0,-1.3343 -0.0512,-1.6285 -0.3822,-1.9581 -0.3296,-0.2994 -0.9573,-0.453 -2.1195,-0.453 -1.1281,0 -1.7532,0.172 -2.1353,0.5568 -0.3822,0.3979 -0.4505,0.7787 -0.4505,2.3257 l 0,3.3343 -3.1255,0 0,-8.3561 z" />
      <path
         inkscape:connector-curvature="0"
         id="path149"
         style="fill:#0367a6;fill-rule:evenodd"
         d="m 261.7127,294.0637 0,1.9226 4.9522,0 0,2.2443 -4.9522,0 0,2.4466 c 0,0.8693 0.0367,1.0046 0.1405,1.2305 0.1746,0.2994 0.4846,0.4176 1.0952,0.4176 1.023,0 1.2673,-0.222 1.2673,-1.2134 l 0,-0.3297 2.8471,0 c -0.0355,1.6009 -0.1576,2.0986 -0.6264,2.7092 -0.6396,0.7972 -1.5969,1.0769 -3.7322,1.0769 -2.0158,0 -2.8314,-0.176 -3.4381,-0.7774 -0.453,-0.4347 -0.5923,-0.8917 -0.6605,-1.7966 -0.0158,-0.2403 -0.0158,-0.2403 -0.0158,-1.3171 l 0,-2.4466 -1.6494,0 0,-2.2443 1.6494,0 0,-1.9226 z" />
      <path
         inkscape:connector-curvature="0"
         id="path151"
         style="fill:#0367a6;fill-rule:evenodd"
         d="m 279.0434,301.6818 c -0.2245,2.3126 -1.3867,2.8865 -5.8517,2.8865 -2.4138,0 -3.5589,-0.2259 -4.3232,-0.7774 -0.8168,-0.6291 -1.0611,-1.4656 -1.0611,-3.597 0,-2.2259 0.26,-3.073 1.1294,-3.6836 0.8168,-0.5739 1.8753,-0.7459 4.5687,-0.7459 2.7421,0 3.7322,0.1576 4.4979,0.7288 0.8155,0.587 1.1096,1.547 1.1096,3.5063 0,0.1038 0,0.4833 -0.017,0.855 l -8.1592,0 c 0,0.8457 0.0828,1.1267 0.3822,1.3526 0.327,0.239 1.0033,0.3441 2.1353,0.3441 1.9607,0 2.3428,-0.1222 2.4807,-0.8694 z m -3.0716,-2.5516 0,0 c -0.021,-0.6553 -0.0723,-0.8103 -0.2443,-1.0046 -0.2942,-0.2981 -0.9389,-0.4163 -2.1694,-0.4163 -2.0828,0 -2.5897,0.2587 -2.6213,1.4209 z" />
      <path
         inkscape:connector-curvature="0"
         id="path153"
         style="fill:#0367a6;fill-rule:evenodd"
         d="m 283.2313,295.9863 0,1.2528 0.1537,0 c 0.5896,-1.0584 1.4747,-1.4616 3.2122,-1.4616 1.4064,0 2.2929,0.2994 2.8142,0.9416 0.3992,0.52 0.5555,1.1806 0.5555,2.4111 l 0,0.5568 -2.9364,0 0,-0.0722 c 0,-0.5884 -0.088,-0.8825 -0.2941,-1.09 -0.2233,-0.2456 -0.7118,-0.3992 -1.3697,-0.3992 -0.6974,0 -1.287,0.2271 -1.5654,0.6067 -0.3126,0.3979 -0.3992,0.8693 -0.3992,2.1537 l 0,3.4564 -3.1229,0 0,-8.3561 z" />
      <path
         inkscape:connector-curvature="0"
         id="path155"
         style="fill:#0367a6;fill-rule:evenodd"
         d="m 293.7884,295.9863 0,1.2712 0.1537,0 c 0.5739,-1.0768 1.547,-1.48 3.5628,-1.48 1.9764,0 3.0191,0.281 3.7637,1.0453 0.7486,0.7972 0.9048,1.4249 0.9048,3.7139 l 0,3.8057 -3.1268,0 0,-3.8057 c 0,-1.3343 -0.0512,-1.6285 -0.3795,-1.9581 -0.348,-0.2994 -0.956,-0.453 -2.1038,-0.453 -1.1622,0 -1.7689,0.172 -2.1353,0.5568 -0.3979,0.3979 -0.4675,0.7787 -0.4675,2.3257 l 0,3.3343 -3.1242,0 0,-8.3561 z" />
      <path
         inkscape:connector-curvature="0"
         id="path157"
         style="fill:#0367a6;fill-rule:evenodd"
         d="m 303.6141,298.6101 c 0.0709,-1.2173 0.453,-1.8043 1.3894,-2.2942 0.6973,-0.3939 2.1537,-0.5515 4.7407,-0.5515 2.7447,0 3.3842,0.1182 4.0816,0.8326 0.5384,0.5752 0.7104,1.1989 0.7104,2.7105 l 0,5.0349 -3.0047,0 0,-1.1491 -0.1195,0 c -0.2416,0.5253 -0.5725,0.8182 -1.111,1.0638 -0.5226,0.239 -1.3184,0.3112 -3.3855,0.3112 -2.7788,0 -3.6468,-0.6238 -3.6468,-2.6055 0,-1.4931 0.5739,-2.3257 1.7886,-2.6553 0.7446,-0.2088 1.631,-0.2627 3.8727,-0.2627 1.4393,0 1.8583,0.1222 2.3599,0.6422 l 0.1379,0 0,-0.4347 c 0,-1.3027 -0.2416,-1.4747 -2.1353,-1.4747 -2.2575,0 -2.482,0.0682 -2.57,0.8325 z m 3.2489,2.398 0,0 c -0.3139,0.1353 -0.4701,0.3611 -0.4701,0.6921 0,0.6829 0.4859,0.851 2.155,0.851 2.1878,0 2.8287,-0.1852 2.8287,-0.9508 0,-0.3126 -0.1747,-0.5608 -0.5214,-0.6829 -0.172,-0.0814 -0.6934,-0.1037 -2.0315,-0.1037 -1.0401,0 -1.7361,0.0722 -1.9607,0.1943 z" />
      <path
         inkscape:connector-curvature="0"
         id="path159"
         style="fill:#0367a6;fill-rule:evenodd"
         d="m 319.9533,294.0637 0,1.9226 4.9522,0 0,2.2443 -4.9522,0 0,2.4466 c 0,0.8693 0.021,1.0046 0.1405,1.2305 0.1563,0.2994 0.4872,0.4176 1.111,0.4176 1.0086,0 1.2358,-0.222 1.2358,-1.2134 l 0,-0.3297 2.8628,0 c -0.0183,1.6009 -0.1589,2.0986 -0.6448,2.7092 -0.6211,0.7972 -1.5785,1.0769 -3.7322,1.0769 -1.9948,0 -2.8116,-0.176 -3.4196,-0.7774 -0.4531,-0.4347 -0.6094,-0.8917 -0.6619,-1.7966 -0.0158,-0.2403 -0.0158,-0.2403 -0.0158,-1.3171 l 0,-2.4466 -1.6323,0 0,-2.2443 1.6323,0 0,-1.9226 z" />
      <path
         inkscape:connector-curvature="0"
         id="path161"
         style="fill:#0367a6;fill-rule:evenodd"
         d="m 329.2445,292.5706 0,2.3388 -3.1242,0 0,-2.3388 z m 0,3.4157 0,0 0,8.3561 -3.1242,0 0,-8.3561 z" />
      <path
         inkscape:connector-curvature="0"
         id="path163"
         style="fill:#0367a6;fill-rule:evenodd"
         d="m 341.1923,296.5418 c 0.8326,0.6304 1.0742,1.3947 1.0742,3.4748 0,2.2759 -0.2259,3.0901 -0.9692,3.702 -0.7984,0.6737 -1.8779,0.8497 -4.9338,0.8497 -3.09,0 -4.1669,-0.176 -4.964,-0.8497 -0.784,-0.629 -0.9561,-1.3933 -0.9561,-3.8228 0,-1.9462 0.2443,-2.7604 1.0585,-3.354 0.7827,-0.5686 2.0132,-0.7643 4.8458,-0.7643 2.8287,0 4.0448,0.1957 4.8446,0.7643 z m -7.6404,3.6836 0,0 c 0,1.0953 0.1379,1.4748 0.6763,1.7059 0.3821,0.1852 1.1123,0.2758 2.1353,0.2758 2.3638,0 2.7617,-0.2994 2.7617,-2.0684 0,-1.0939 -0.172,-1.5102 -0.7104,-1.736 -0.3664,-0.1721 -1.1307,-0.2771 -2.0513,-0.2771 -2.3612,0 -2.8116,0.3309 -2.8116,2.0998 z" />
      <path
         inkscape:connector-curvature="0"
         id="path165"
         style="fill:#0367a6;fill-rule:evenodd"
         d="m 346.3848,295.9863 0,1.2712 0.1536,0 c 0.5582,-1.0768 1.5286,-1.48 3.5445,-1.48 1.9764,0 3.0217,0.281 3.7663,1.0453 0.7643,0.7972 0.9206,1.4249 0.9206,3.7139 l 0,3.8057 -3.1242,0 0,-3.8057 c 0,-1.3343 -0.0512,-1.6285 -0.3821,-1.9581 -0.3467,-0.2994 -0.9561,-0.453 -2.1196,-0.453 -1.1451,0 -1.7532,0.172 -2.1353,0.5568 -0.3979,0.3979 -0.4505,0.7787 -0.4505,2.3257 l 0,3.3343 -3.1255,0 0,-8.3561 z" />
      <path
         inkscape:connector-curvature="0"
         id="path167"
         style="fill:#0367a6;fill-rule:evenodd"
         d="m 356.1947,298.6101 c 0.0879,-1.2173 0.4504,-1.8043 1.3867,-2.2942 0.7157,-0.3939 2.1564,-0.5515 4.7618,-0.5515 2.7447,0 3.3658,0.1182 4.0789,0.8326 0.5227,0.5752 0.7118,1.1989 0.7118,2.7105 l 0,5.0349 -3.0034,0 0,-1.1491 -0.1221,0 c -0.26,0.5253 -0.5699,0.8182 -1.111,1.0638 -0.5384,0.239 -1.3369,0.3112 -3.4039,0.3112 -2.7604,0 -3.6442,-0.6238 -3.6442,-2.6055 0,-1.4931 0.5699,-2.3257 1.8044,-2.6553 0.7288,-0.2088 1.6139,-0.2627 3.8556,-0.2627 1.459,0 1.874,0.1222 2.3586,0.6422 l 0.1589,0 0,-0.4347 c 0,-1.3027 -0.26,-1.4747 -2.138,-1.4747 -2.239,0 -2.482,0.0682 -2.57,0.8325 z m 3.2463,2.398 0,0 c -0.2942,0.1353 -0.4505,0.3611 -0.4505,0.6921 0,0.6829 0.4872,0.851 2.1537,0.851 2.1879,0 2.8274,-0.1852 2.8274,-0.9508 0,-0.3126 -0.1707,-0.5608 -0.5174,-0.6829 -0.1917,-0.0814 -0.7131,-0.1037 -2.0513,-0.1037 -1.023,0 -1.7019,0.0722 -1.9619,0.1943 z" />
      <path
         inkscape:connector-curvature="0"
         id="path169"
         style="fill:#0367a6;fill-rule:evenodd"
         d="m 371.6133,292.5706 0,11.7718 -3.1241,0 0,-11.7718 z" />
    </g>
    <g
       transform="translate(-225.7641,-226.5216)"
       id="Layer1006">
      <path
         inkscape:connector-curvature="0"
         id="path172"
         style="fill:#004586;fill-rule:evenodd"
         d="m 239.6937,241.7589 31.1381,0 c 14.3786,0.0722 14.829,0.0722 17.2427,1.2344 3.1754,1.4892 4.4099,4.3534 4.4099,10.0896 0,6.1801 -1.4761,8.7186 -5.836,9.9491 5.7152,0.9718 7.4697,3.5247 7.4697,10.4507 0,6.0619 -1.5654,9.1835 -5.2123,10.6096 -1.4931,0.5201 -3.9581,0.8497 -7.8466,0.9955 -0.5384,0 -3.9095,0 -10.1591,0.0486 l -31.2064,0 z m 31.1381,17.1246 0,0 c 4.4952,0 6.4427,-0.1629 7.2911,-0.4715 1.0427,-0.3979 1.5653,-1.4931 1.5653,-3.1255 0,-1.7558 -0.5922,-2.7289 -1.8963,-3.0585 -0.7091,-0.1904 -0.8313,-0.1904 -6.9601,-0.2587 l -18.5981,0 0,6.9142 z m 0.0683,15.852 0,0 c 7.7454,-0.0722 7.7454,-0.0722 8.7159,-0.4517 1.1648,-0.4478 1.6849,-1.4393 1.6849,-3.3212 0,-1.9409 -0.5726,-2.8642 -1.9436,-3.2397 -0.7118,-0.2128 -0.7118,-0.2128 -8.4572,-0.2128 l -18.6664,0 0,7.2254 z" />
      <path
         inkscape:connector-curvature="0"
         id="path174"
         style="fill:#004586;fill-rule:evenodd"
         d="m 298.7511,241.7589 31.1539,0 c 14.3602,0.0722 14.8277,0.0722 17.2257,1.2344 3.1964,1.4892 4.4269,4.3534 4.4269,10.0896 0,6.1801 -1.4931,8.7186 -5.8517,9.9491 5.7322,0.9718 7.4854,3.5247 7.4854,10.4507 0,6.0619 -1.5614,9.1835 -5.2096,10.6096 -1.4932,0.5201 -3.9607,0.8497 -7.8663,0.9955 -0.5213,0 -3.9069,0 -10.1408,0.0486 l -31.2235,0 z m 31.1539,17.1246 0,0 c 4.4965,0 6.4427,-0.1629 7.2753,-0.4715 1.0427,-0.3979 1.5628,-1.4931 1.5628,-3.1255 0,-1.7558 -0.5752,-2.7289 -1.8727,-3.0585 -0.7131,-0.1904 -0.8536,-0.1904 -6.9654,-0.2587 l -18.6151,0 0,6.9142 z m 0.0696,15.852 0,0 c 7.7428,-0.0722 7.7428,-0.0722 8.7002,-0.4517 1.178,-0.4478 1.7006,-1.4393 1.7006,-3.3212 0,-1.9409 -0.5896,-2.8642 -1.9449,-3.2397 -0.7131,-0.2128 -0.7131,-0.2128 -8.4559,-0.2128 l -18.6847,0 0,7.2254 z" />
      <path
         inkscape:connector-curvature="0"
         id="path176"
         style="fill:#004586;fill-rule:evenodd"
         d="m 371.6659,241.7589 0,43.3775 -13.856,0 0,-43.3775 z" />
    </g>
    <path
       inkscape:connector-curvature="0"
       id="path179"
       style="fill:#626266;fill-rule:evenodd"
       d="m 145.7652,84.765205 -131.7831,0 0,-0.524 131.7831,0 z" />
  </g>
</svg>
