<?xml version="1.0" encoding="UTF-8" standalone="no"?>
<svg
   xmlns:dc="http://purl.org/dc/elements/1.1/"
   xmlns:cc="http://creativecommons.org/ns#"
   xmlns:rdf="http://www.w3.org/1999/02/22-rdf-syntax-ns#"
   xmlns:svg="http://www.w3.org/2000/svg"
   xmlns="http://www.w3.org/2000/svg"
   viewBox="0 0 1052.3625 819.33502"
   height="819.33502"
   width="1052.3625"
   xml:space="preserve"
   version="1.1"
   id="svg4155"><metadata
     id="metadata4161"><rdf:RDF><cc:Work
         rdf:about=""><dc:format>image/svg+xml</dc:format><dc:type
           rdf:resource="http://purl.org/dc/dcmitype/StillImage" /><dc:title></dc:title></cc:Work></rdf:RDF></metadata><defs
     id="defs4159"><clipPath
       id="clipPath4169"
       clipPathUnits="userSpaceOnUse"><path
         id="path4171"
         d="m 0,655.468 841.89,0 L 841.89,0 0,0 0,655.468 Z" /></clipPath></defs><g
     transform="matrix(1.25,0,0,-1.25,0,819.335)"
     id="g4163"><g
       id="g4165"><g
         clip-path="url(#clipPath4169)"
         id="g4167"><g
           transform="translate(242.8013,366.3691)"
           id="g4173"><path
             id="path4175"
             style="fill:#231f20;fill-opacity:1;fill-rule:nonzero;stroke:none"
             d="m 0,0 c -6.211,1.997 -10.189,3.532 -11.823,4.562 -1.416,0.891 -2.104,2.141 -2.104,3.821 0,1.449 0,5.858 9.382,5.858 3.614,0 9.954,-0.511 18.842,-1.517 0.266,-0.036 0.533,0.046 0.741,0.214 0.208,0.168 0.34,0.413 0.367,0.678 l 1.048,10.382 c 0.051,0.515 -0.297,0.983 -0.805,1.082 l -3.446,0.671 c -7.266,1.273 -13.349,1.92 -18.08,1.92 -7.06,0 -12.72,-1.677 -16.821,-4.984 -4.165,-3.36 -6.277,-8.493 -6.277,-15.256 0,-5.405 1.626,-9.702 4.832,-12.772 3.119,-2.989 8.499,-5.585 15.989,-7.716 4.499,-1.295 7.518,-2.493 8.971,-3.559 1.296,-0.953 1.926,-2.247 1.926,-3.957 0,-5.036 -2.89,-7.382 -9.096,-7.382 -4.446,0 -10.971,0.574 -19.394,1.706 -0.264,0.036 -0.53,-0.035 -0.741,-0.197 -0.211,-0.162 -0.349,-0.401 -0.384,-0.664 l -1.333,-10.193 c -0.068,-0.523 0.282,-1.01 0.801,-1.111 l 3.412,-0.664 c 7.21,-1.53 13.4,-2.307 18.401,-2.307 6.879,0 12.545,1.842 16.838,5.475 4.343,3.675 6.546,9.123 6.546,16.194 0,5.581 -1.379,9.807 -4.099,12.562 C 11.014,-4.442 6.535,-2.103 0,0" /></g><g
           transform="translate(295.0259,369.7998)"
           id="g4177"><path
             id="path4179"
             style="fill:#231f20;fill-opacity:1;fill-rule:nonzero;stroke:none"
             d="m 0,0 c -0.476,0 -0.886,-0.335 -0.98,-0.802 l -7.077,-30.012 -0.613,0 -5.677,35.922 c -0.077,0.486 -0.496,0.844 -0.988,0.844 l -12.573,0 c -0.298,0 -0.58,-0.133 -0.771,-0.362 -0.19,-0.23 -0.267,-0.531 -0.212,-0.824 l 7.919,-41.679 c 0.892,-5.152 3.059,-6.76 7.225,-6.76 l 13.417,0 c 1.125,0 2.438,0.949 2.778,2.546 l 4.124,22.14 4.124,-22.14 c 0.341,-1.597 1.653,-2.546 2.778,-2.546 l 13.417,0 c 4.167,0 6.333,1.608 7.225,6.76 l 7.919,41.679 c 0.056,0.293 -0.022,0.594 -0.212,0.824 -0.19,0.229 -0.472,0.362 -0.77,0.362 l -12.574,0 c -0.492,0 -0.911,-0.358 -0.987,-0.844 l -5.677,-35.922 -0.614,0 -7.076,30.012 C 14.03,-0.335 13.621,0 13.145,0" /></g><g
           transform="translate(399.4873,338.6045)"
           id="g4181"><path
             id="path4183"
             style="fill:#231f20;fill-opacity:1;fill-rule:nonzero;stroke:none"
             d="m 0,0 -7.212,-0.19 c -1.001,0 -1.715,0.196 -2.123,0.584 -0.433,0.408 -0.675,0.879 -0.743,1.44 -0.089,0.749 -0.135,2.07 -0.135,3.929 l 0,18.526 10.715,0 c 0.553,0 1,0.447 1,1 l 0,10.858 c 0,0.553 -0.447,1 -1,1 l -10.715,0 0,12.241 c 0,0.552 -0.448,1 -1,1 l -12.764,0 c -0.552,0 -1,-0.448 -1,-1 l 0,-12.241 -4.619,0 c -0.552,0 -1,-0.447 -1,-1 l 0,-10.858 c 0,-0.553 0.448,-1 1,-1 l 4.619,0 0,-18.812 c 0,-7.226 1.102,-12.09 3.368,-14.872 2.285,-2.803 6.487,-4.225 12.491,-4.225 2.288,0 5.631,0.489 9.934,1.453 0.477,0.106 0.808,0.543 0.78,1.031 L 1.025,-0.944 C 0.995,-0.404 0.534,-0.018 0,0" /></g><g
           transform="translate(444.9951,375.752)"
           id="g4185"><path
             id="path4187"
             style="fill:#231f20;fill-opacity:1;fill-rule:nonzero;stroke:none"
             d="m 0,0 -35.338,0 c -0.552,0 -1,-0.447 -1,-1 l 0,-11.43 c 0,-0.552 0.448,-1 1,-1 l 17.91,0 -18.688,-23.137 c -0.144,-0.178 -0.222,-0.4 -0.222,-0.628 l 0,-11.43 c 0,-0.553 0.448,-1 1,-1 l 35.338,0 c 0.553,0 1,0.447 1,1 l 0,11.43 c 0,0.552 -0.447,1 -1,1 l -17.91,0 18.688,23.137 C 0.922,-12.88 1,-12.658 1,-12.43 L 1,-1 C 1,-0.447 0.553,0 0,0" /></g><g
           transform="translate(468.6982,356.2256)"
           id="g4189"><path
             id="path4191"
             style="fill:#231f20;fill-opacity:1;fill-rule:nonzero;stroke:none"
             d="m 0,0 c 0.147,2.906 0.719,5.002 1.7,6.235 1.034,1.298 2.918,1.956 5.6,1.956 2.684,0 4.554,-0.628 5.556,-1.867 C 13.808,5.147 14.335,3.022 14.429,0 L 0,0 Z m 7.252,20.669 c -14.631,0 -22.05,-8.957 -22.05,-26.622 0,-8.776 1.715,-15.243 5.096,-19.221 3.421,-4.026 8.933,-6.067 16.383,-6.067 5.954,0 12.699,0.907 20.048,2.695 0.457,0.111 0.774,0.524 0.764,0.992 l -0.191,9.43 c -0.006,0.28 -0.129,0.545 -0.339,0.73 -0.21,0.185 -0.491,0.276 -0.768,0.244 l -2.642,-0.284 c -4.587,-0.377 -9.879,-0.568 -15.729,-0.568 -2.533,0 -4.475,0.574 -5.772,1.706 -1.095,0.953 -1.743,2.491 -1.935,4.58 l 26.947,0 c 0.511,0 0.94,0.385 0.995,0.894 l 0.952,8.858 c 0.004,0.035 0.006,0.07 0.006,0.107 0,14.947 -7.323,22.526 -21.765,22.526" /></g><g
           transform="translate(535.9551,376.876)"
           id="g4193"><path
             id="path4195"
             style="fill:#231f20;fill-opacity:1;fill-rule:nonzero;stroke:none"
             d="m 0,0 c -4.454,-0.879 -9.172,-2.706 -14.046,-5.439 l 0,3.315 c 0,0.553 -0.447,1 -1,1 l -12.669,0 c -0.553,0 -1,-0.447 -1,-1 l 0,-47.625 c 0,-0.553 0.447,-1 1,-1 l 12.764,0 c 0.553,0 1,0.447 1,1 l 0,31.199 1.202,0.421 c 3.623,1.125 8.046,2.239 13.147,3.311 0.464,0.096 0.795,0.505 0.795,0.978 l 0,12.859 c 0,0.298 -0.133,0.583 -0.365,0.772 C 0.597,-0.019 0.294,0.058 0,0" /></g><g
           transform="translate(558.3887,394.8018)"
           id="g4197"><path
             id="path4199"
             style="fill:#231f20;fill-opacity:1;fill-rule:nonzero;stroke:none"
             d="m 0,0 -12.764,0 c -0.552,0 -1,-0.447 -1,-1 l 0,-66.675 c 0,-0.553 0.448,-1 1,-1 l 12.764,0 c 0.553,0 1,0.447 1,1 L 1,-1 C 1,-0.447 0.553,0 0,0" /></g><g
           transform="translate(595.8691,346.9902)"
           id="g4201"><path
             id="path4203"
             style="fill:#231f20;fill-opacity:1;fill-rule:nonzero;stroke:none"
             d="m 0,0 0,-8.332 -0.687,-0.184 c -2.759,-0.735 -5.333,-1.108 -7.648,-1.108 -1.707,0 -3.667,0.481 -3.667,4.238 0,2.99 1.364,4.446 4.422,4.72 L 0,0 Z m 17.111,-10.407 c -0.899,0.188 -1.517,0.487 -1.74,0.841 -0.165,0.261 -0.464,0.964 -0.607,2.657 l 0,19.811 c 0,5.848 -1.468,10.196 -4.364,12.921 -2.879,2.708 -7.564,4.081 -13.924,4.081 -6.188,0 -12.797,-0.94 -19.646,-2.797 -0.451,-0.122 -0.758,-0.541 -0.737,-1.007 l 0.381,-8.859 c 0.024,-0.552 0.508,-0.998 1.042,-0.956 l 17.864,0.761 c 1.72,0 2.949,-0.292 3.65,-0.867 C -0.335,15.657 0,14.524 0,12.902 L 0,10.878 -9.26,10.186 C -15.088,9.793 -19.502,8.457 -22.379,6.215 -25.353,3.897 -26.86,-0.006 -26.86,-5.386 c 0,-11.028 5.303,-16.62 15.763,-16.62 4.713,0 9.394,1.072 13.922,3.188 1.903,-1.223 3.822,-2.062 5.714,-2.496 2.004,-0.459 4.69,-0.692 7.986,-0.692 0.537,0 0.978,0.424 0.999,0.96 l 0.381,9.62 c 0.02,0.488 -0.316,0.919 -0.794,1.019" /></g><g
           transform="translate(635.9678,362.4189)"
           id="g4205"><path
             id="path4207"
             style="fill:#231f20;fill-opacity:1;fill-rule:nonzero;stroke:none"
             d="m 0,0 0.602,0.13 c 2.19,0.607 4.536,0.916 6.97,0.916 1.732,0 7.001,0 7.001,-11.859 0,-5.098 -0.675,-8.637 -2.007,-10.518 -1.255,-1.774 -3.865,-2.674 -7.755,-2.674 -0.83,0 -2.446,0.101 -4.811,0.299 L 0,0 Z M 24.673,8.644 C 21.406,12.514 16.23,14.476 9.287,14.476 6.699,14.476 3.58,13.774 0,12.388 l 0,18.995 c 0,0.553 -0.447,1 -1,1 l -12.764,0 c -0.552,0 -1,-0.447 -1,-1 l 0,-66.485 c 0,-0.511 0.387,-0.941 0.896,-0.994 l 3.638,-0.383 c 7.345,-0.643 12.266,-0.956 15.041,-0.956 8.935,0 15.359,1.911 19.092,5.677 3.732,3.765 5.624,10.555 5.624,20.183 0,9.73 -1.588,16.344 -4.854,20.219" /></g><g
           transform="translate(350.4766,392.1631)"
           id="g4209"><path
             id="path4211"
             style="fill:#f2561a;fill-opacity:1;fill-rule:nonzero;stroke:none"
             d="m 0,0 c -3.345,0 -6.057,-2.713 -6.057,-6.059 0,-3.343 2.712,-6.056 6.057,-6.056 3.345,0 6.057,2.713 6.057,6.056 C 6.057,-2.713 3.345,0 0,0 m 0,-3 c 1.686,0 3.057,-1.372 3.057,-3.059 0,-1.685 -1.371,-3.056 -3.057,-3.056 -1.686,0 -3.057,1.371 -3.057,3.056 C -3.057,-4.372 -1.686,-3 0,-3" /></g><g
           transform="translate(359.4771,403.9131)"
           id="g4213"><path
             id="path4215"
             style="fill:#f2561a;fill-opacity:1;fill-rule:nonzero;stroke:none"
             d="m 0,0 c -3.759,0 -6.807,-3.049 -6.807,-6.809 0,-3.757 3.048,-6.806 6.807,-6.806 3.759,0 6.807,3.049 6.807,6.806 C 6.807,-3.049 3.759,0 0,0 m 0,-3 c 2.099,0 3.807,-1.708 3.807,-3.809 0,-2.098 -1.708,-3.806 -3.807,-3.806 -2.099,0 -3.807,1.708 -3.807,3.806 C -3.807,-4.708 -2.099,-3 0,-3" /></g><g
           transform="translate(344.7446,415.8408)"
           id="g4217"><path
             id="path4219"
             style="fill:#f2561a;fill-opacity:1;fill-rule:nonzero;stroke:none"
             d="m 0,0 c -4.547,0 -8.234,-3.686 -8.234,-8.234 0,-4.547 3.687,-8.233 8.234,-8.233 4.547,0 8.234,3.686 8.234,8.233 C 8.234,-3.686 4.547,0 0,0 m 0,-3 c 2.886,0 5.234,-2.349 5.234,-5.234 0,-2.886 -2.348,-5.233 -5.234,-5.233 -2.886,0 -5.234,2.347 -5.234,5.233 C -5.234,-5.349 -2.886,-3 0,-3" /></g><g
           transform="translate(361.7012,375.8945)"
           id="g4221"><path
             id="path4223"
             style="fill:#f2561a;fill-opacity:1;fill-rule:nonzero;stroke:none"
             d="m 0,0 -17.391,0 c -0.547,0 -0.992,-0.444 -0.992,-0.992 l 0,-11.005 c 0,-0.548 0.445,-0.992 0.992,-0.992 l 1.714,0 0,-35.83 c 0,-3.856 3.126,-6.981 6.982,-6.981 3.856,0 6.982,3.125 6.982,6.981 l 0,35.83 1.713,0 c 0.548,0 0.992,0.444 0.992,0.992 l 0,11.005 C 0.992,-0.444 0.548,0 0,0" /></g></g></g></g></svg>