<?xml version="1.0" encoding="UTF-8" standalone="no"?>
<!-- Created with Inkscape (http://www.inkscape.org/) -->

<svg
   xmlns:dc="http://purl.org/dc/elements/1.1/"
   xmlns:cc="http://creativecommons.org/ns#"
   xmlns:rdf="http://www.w3.org/1999/02/22-rdf-syntax-ns#"
   xmlns:svg="http://www.w3.org/2000/svg"
   xmlns="http://www.w3.org/2000/svg"
   xmlns:sodipodi="http://sodipodi.sourceforge.net/DTD/sodipodi-0.dtd"
   xmlns:inkscape="http://www.inkscape.org/namespaces/inkscape"
   id="svg3355"
   version="1.1"
   inkscape:version="0.91 r"
   xml:space="preserve"
   width="2577.5"
   height="1303.75"
   viewBox="0 0 2577.5 1303.75"
   sodipodi:docname="Logo -SIU.svg"><metadata
     id="metadata3361"><rdf:RDF><cc:Work
         rdf:about=""><dc:format>image/svg+xml</dc:format><dc:type
           rdf:resource="http://purl.org/dc/dcmitype/StillImage" /><dc:title></dc:title></cc:Work></rdf:RDF></metadata><defs
     id="defs3359"><clipPath
       clipPathUnits="userSpaceOnUse"
       id="clipPath3371"><path
         d="m 24.496,1018.504 2013.008,0 0,-994.008 -2013.008,0 0,994.008 z"
         id="path3373"
         inkscape:connector-curvature="0" /></clipPath></defs><sodipodi:namedview
     pagecolor="#ffffff"
     bordercolor="#666666"
     borderopacity="1"
     objecttolerance="10"
     gridtolerance="10"
     guidetolerance="10"
     inkscape:pageopacity="0"
     inkscape:pageshadow="2"
     inkscape:window-width="1440"
     inkscape:window-height="843"
     id="namedview3357"
     showgrid="false"
     inkscape:zoom="0.47555129"
     inkscape:cx="1288.75"
     inkscape:cy="1240.6653"
     inkscape:window-x="0"
     inkscape:window-y="0"
     inkscape:window-maximized="1"
     inkscape:current-layer="g3363" /><g
     id="g3363"
     inkscape:groupmode="layer"
     inkscape:label="Logo -SIU"
     transform="matrix(1.25,0,0,-1.25,0,1303.75)"><g
       id="g3367"><g
         id="g3369"
         clip-path="url(#clipPath3371)"><g
           id="g3375"
           transform="translate(415.9131,892.1619)"><path
             d="m 0,0 c 68.461,0 123.959,-55.498 123.959,-123.959 0,-68.461 -55.498,-123.959 -123.959,-123.959 -68.461,0 -123.959,55.498 -123.959,123.959 C -123.959,-55.498 -68.461,0 0,0"
             style="fill:#ffffff;fill-opacity:1;fill-rule:nonzero;stroke:none"
             id="path3377"
             inkscape:connector-curvature="0" /></g><g
           id="g3379"
           transform="translate(415.9131,892.1619)"><path
             d="m 0,0 c 68.461,0 123.959,-55.498 123.959,-123.959 0,-68.461 -55.498,-123.959 -123.959,-123.959 -68.461,0 -123.959,55.498 -123.959,123.959 C -123.959,-55.498 -68.461,0 0,0 Z"
             style="fill:none;stroke:#ee4237;stroke-width:12;stroke-linecap:butt;stroke-linejoin:miter;stroke-miterlimit:10;stroke-dasharray:none;stroke-opacity:1"
             id="path3381"
             inkscape:connector-curvature="0" /></g><g
           id="g3383"
           transform="translate(345.0338,752.9612)"><path
             d="m 0,0 0,24.941 c 0,0.533 0.213,1.066 0.639,1.599 0.427,0.533 0.96,0.746 1.599,0.746 l 11.512,0 c 0.639,0 1.172,-0.213 1.598,-0.64 0.427,-0.426 0.64,-0.959 0.64,-1.598 l 0,-24.089 c 0,-5.222 1.599,-9.699 4.903,-13.216 3.304,-3.518 7.461,-5.33 12.683,-5.33 5.223,0 9.487,1.812 12.791,5.33 3.304,3.517 5.009,7.887 5.009,13.11 l 0,49.669 c 0,0.639 0.213,1.172 0.64,1.598 0.426,0.427 0.959,0.64 1.598,0.64 l 11.831,0 c 0.533,0 1.066,-0.213 1.599,-0.746 0.533,-0.533 0.746,-1.066 0.746,-1.599 l 0,-50.522 c 0,-9.273 -3.304,-17.266 -9.805,-23.662 -6.502,-6.501 -14.603,-9.699 -24.089,-9.699 -9.486,0 -17.48,3.198 -23.982,9.699 C 3.304,-17.267 0,-9.38 0,0"
             style="fill:#000000;fill-opacity:1;fill-rule:nonzero;stroke:none"
             id="path3385"
             inkscape:connector-curvature="0" /></g><g
           id="g3387"
           transform="translate(449.4875,766.3909)"><path
             d="m 0,0 14.069,0 c 3.411,0 6.289,1.172 8.847,3.624 2.451,2.451 3.73,5.436 3.73,8.953 0,3.304 -1.279,6.075 -3.73,8.42 -2.452,2.239 -5.436,3.411 -8.847,3.411 L 0,24.408 0,0 Z m -15.881,-43.38 0,80.472 c 0,0.639 0.213,1.172 0.639,1.599 0.427,0.426 0.96,0.639 1.599,0.639 l 28.565,0 c 7.461,0 13.856,-2.665 19.185,-7.887 5.33,-5.223 7.994,-11.618 7.994,-18.972 0,-7.568 -2.664,-13.963 -7.994,-19.292 -5.329,-5.33 -11.724,-7.994 -19.185,-7.994 l -15.242,0 0,-28.565 c 0,-0.533 -0.213,-1.066 -0.639,-1.599 -0.427,-0.533 -0.96,-0.746 -1.599,-0.746 l -11.192,0 c -0.639,0 -1.172,0.213 -1.598,0.639 -0.213,0.533 -0.533,1.066 -0.533,1.706"
             style="fill:#000000;fill-opacity:1;fill-rule:nonzero;stroke:none"
             id="path3389"
             inkscape:connector-curvature="0" /></g><g
           id="g3391"
           transform="translate(338.7452,786.7488)"><path
             d="M 0,0 29.524,0 14.815,22.916 0,0 Z"
             style="fill:#ee4237;fill-opacity:1;fill-rule:nonzero;stroke:none"
             id="path3393"
             inkscape:connector-curvature="0" /></g><g
           id="g3395"
           transform="translate(603.2749,727.4491)"><path
             d="m 0,0 4.386,8.319 c 0.974,1.878 3.045,1.878 4.142,0.939 0.609,-0.403 10.477,-8.319 18.396,-8.319 6.335,0 11.086,4.562 11.086,10.331 0,6.843 -5.239,11.539 -15.472,16.101 -11.452,5.098 -22.903,13.149 -22.903,28.981 0,11.941 8.04,25.76 27.41,25.76 12.427,0 21.929,-6.977 24.366,-8.989 1.218,-0.805 1.583,-3.086 0.731,-4.428 l -4.63,-7.647 c -0.974,-1.61 -2.802,-2.684 -4.264,-1.61 -0.974,0.67 -10.233,7.379 -16.934,7.379 -6.944,0 -10.72,-5.099 -10.72,-9.392 0,-6.306 4.507,-10.6 14.375,-15.027 11.817,-5.233 25.462,-13.015 25.462,-30.323 0,-13.819 -10.843,-26.565 -28.02,-26.565 -15.35,0 -24.365,7.916 -26.802,10.465 C -0.487,-2.818 -1.096,-2.147 0,0"
             style="fill:#000000;fill-opacity:1;fill-rule:nonzero;stroke:none"
             id="path3397"
             inkscape:connector-curvature="0" /></g><g
           id="g3399"
           transform="translate(694.2091,792.1193)"><path
             d="m 0,0 -18.639,0 c -1.34,0 -2.315,1.207 -2.315,2.549 l 0,11.002 c 0,1.342 0.975,2.549 2.315,2.549 l 53.238,0 c 1.34,0 2.314,-1.207 2.314,-2.549 l 0,-11.002 C 36.913,1.207 35.939,0 34.599,0 l -18.64,0 0,-75.27 c 0,-1.341 -1.096,-2.549 -2.314,-2.549 l -11.33,0 C 1.096,-77.819 0,-76.611 0,-75.27 L 0,0 Z"
             style="fill:#000000;fill-opacity:1;fill-rule:nonzero;stroke:none"
             id="path3401"
             inkscape:connector-curvature="0" /></g><g
           id="g3403"
           transform="translate(764.9153,746.3672)"><path
             d="m 0,0 11.939,29.517 0.365,0 L 24.487,0 0,0 Z M 52.629,-28.578 15.106,61.718 c -0.365,0.805 -0.852,1.476 -2.071,1.476 l -1.218,0 c -1.096,0 -1.705,-0.671 -2.071,-1.476 l -37.888,-90.296 c -0.731,-1.745 0.244,-3.489 2.071,-3.489 l 10.599,0 c 1.949,0 3.046,1.342 3.533,2.684 l 5.97,14.49 36.426,0 5.969,-14.49 c 0.853,-1.879 1.706,-2.684 3.533,-2.684 l 10.599,0 c 1.827,0 2.802,1.744 2.071,3.489"
             style="fill:#000000;fill-opacity:1;fill-rule:nonzero;stroke:none"
             id="path3405"
             inkscape:connector-curvature="0" /></g><g
           id="g3407"
           transform="translate(872.5404,765.4194)"><path
             d="m 0,0 -19.858,0 0,26.7 L 0,26.7 C 6.457,26.7 12.061,20.796 12.061,13.685 12.061,6.172 6.457,0 0,0 M 9.868,-13.149 C 20.467,-8.453 27.898,1.61 27.898,13.954 27.898,29.92 15.959,42.8 1.34,42.8 l -34.842,0 c -1.34,0 -2.315,-1.207 -2.315,-2.549 l 0,-88.821 c 0,-1.341 0.975,-2.549 2.315,-2.549 l 11.208,0 c 1.218,0 2.315,1.208 2.315,2.549 l 0,34.214 13.522,0 16.203,-35.555 c 0.244,-0.537 0.853,-1.208 1.949,-1.208 l 12.792,0 c 2.071,0 2.924,2.147 2.071,3.891 l -16.69,34.079 z"
             style="fill:#000000;fill-opacity:1;fill-rule:nonzero;stroke:none"
             id="path3409"
             inkscape:connector-curvature="0" /></g><g
           id="g3411"
           transform="translate(937.3931,792.1193)"><path
             d="m 0,0 -18.639,0 c -1.34,0 -2.315,1.207 -2.315,2.549 l 0,11.002 c 0,1.342 0.975,2.549 2.315,2.549 l 53.238,0 c 1.34,0 2.314,-1.207 2.314,-2.549 l 0,-11.002 C 36.913,1.207 35.939,0 34.599,0 l -18.64,0 0,-75.27 c 0,-1.341 -1.096,-2.549 -2.314,-2.549 l -11.33,0 C 1.096,-77.819 0,-76.611 0,-75.27 L 0,0 Z"
             style="fill:#000000;fill-opacity:1;fill-rule:nonzero;stroke:none"
             id="path3413"
             inkscape:connector-curvature="0" /></g><g
           id="g3415"
           transform="translate(995.5593,805.6705)"><path
             d="m 0,0 c 0,1.342 1.096,2.549 2.315,2.549 l 11.33,0 c 1.218,0 2.314,-1.207 2.314,-2.549 l 0,-88.821 c 0,-1.342 -1.096,-2.549 -2.314,-2.549 l -11.33,0 C 1.096,-91.37 0,-90.163 0,-88.821 L 0,0 Z"
             style="fill:#000000;fill-opacity:1;fill-rule:nonzero;stroke:none"
             id="path3417"
             inkscape:connector-curvature="0" /></g><g
           id="g3419"
           transform="translate(1054.2917,792.1193)"><path
             d="m 0,0 -18.639,0 c -1.34,0 -2.315,1.207 -2.315,2.549 l 0,11.002 c 0,1.342 0.975,2.549 2.315,2.549 l 53.238,0 c 1.34,0 2.315,-1.207 2.315,-2.549 l 0,-11.002 C 36.914,1.207 35.939,0 34.599,0 l -18.64,0 0,-75.27 c 0,-1.341 -1.096,-2.549 -2.314,-2.549 l -11.33,0 C 1.096,-77.819 0,-76.611 0,-75.27 L 0,0 Z"
             style="fill:#000000;fill-opacity:1;fill-rule:nonzero;stroke:none"
             id="path3421"
             inkscape:connector-curvature="0" /></g><g
           id="g3423"
           transform="translate(1237.9427,764.7485)"><path
             d="M 0,0 C 6.822,0 12.548,6.038 12.548,13.954 12.548,21.333 6.822,26.968 0,26.968 l -14.132,0 L -14.132,0 0,0 Z m -29.969,40.922 c 0,1.342 0.974,2.549 2.314,2.549 l 28.63,0 c 14.984,0 27.289,-13.417 27.289,-29.651 0,-16.638 -12.305,-30.189 -27.168,-30.189 l -15.228,0 0,-31.53 c 0,-1.342 -1.096,-2.549 -2.315,-2.549 l -11.208,0 c -1.34,0 -2.314,1.207 -2.314,2.549 l 0,88.821 z m -96.734,0 c 0,1.342 1.096,2.549 2.315,2.549 l 11.573,0 c 1.34,0 2.315,-1.207 2.315,-2.549 l 0,-54.876 c 0,-11.404 7.066,-20.394 17.665,-20.394 10.599,0 17.786,8.99 17.786,20.26 l 0,55.01 c 0,1.342 0.975,2.549 2.315,2.549 l 11.573,0 c 1.219,0 2.315,-1.207 2.315,-2.549 l 0,-55.815 c 0,-20.394 -14.741,-36.897 -33.989,-36.897 -19.127,0 -33.868,16.503 -33.868,36.897 l 0,55.815 z"
             style="fill:#ee4237;fill-opacity:1;fill-rule:nonzero;stroke:none"
             id="path3425"
             inkscape:connector-curvature="0" /></g><g
           id="g3427"
           transform="translate(413.9917,401.2089)" /><g
           id="g3431"
           transform="translate(413.9917,401.2089)" /><g
           id="g3435"
           transform="translate(343.1123,262.0083)" /><g
           id="g3439"
           transform="translate(447.5661,275.438)" /><g
           id="g3443"
           transform="translate(336.8238,295.7959)" /><g
           id="g3447"
           transform="translate(601.3535,236.4962)" /><g
           id="g3451"
           transform="translate(692.2877,301.1664)" /><g
           id="g3455"
           transform="translate(762.994,255.4143)" /><g
           id="g3459"
           transform="translate(870.619,274.4665)" /><g
           id="g3463"
           transform="translate(935.4717,301.1664)" /><g
           id="g3467"
           transform="translate(993.6379,314.7176)" /><g
           id="g3471"
           transform="translate(1052.3702,301.1664)" /><g
           id="g3475"
           transform="translate(1236.0214,273.7956)" /></g></g><g
       id="g3479"
       transform="translate(27,1010)"><path
         d="m 0,0 -27,0 m 2035,0 27,0 M 0,-977 l -27,0 m 2035,0 27,0 M 6,6 6,33 m 0,-1016 0,-27 M 2002,6 l 0,27 m 0,-1016 0,-27"
         style="fill:none;stroke:#ffffff;stroke-width:1.25;stroke-linecap:butt;stroke-linejoin:miter;stroke-miterlimit:10;stroke-dasharray:none;stroke-opacity:1"
         id="path3481"
         inkscape:connector-curvature="0" /></g><g
       id="g3483"
       transform="translate(27,1010)"><path
         d="m 0,0 -27,0 m 2035,0 27,0 M 0,-977 l -27,0 m 2035,0 27,0 M 6,6 6,33 m 0,-1016 0,-27 M 2002,6 l 0,27 m 0,-1016 0,-27"
         style="fill:none;stroke:#000000;stroke-width:0.25;stroke-linecap:butt;stroke-linejoin:miter;stroke-miterlimit:10;stroke-dasharray:none;stroke-opacity:1"
         id="path3485"
         inkscape:connector-curvature="0" /></g></g></svg>