<?xml version="1.0" encoding="UTF-8" standalone="no"?>
<svg
   xmlns:dc="http://purl.org/dc/elements/1.1/"
   xmlns:cc="http://creativecommons.org/ns#"
   xmlns:rdf="http://www.w3.org/1999/02/22-rdf-syntax-ns#"
   xmlns:svg="http://www.w3.org/2000/svg"
   xmlns="http://www.w3.org/2000/svg"
   viewBox="0 0 595.27557 841.88977"
   id="svg181"
   height="841.88977"
   width="595.27557"
   version="1.1">
  <metadata
     id="metadata187">
    <rdf:RDF>
      <cc:Work
         rdf:about="">
        <dc:format>image/svg+xml</dc:format>
        <dc:type
           rdf:resource="http://purl.org/dc/dcmitype/StillImage" />
      </cc:Work>
    </rdf:RDF>
  </metadata>
  <defs
     id="defs185" />
  <g
     id="Layer1000">
    <path
       id="path2"
       style="fill:#626266;fill-rule:evenodd"
       d="m 279.2242,115.6812 v -12.9278 h 2.7136 c 0.8539,0 1.5119,0.0484 1.9742,0.1097 0.4552,0.0779 0.8904,0.2524 1.2678,0.5484 0.8692,0.6427 1.2925,1.5603 1.2925,2.7596 0,1.4011 -0.6226,2.2915 -1.9022,2.6641 0.7477,0.1309 1.3574,0.4717 1.8126,1.0331 0.447,0.5767 0.6663,1.2914 0.6663,2.1535 0,0.5271 -0.0931,1.0106 -0.2807,1.4942 -0.1828,0.467 -0.4505,0.8738 -0.776,1.2147 -0.4387,0.4068 -0.9823,0.6875 -1.7017,0.8125 -0.5,0.1097 -1.2808,0.138 -2.3528,0.138 z m 1.5437,-11.5821 v 0 l -0.0165,4.3186 h 1.1864 c 1.0567,0 1.8197,-0.1391 2.2596,-0.4186 0.467,-0.3338 0.7312,-0.8774 0.7312,-1.6581 0,-0.8857 -0.2359,-1.4789 -0.6993,-1.7749 -0.4553,-0.309 -1.2348,-0.467 -2.2915,-0.467 z m -0.0165,5.5333 v 0 4.7256 h 1.1699 c 0.638,0 1.0402,0 1.2112,-0.0165 0.6415,-0.0448 1.0968,-0.1875 1.4376,-0.4187 0.5779,-0.4068 0.8456,-1.0484 0.8456,-1.901 0,-0.9683 -0.3456,-1.6417 -1.0803,-2.045 -0.2194,-0.1415 -0.513,-0.2311 -0.8126,-0.283 -0.3089,-0.0283 -0.6993,-0.0614 -1.1498,-0.0614 z" />
    <path
       id="path4"
       style="fill:#626266;fill-rule:evenodd"
       d="m 296.4671,111.8625 h -6.412 v 0.1227 c 0,0.8727 0.2524,1.5756 0.756,2.1086 0.4965,0.5437 1.138,0.8079 1.9305,0.8079 1.0921,0 1.9624,-0.5897 2.6205,-1.7749 l 1.0602,0.7146 c -0.8255,1.4671 -2.0768,2.2184 -3.742,2.2184 -1.2348,0 -2.2348,-0.4069 -2.9943,-1.2195 -0.7678,-0.796 -1.1381,-1.8727 -1.1381,-3.1971 0,-1.276 0.3703,-2.3245 1.1381,-3.1158 0.7477,-0.7972 1.7147,-1.2029 2.9011,-1.2029 1.1817,0 2.1322,0.3774 2.8186,1.1215 0.7194,0.7642 1.0614,1.828 1.0614,3.1488 z m -1.4789,-1.1215 v 0 c 0,-0.6864 -0.2193,-1.2347 -0.6745,-1.6251 -0.4352,-0.3892 -1.0237,-0.5767 -1.7879,-0.5767 -0.6581,0 -1.2182,0.2029 -1.6699,0.5932 -0.4552,0.4069 -0.7194,0.9388 -0.8008,1.6086 z" />
    <path
       id="path6"
       style="fill:#626266;fill-rule:evenodd"
       d="m 298.2302,119.6437 2.2018,-4.742 -3.1854,-7.293 h 1.6086 l 2.3563,5.8141 2.4919,-5.8141 h 1.5143 l -5.4273,12.035 z" />
    <path
       id="path8"
       style="fill:#626266;fill-rule:evenodd"
       d="m 305.8722,111.688 c 0,-0.5885 0.0932,-1.1498 0.329,-1.6817 0.1993,-0.5283 0.5284,-1.0119 0.9506,-1.4176 0.8408,-0.8302 1.8857,-1.2642 3.1039,-1.2642 1.1982,0 2.2266,0.434 3.1005,1.2642 0.8573,0.8409 1.2961,1.8728 1.2961,3.0993 0,1.223 -0.4388,2.2348 -1.3091,3.1075 -0.8774,0.8421 -1.9046,1.2643 -3.0875,1.2643 -1.2182,0 -2.2501,-0.4388 -3.1039,-1.2796 -0.8609,-0.8574 -1.2796,-1.8857 -1.2796,-3.0922 z m 1.4671,0 v 0 c 0,0.8609 0.2759,1.5968 0.8408,2.19 0.5602,0.5885 1.2631,0.8857 2.0756,0.8857 0.8091,0 1.4954,-0.2972 2.0721,-0.8857 0.5614,-0.5932 0.842,-1.3291 0.842,-2.19 0,-0.8526 -0.2806,-1.572 -0.842,-2.1817 -0.5767,-0.5767 -1.263,-0.8857 -2.0721,-0.8857 -0.8125,0 -1.5154,0.309 -2.0756,0.8857 -0.5649,0.6097 -0.8408,1.3291 -0.8408,2.1817 z" />
    <path
       id="path10"
       style="fill:#626266;fill-rule:evenodd"
       d="m 316.8057,115.6977 v -8.089 h 1.3692 v 1.2631 c 0.6864,-1.0308 1.6699,-1.5473 2.9459,-1.5473 0.9541,0 1.6853,0.2477 2.2337,0.7512 0.5283,0.5001 0.7972,1.2147 0.7972,2.1334 v 5.4886 h -1.3739 v -4.7373 c 0,-1.6251 -0.7229,-2.4212 -2.1369,-2.4212 -0.861,0 -1.5108,0.2807 -1.9825,0.8621 -0.2193,0.2795 -0.3408,0.5437 -0.3903,0.8243 -0.0614,0.2795 -0.0932,0.7194 -0.0932,1.3114 v 4.1607 z" />
    <path
       id="path12"
       style="fill:#626266;fill-rule:evenodd"
       d="m 334.4094,102.0105 v 13.6872 h -1.3279 v -1.4506 c -0.6663,1.2029 -1.6498,1.8127 -2.9294,1.8127 -1.1864,0 -2.1204,-0.3904 -2.8233,-1.1864 -0.6993,-0.7925 -1.0449,-1.841 -1.0449,-3.1653 0,-1.3728 0.3456,-2.433 1.0284,-3.1972 0.7064,-0.7807 1.6251,-1.1864 2.808,-1.1864 1.3444,0 2.3232,0.6097 2.9612,1.8079 v -7.1219 z m -1.3279,9.7141 v 0 c 0,-0.9223 -0.2641,-1.6534 -0.7477,-2.2183 -0.5,-0.5402 -1.1533,-0.7926 -1.9954,-0.7926 -0.7913,0 -1.434,0.2524 -1.9046,0.7477 -0.4635,0.5001 -0.6993,1.1864 -0.6993,2.0756 0,1.0119 0.2358,1.8044 0.6993,2.3528 0.4706,0.5614 1.1133,0.8409 1.9376,0.8409 0.8256,0 1.4836,-0.2642 1.9624,-0.7961 0.4836,-0.5118 0.7477,-1.263 0.7477,-2.21 z" />
    <path
       id="path14"
       style="fill:#626266;fill-rule:evenodd"
       d="m 342.719,115.7142 v -12.9407 h 2.6853 c 0.8691,0 1.5272,0.0283 1.9942,0.1109 0.4682,0.0566 0.8857,0.2429 1.276,0.5401 0.8621,0.6415 1.2997,1.5602 1.2997,2.7466 0,1.4211 -0.6416,2.3115 -1.9164,2.6806 0.7594,0.1144 1.3691,0.467 1.8031,1.0319 0.4553,0.5614 0.6699,1.2761 0.6699,2.1499 0,0.5154 -0.0932,1.0154 -0.2642,1.4825 -0.2028,0.467 -0.467,0.8738 -0.8114,1.2147 -0.4068,0.4233 -0.9635,0.6993 -1.6828,0.8455 -0.4836,0.0767 -1.2749,0.138 -2.3681,0.138 z m 1.5272,-11.6034 v 0 l -0.0118,4.3187 h 1.1699 c 1.0767,0 1.8409,-0.1379 2.2749,-0.4304 0.467,-0.3338 0.7029,-0.8774 0.7029,-1.6581 0,-0.8574 -0.2194,-1.4624 -0.6699,-1.7584 -0.467,-0.3137 -1.2312,-0.4718 -2.3079,-0.4718 z m -0.0118,5.5417 v 0 4.7055 h 1.1699 c 0.6533,0 1.0602,0 1.2147,0 0.6262,-0.0613 1.105,-0.204 1.4388,-0.4234 0.5566,-0.4186 0.8526,-1.0401 0.8526,-1.9011 0,-0.967 -0.3573,-1.6534 -1.0767,-2.0437 -0.2477,-0.1545 -0.5118,-0.2441 -0.8244,-0.2807 -0.3137,-0.0436 -0.7028,-0.0566 -1.1545,-0.0566 z" />
    <path
       id="path16"
       style="fill:#626266;fill-rule:evenodd"
       d="m 354.0098,107.6205 v 3.9944 c 0,1.1215 0.158,1.9305 0.4835,2.4011 0.3408,0.4835 0.934,0.7312 1.8115,0.7312 0.8691,0 1.4623,-0.2477 1.7878,-0.7312 0.3172,-0.4706 0.4871,-1.2796 0.4871,-2.4011 v -3.9944 h 1.3739 v 4.7421 c 0,2.4624 -1.2194,3.6972 -3.6819,3.6972 -1.1852,0 -2.0921,-0.2961 -2.7136,-0.8904 -0.625,-0.6416 -0.934,-1.5308 -0.934,-2.7137 v -4.8352 z" />
    <path
       id="path18"
       style="fill:#626266;fill-rule:evenodd"
       d="m 361.7898,114.358 1.1534,-0.8126 c 0.4552,0.8727 1.138,1.3114 2.0768,1.3114 0.4505,0 0.8078,-0.1096 1.092,-0.3455 0.2771,-0.2146 0.4352,-0.5118 0.4352,-0.8727 0,-0.5283 -0.4187,-0.9305 -1.2796,-1.2277 -0.9989,-0.3455 -1.6216,-0.5932 -1.8692,-0.7028 -0.8774,-0.4388 -1.3079,-1.0603 -1.3079,-1.9341 0,-0.7147 0.2595,-1.3114 0.7961,-1.7631 0.5118,-0.4552 1.2111,-0.6699 2.072,-0.6699 0.6829,0 1.2926,0.1215 1.7879,0.4175 0.5201,0.2807 0.8609,0.671 1.0814,1.1876 l -1.1227,0.6863 c -0.3408,-0.7807 -0.9505,-1.1498 -1.8562,-1.1498 -0.3904,0 -0.7348,0.1061 -0.9836,0.3243 -0.2642,0.2158 -0.4057,0.5118 -0.4057,0.8869 0,0.4222 0.2795,0.7512 0.8244,0.9706 0.0648,0.0283 0.5,0.171 1.3125,0.4351 0.8091,0.2642 1.3728,0.5437 1.7301,0.8727 0.4033,0.3739 0.5897,0.8857 0.5897,1.5272 0,0.769 -0.2595,1.374 -0.7925,1.8575 -0.5437,0.4635 -1.2631,0.7146 -2.1488,0.7146 -1.4989,-0.0117 -2.5591,-0.5766 -3.1853,-1.7135 z" />
    <path
       id="path20"
       style="fill:#626266;fill-rule:evenodd"
       d="m 369.7443,103.737 c 0,-0.296 0.0896,-0.5283 0.2807,-0.7312 0.1993,-0.1875 0.4352,-0.2972 0.7359,-0.2972 0.276,0 0.5118,0.1097 0.7147,0.3137 0.2028,0.1864 0.2972,0.434 0.2972,0.7348 0,0.2759 -0.0944,0.5118 -0.2807,0.6993 -0.2029,0.191 -0.4387,0.296 -0.7312,0.296 -0.3007,0 -0.5366,-0.105 -0.7359,-0.296 -0.1911,-0.1875 -0.2807,-0.4387 -0.2807,-0.7194 z m 0.3255,11.9772 v 0 -8.0937 h 1.3739 v 8.0937 z" />
    <path
       id="path22"
       style="fill:#626266;fill-rule:evenodd"
       d="m 374.3767,115.7142 v -8.0937 h 1.3727 v 1.2513 c 0.6829,-1.0308 1.6499,-1.5308 2.9295,-1.5308 0.9552,0 1.7029,0.2512 2.2466,0.7512 0.5283,0.4965 0.7972,1.1982 0.7972,2.1169 v 5.5051 h -1.3739 v -4.7538 c 0,-1.6051 -0.7147,-2.4212 -2.1535,-2.4212 -0.8443,0 -1.5107,0.296 -1.9623,0.8739 -0.2359,0.2677 -0.3621,0.5319 -0.4105,0.8279 -0.0448,0.2771 -0.0731,0.7194 -0.0731,1.309 v 4.1642 z" />
    <path
       id="path24"
       style="fill:#626266;fill-rule:evenodd"
       d="m 391.6679,111.8791 h -6.3907 v 0.1261 c 0,0.8692 0.2476,1.5768 0.7347,2.1157 0.4965,0.5366 1.138,0.7808 1.9306,0.7808 1.0767,0 1.9623,-0.5767 2.6369,-1.7596 l 1.0437,0.7159 c -0.8078,1.4871 -2.0756,2.2135 -3.7573,2.2135 -1.2194,0 -2.2183,-0.3903 -2.979,-1.2147 -0.7677,-0.8125 -1.1368,-1.868 -1.1368,-3.1971 0,-1.2796 0.3691,-2.3244 1.1203,-3.1205 0.7642,-0.809 1.7313,-1.1982 2.9141,-1.1982 1.2018,0 2.137,0.3892 2.8434,1.1416 0.6993,0.743 1.0401,1.7914 1.0401,3.1323 z m -1.4788,-1.1216 v 0 c 0,-0.6863 -0.2194,-1.2347 -0.6581,-1.6251 -0.4517,-0.3903 -1.0437,-0.5767 -1.8032,-0.5767 -0.658,0 -1.2029,0.1864 -1.6699,0.5932 -0.4552,0.4057 -0.7194,0.934 -0.7807,1.6086 z" />
    <path
       id="path26"
       style="fill:#626266;fill-rule:evenodd"
       d="m 392.9039,114.358 1.1699,-0.7972 c 0.4469,0.8738 1.1368,1.296 2.072,1.296 0.4387,0 0.8126,-0.1096 1.0885,-0.3455 0.296,-0.2146 0.4387,-0.5118 0.4387,-0.8574 0,-0.5271 -0.4387,-0.9458 -1.2795,-1.2312 -0.9954,-0.3573 -1.6216,-0.5885 -1.8728,-0.7146 -0.8703,-0.4222 -1.309,-1.0603 -1.309,-1.9341 0,-0.7147 0.2523,-1.3114 0.7807,-1.7631 0.5283,-0.4552 1.2182,-0.6699 2.0756,-0.6699 0.7029,0 1.309,0.1215 1.8079,0.4175 0.5,0.2807 0.8574,0.671 1.0602,1.1876 l -1.1251,0.6863 c -0.3243,-0.7606 -0.9505,-1.1498 -1.8362,-1.1498 -0.4068,0 -0.7312,0.1061 -1,0.3243 -0.263,0.2158 -0.3892,0.5284 -0.3892,0.8869 0,0.434 0.2807,0.7677 0.8125,0.9706 0.0614,0.0283 0.4953,0.171 1.3244,0.4351 0.8078,0.2642 1.3893,0.5437 1.7147,0.8857 0.4057,0.3774 0.5932,0.8727 0.5932,1.5142 0,0.769 -0.2688,1.374 -0.7972,1.8575 -0.5271,0.4835 -1.2465,0.7312 -2.1522,0.7312 -1.4954,0 -2.5556,-0.5767 -3.1771,-1.7301 z" />
    <path
       id="path28"
       style="fill:#626266;fill-rule:evenodd"
       d="m 400.2605,114.358 1.171,-0.7972 c 0.4505,0.8738 1.1369,1.3126 2.0591,1.3126 0.4635,0 0.8291,-0.1097 1.1051,-0.3456 0.2972,-0.2311 0.4399,-0.5118 0.4399,-0.8739 0,-0.5271 -0.4399,-0.9458 -1.2808,-1.2312 -0.9953,-0.3573 -1.6204,-0.5885 -1.8728,-0.7146 -0.8691,-0.4222 -1.3078,-1.0603 -1.3078,-1.9176 0,-0.7312 0.2677,-1.3079 0.7795,-1.7796 0.5283,-0.4552 1.2147,-0.6699 2.0886,-0.6699 0.6864,0 1.2913,0.1215 1.7961,0.4175 0.4953,0.2807 0.8574,0.6875 1.072,1.1876 l -1.1215,0.6863 c -0.3409,-0.7606 -0.9506,-1.1498 -1.8527,-1.1498 -0.4057,0 -0.7348,0.1061 -0.9989,0.3243 -0.2524,0.2323 -0.3904,0.5284 -0.3904,0.8869 0,0.434 0.2807,0.7677 0.8255,0.9823 0.0602,0.0166 0.4989,0.1746 1.3114,0.4234 0.8091,0.2642 1.374,0.5437 1.7148,0.8857 0.4068,0.3774 0.6097,0.8727 0.6097,1.5142 0,0.769 -0.2689,1.374 -0.8126,1.874 -0.5283,0.467 -1.2512,0.7147 -2.1369,0.7147 -1.4954,0 -2.5591,-0.5767 -3.1983,-1.7301 z" />
    <path
       id="path30"
       style="fill:#626266;fill-rule:evenodd"
       d="M 413.9819,115.7142 V 102.79 h 1.5319 v 12.9242 z" />
    <path
       id="path32"
       style="fill:#626266;fill-rule:evenodd"
       d="m 418.5081,115.7142 v -8.0937 h 1.3893 v 1.2643 c 0.6498,-1.032 1.6333,-1.5273 2.9129,-1.5273 0.934,0 1.6853,0.2347 2.2466,0.7477 0.5284,0.4835 0.7961,1.2017 0.7961,2.1039 v 5.5051 h -1.3728 v -4.7409 c 0,-1.605 -0.7359,-2.4176 -2.1699,-2.4176 -0.8409,0 -1.4789,0.2795 -1.966,0.8739 -0.2158,0.2512 -0.342,0.5319 -0.4021,0.8114 -0.0448,0.2771 -0.0448,0.7194 -0.0448,1.309 v 4.1642 z" />
    <path
       id="path34"
       style="fill:#626266;fill-rule:evenodd"
       d="m 428.7989,108.7751 h -1.4824 v -1.1381 h 1.4824 v -3.2584 h 1.3692 v 3.2584 h 1.5154 v 1.1381 h -1.5154 v 6.9391 h -1.3692 z" />
    <path
       id="path36"
       style="fill:#626266;fill-rule:evenodd"
       d="m 440.4954,111.8908 h -6.4273 v 0.131 c 0,0.8727 0.2689,1.572 0.7477,2.0991 0.5036,0.5496 1.1381,0.8138 1.9506,0.8138 1.0767,0 1.9494,-0.5932 2.6075,-1.7926 l 1.0567,0.7159 c -0.8291,1.4871 -2.0556,2.2301 -3.742,2.2301 -1.2312,0 -2.2301,-0.4069 -2.9943,-1.2147 -0.763,-0.7925 -1.1381,-1.8846 -1.1381,-3.1972 0,-1.2961 0.3751,-2.3209 1.1381,-3.137 0.7477,-0.7807 1.7312,-1.1817 2.9011,-1.1817 1.2029,0 2.1369,0.3727 2.8363,1.1251 0.7064,0.7595 1.0637,1.8044 1.0637,3.1323 z m -1.4989,-1.1203 v 0 c 0,-0.6993 -0.2193,-1.2477 -0.6533,-1.6381 -0.4399,-0.3903 -1.0484,-0.5566 -1.7961,-0.5566 -0.6664,0 -1.2277,0.1828 -1.6829,0.5731 -0.4505,0.4057 -0.7029,0.934 -0.7961,1.6216 z" />
    <path
       id="path38"
       style="fill:#626266;fill-rule:evenodd"
       d="m 442.6324,115.7142 0.0129,-13.6919 h 1.3728 v 13.6919 z" />
    <path
       id="path40"
       style="fill:#626266;fill-rule:evenodd"
       d="m 447.0124,115.7142 v -13.6919 h 1.3892 v 13.6919 z" />
    <path
       id="path42"
       style="fill:#626266;fill-rule:evenodd"
       d="m 451.0681,103.7571 c 0,-0.3008 0.0931,-0.5484 0.296,-0.7348 0.1875,-0.1875 0.434,-0.2854 0.7146,-0.2854 0.2807,0 0.5331,0.0979 0.7194,0.2972 0.2029,0.2029 0.2972,0.4552 0.2972,0.7359 0,0.263 -0.0943,0.4989 -0.2807,0.7029 -0.2028,0.2028 -0.4387,0.296 -0.7359,0.296 -0.2806,0 -0.5271,-0.0932 -0.7146,-0.296 -0.2029,-0.204 -0.296,-0.4399 -0.296,-0.7158 z m 0.3243,11.9571 v 0 -8.0772 h 1.3739 v 8.0772 z" />
    <path
       id="path44"
       style="fill:#626266;fill-rule:evenodd"
       d="m 463.2599,107.637 v 7.9392 c 0,0.7147 -0.0283,1.2265 -0.1097,1.5603 -0.1049,0.5118 -0.3408,0.947 -0.6828,1.3196 -0.7477,0.8173 -1.8445,1.2195 -3.2585,1.2195 -1.2347,0 -2.2018,-0.2807 -2.8846,-0.8574 -0.7064,-0.5767 -1.0637,-1.3562 -1.0637,-2.3681 h 1.5602 v 0.105 c 0,0.5932 0.2028,1.0649 0.625,1.4057 0.4187,0.3291 1.0119,0.4953 1.7796,0.4953 1.1381,0 1.9011,-0.3526 2.3198,-1.0767 0.1427,-0.2311 0.2323,-0.4823 0.2806,-0.743 0.0331,-0.2806 0.0649,-0.6415 0.0649,-1.0932 v -1.3562 c -0.6581,1.1864 -1.6251,1.7796 -2.933,1.7796 -1.1699,0 -2.0885,-0.3786 -2.8079,-1.1711 -0.7182,-0.7795 -1.0602,-1.8444 -1.0602,-3.1523 0,-1.3244 0.342,-2.3681 1.0319,-3.1323 0.7158,-0.7807 1.6333,-1.1534 2.7714,-1.1534 1.4057,0 2.3881,0.5767 2.9978,1.7749 v -1.4954 z m -1.3692,4.0711 v 0 c 0,-0.9223 -0.2512,-1.6369 -0.7477,-2.2018 -0.5036,-0.5402 -1.1581,-0.8244 -1.9494,-0.8244 -0.8291,0 -1.4836,0.2642 -1.9506,0.7795 -0.4552,0.5154 -0.6864,1.2147 -0.6864,2.1334 0,0.9671 0.2312,1.7348 0.7029,2.2632 0.4835,0.5318 1.1369,0.7995 1.9777,0.7995 0.8256,0 1.4671,-0.2512 1.9506,-0.7677 0.467,-0.5319 0.7029,-1.2465 0.7029,-2.1817 z" />
    <path
       id="path46"
       style="fill:#626266;fill-rule:evenodd"
       d="m 473.2429,111.8908 h -6.3955 v 0.131 c 0,0.8727 0.2359,1.572 0.7477,2.0991 0.4835,0.5496 1.138,0.8138 1.9341,0.8138 1.0767,0 1.9506,-0.5932 2.6204,-1.7796 l 1.0437,0.7229 c -0.8243,1.4671 -2.0555,2.2101 -3.742,2.2101 -1.23,0 -2.2301,-0.4069 -2.9777,-1.2147 -0.7631,-0.7925 -1.1534,-1.8693 -1.1534,-3.1972 0,-1.2807 0.3903,-2.3209 1.138,-3.1205 0.7465,-0.7972 1.7136,-1.1982 2.9,-1.1982 1.2029,0 2.1534,0.3727 2.8363,1.1251 0.7028,0.7595 1.0484,1.8044 1.0484,3.1323 z m -1.4671,-1.1203 v 0 c 0,-0.6876 -0.2312,-1.2312 -0.6699,-1.6216 -0.4387,-0.3903 -1.0319,-0.5731 -1.7961,-0.5731 -0.6663,0 -1.2312,0.1828 -1.6817,0.5885 -0.4517,0.3903 -0.6993,0.9352 -0.7807,1.6062 z" />
    <path
       id="path48"
       style="fill:#626266;fill-rule:evenodd"
       d="m 475.3315,115.7272 v -8.0902 h 1.3727 v 1.2478 c 0.6828,-1.0154 1.6534,-1.5273 2.9341,-1.5273 0.9506,0 1.6983,0.2512 2.2254,0.7477 0.5449,0.4989 0.8126,1.2135 0.8126,2.1204 v 5.5016 h -1.3728 v -4.7385 c 0,-1.6204 -0.7146,-2.4129 -2.1534,-2.4129 -0.8574,0 -1.4954,0.2759 -1.9824,0.8538 -0.2159,0.2642 -0.342,0.5319 -0.3904,0.8114 -0.0448,0.2771 -0.0731,0.7323 -0.0731,1.3255 v 4.1607 z" />
    <path
       id="path50"
       style="fill:#626266;fill-rule:evenodd"
       d="m 491.6155,113.8131 v 1.6169 c -0.7559,0.4552 -1.6581,0.6581 -2.7183,0.6581 -1.2477,0 -2.2631,-0.4069 -3.0108,-1.1982 -0.7807,-0.7961 -1.1534,-1.828 -1.1534,-3.1205 0,-1.3079 0.4057,-2.3681 1.1852,-3.1936 0.7973,-0.8173 1.7961,-1.2183 3.0439,-1.2183 0.9021,0 1.743,0.1864 2.4907,0.5602 v 1.4836 c -0.6828,-0.4717 -1.4305,-0.7194 -2.2266,-0.7194 -0.9187,0 -1.638,0.2842 -2.1864,0.8574 -0.5437,0.5602 -0.8079,1.3244 -0.8079,2.2784 0,0.8256 0.2642,1.5119 0.8079,2.0721 0.533,0.5767 1.2359,0.8739 2.0768,0.8739 0.8078,0 1.6534,-0.3125 2.4989,-0.9506 z" />
    <path
       id="path52"
       style="fill:#626266;fill-rule:evenodd"
       d="m 500.7482,111.8908 h -6.3943 v 0.131 c 0,0.8727 0.2347,1.5885 0.73,2.0991 0.4883,0.5496 1.1463,0.8138 1.9388,0.8138 1.0933,0 1.9624,-0.5767 2.6205,-1.7643 l 1.0602,0.7076 c -0.8243,1.4789 -2.0921,2.2101 -3.742,2.2101 -1.2347,0 -2.2466,-0.4069 -2.9978,-1.2147 -0.7642,-0.7925 -1.1381,-1.8693 -1.1381,-3.1972 0,-1.2807 0.3739,-2.3079 1.1216,-3.1004 0.7677,-0.8173 1.7312,-1.2183 2.9211,-1.2183 1.1817,0 2.1334,0.3727 2.8363,1.1369 0.6864,0.7477 1.0437,1.7926 1.0437,3.1205 z m -1.4789,-1.1203 v 0 c 0,-0.6876 -0.2193,-1.2312 -0.6745,-1.6216 -0.4187,-0.3903 -1.0237,-0.5731 -1.7914,-0.5731 -0.6545,0 -1.2147,0.1828 -1.6864,0.5885 -0.434,0.4068 -0.6982,0.9352 -0.7631,1.6062 z" />
  </g>
  <g
     id="Layer1001">
    <g
       id="Layer1002">
      <path
         id="path55"
         style="fill:#0367a6;fill-rule:evenodd"
         d="m 285.5383,62.43 v 19.7855 h -6.3141 V 62.43 Z" />
      <path
         id="path57"
         style="fill:#0367a6;fill-rule:evenodd"
         d="m 293.0706,68.1828 v 2.1369 h 0.2642 c 0.9541,-1.8079 2.5709,-2.4789 5.9721,-2.4789 3.3033,0 5.0499,0.4717 6.3011,1.7477 1.2761,1.3244 1.5438,2.4011 1.5438,6.2528 v 6.3742 h -5.2575 v -6.3742 c 0,-2.2631 -0.0766,-2.7632 -0.6368,-3.2903 -0.5779,-0.5331 -1.6051,-0.7807 -3.5439,-0.7807 -1.9293,0 -2.9612,0.2842 -3.571,0.9187 -0.6663,0.6863 -0.7759,1.3444 -0.7759,3.933 v 5.5935 H 288.114 V 68.1828 Z" />
      <path
         id="path59"
         style="fill:#0367a6;fill-rule:evenodd"
         d="m 316.2443,64.9526 v 3.2302 h 8.3095 v 3.7785 h -8.3095 v 4.0793 c 0,1.4824 0.0248,1.7065 0.2324,2.0756 0.296,0.5165 0.8078,0.7194 1.8562,0.7194 1.6982,0 2.1051,-0.3904 2.1051,-2.0438 v -0.5602 h 4.8022 c -0.0648,2.6653 -0.2642,3.5227 -1.0649,4.5711 -1.072,1.3079 -2.6771,1.7584 -6.2811,1.7584 -3.3681,0 -4.7244,-0.2807 -5.7692,-1.2914 -0.7477,-0.7194 -1.0001,-1.4871 -1.0886,-2.9955 -0.033,-0.4222 -0.033,-0.4222 -0.033,-2.2336 v -4.0793 h -2.7619 v -3.7785 h 2.7619 v -3.2302 z" />
      <path
         id="path61"
         style="fill:#0367a6;fill-rule:evenodd"
         d="m 345.3394,77.7471 c -0.3903,3.8799 -2.3079,4.814 -9.8084,4.814 -4.0663,0 -5.9839,-0.3456 -7.2682,-1.2914 -1.3692,-1.0319 -1.7796,-2.4671 -1.7796,-6.0216 0,-3.742 0.4387,-5.1596 1.8928,-6.1915 1.3692,-0.947 3.1453,-1.243 7.688,-1.243 4.5994,0 6.2646,0.2595 7.5324,1.2147 1.3527,0.9942 1.8692,2.5993 1.8692,5.8943 0,0.1875 0,0.8208 -0.033,1.414 h -13.7085 c 0,1.4388 0.1427,1.9058 0.6746,2.2961 0.5118,0.4222 1.6664,0.5932 3.5392,0.5932 3.3351,0 3.9778,-0.2358 4.1924,-1.4788 z m -5.1642,-4.2786 v 0 c -0.0248,-1.105 -0.0897,-1.3692 -0.4022,-1.6982 -0.4835,-0.4954 -1.572,-0.6994 -3.6205,-0.6994 -3.538,0 -4.3635,0.4352 -4.4284,2.3976 z" />
      <path
         id="path63"
         style="fill:#0367a6;fill-rule:evenodd"
         d="m 352.3717,68.1828 v 2.1086 h 0.2689 c 0.967,-1.7796 2.4612,-2.4506 5.3954,-2.4506 2.3398,0 3.8517,0.5 4.7043,1.5602 0.6911,0.8904 0.9506,1.9954 0.9506,4.0675 v 0.9387 h -4.9402 v -0.033 -0.1097 c 0,-0.9835 -0.1545,-1.4824 -0.4836,-1.8397 -0.3738,-0.4069 -1.1981,-0.6545 -2.3079,-0.6545 -1.1534,0 -2.1369,0.3903 -2.6523,1.0118 -0.4965,0.6864 -0.6545,1.4541 -0.6545,3.6194 v 5.814 H 347.415 V 68.1828 Z" />
      <path
         id="path65"
         style="fill:#0367a6;fill-rule:evenodd"
         d="m 370.1028,68.1828 v 2.1369 h 0.2677 c 0.9506,-1.8079 2.5721,-2.4789 5.9721,-2.4789 3.3151,0 5.0664,0.4717 6.3141,1.7477 1.2595,1.3244 1.5272,2.4011 1.5272,6.2528 v 6.3742 h -5.2527 v -6.3742 c 0,-2.2631 -0.0778,-2.7632 -0.6427,-3.2903 -0.5602,-0.5331 -1.6039,-0.7807 -3.538,-0.7807 -1.9175,0 -2.966,0.2842 -3.5709,0.9187 -0.6546,0.6863 -0.7808,1.3444 -0.7808,3.933 v 5.5935 h -5.2527 V 68.1828 Z" />
      <path
         id="path67"
         style="fill:#0367a6;fill-rule:evenodd"
         d="m 386.585,72.5828 c 0.1593,-2.032 0.7808,-3.0273 2.3528,-3.8682 1.1864,-0.6415 3.6075,-0.901 7.9876,-0.901 4.5828,0 5.643,0.2029 6.8294,1.3846 0.8904,0.9505 1.1994,2.0119 1.1994,4.5663 v 8.451 h -5.0511 v -1.9293 h -0.2193 c -0.4022,0.8892 -0.9376,1.3526 -1.8563,1.7913 -0.8856,0.3786 -2.2265,0.4836 -5.6878,0.4836 -4.6643,0 -6.1148,-1.0284 -6.1148,-4.3517 0,-2.5226 0.9505,-3.9118 2.9943,-4.4449 1.243,-0.3526 2.7301,-0.447 6.5004,-0.447 2.4341,0 3.137,0.1993 3.9613,1.0897 h 0.2477 v -0.7359 c 0,-2.1817 -0.4139,-2.4895 -3.5828,-2.4895 -3.775,0 -4.1488,0.1214 -4.3069,1.401 z m 5.4568,4.0392 v 0 c -0.4953,0.2347 -0.763,0.605 -0.763,1.1534 0,1.1215 0.8278,1.4505 3.6193,1.4505 3.6606,0 4.7409,-0.362 4.7409,-1.6097 0,-0.5272 -0.2996,-0.9459 -0.8609,-1.1487 -0.3243,-0.1592 -1.1829,-0.1875 -3.4448,-0.1875 -1.7148,0 -2.8693,0.1215 -3.2915,0.342 z" />
      <path
         id="path69"
         style="fill:#0367a6;fill-rule:evenodd"
         d="m 414.0468,64.9526 v 3.2302 h 8.2965 v 3.7785 h -8.2965 v 4.0793 c 0,1.4824 0.0318,1.7065 0.2512,2.0756 0.2606,0.5165 0.7925,0.7194 1.8208,0.7194 1.7018,0 2.1087,-0.3904 2.1087,-2.0438 v -0.5602 h 4.8022 c -0.0449,2.6653 -0.2477,3.5227 -1.0602,4.5711 -1.0614,1.3079 -2.6653,1.7584 -6.2858,1.7584 -3.3517,0 -4.7256,-0.2807 -5.7528,-1.2914 -0.7477,-0.7194 -1.0154,-1.4871 -1.1097,-2.9955 -0.0283,-0.4222 -0.0283,-0.4222 -0.0283,-2.2336 v -4.0793 h -2.762 v -3.7785 h 2.762 v -3.2302 z" />
      <path
         id="path71"
         style="fill:#0367a6;fill-rule:evenodd"
         d="m 429.6398,62.43 v 3.9449 h -5.2374 V 62.43 Z m 0,5.7528 v 0 14.0327 h -5.2374 V 68.1828 Z" />
      <path
         id="path73"
         style="fill:#0367a6;fill-rule:evenodd"
         d="m 449.6942,69.105 c 1.3892,1.0437 1.8114,2.3563 1.8114,5.8459 0,3.8198 -0.3609,5.1926 -1.6404,6.2245 -1.3256,1.105 -3.137,1.3857 -8.2801,1.3857 -5.1772,0 -6.9886,-0.2807 -8.3295,-1.3857 -1.2914,-1.0602 -1.6334,-2.3728 -1.6334,-6.4427 0,-3.2431 0.4517,-4.6159 1.8244,-5.6277 1.2926,-0.9505 3.3847,-1.2642 8.122,-1.2642 4.7574,0 6.8177,0.3137 8.1256,1.2642 z m -12.8028,6.2079 v 0 c 0,1.8044 0.2324,2.4625 1.1263,2.8363 0.6333,0.3243 1.8527,0.4835 3.5674,0.4835 3.9932,0 4.6796,-0.5165 4.6796,-3.4778 0,-1.8374 -0.3125,-2.5438 -1.2183,-2.933 -0.6262,-0.2971 -1.901,-0.4516 -3.4613,-0.4516 -3.9578,0 -4.6937,0.5448 -4.6937,3.5426 z" />
      <path
         id="path75"
         style="fill:#0367a6;fill-rule:evenodd"
         d="m 458.4129,68.1828 v 2.1369 h 0.2642 c 0.9505,-1.8079 2.5721,-2.4789 5.9567,-2.4789 3.3186,0 5.0664,0.4717 6.3342,1.7477 1.2595,1.3244 1.5272,2.4011 1.5272,6.2528 v 6.3742 h -5.2409 v -6.3742 c 0,-2.2631 -0.0944,-2.7632 -0.6581,-3.2903 -0.5613,-0.5331 -1.605,-0.7807 -3.5226,-0.7807 -1.9306,0 -2.9778,0.2842 -3.5875,0.9187 -0.6498,0.6863 -0.7807,1.3444 -0.7807,3.933 v 5.5935 h -5.2527 V 68.1828 Z" />
      <path
         id="path77"
         style="fill:#0367a6;fill-rule:evenodd"
         d="m 474.8916,72.5828 c 0.1592,-2.032 0.7807,-3.0273 2.3574,-3.8682 1.1864,-0.6415 3.5993,-0.901 7.9675,-0.901 4.6029,0 5.6631,0.2029 6.846,1.3846 0.8892,0.9505 1.2017,2.0119 1.2017,4.5663 v 8.451 h -5.0534 v -1.9293 h -0.2193 c -0.4033,0.8892 -0.9352,1.3526 -1.8527,1.7913 -0.8739,0.3786 -2.2313,0.4836 -5.6926,0.4836 -4.6642,0 -6.1148,-1.0284 -6.1148,-4.3517 0,-2.5226 0.9505,-3.9118 2.999,-4.4449 1.243,-0.3526 2.7254,-0.447 6.4839,-0.447 2.4495,0 3.1524,0.1993 3.9779,1.0897 h 0.2311 v -0.7359 c 0,-2.1817 -0.4068,-2.4895 -3.5674,-2.4895 -3.7774,0 -4.1524,0.1214 -4.3069,1.401 z m 5.4614,4.0392 v 0 c -0.5118,0.2347 -0.7807,0.605 -0.7807,1.1534 0,1.1215 0.8409,1.4505 3.6323,1.4505 3.6653,0 4.7421,-0.362 4.7421,-1.6097 0,-0.5272 -0.2972,-0.9459 -0.8574,-1.1487 -0.3255,-0.1592 -1.1864,-0.1875 -3.446,-0.1875 -1.7147,0 -2.8681,0.1215 -3.2903,0.342 z" />
      <path
         id="path79"
         style="fill:#0367a6;fill-rule:evenodd"
         d="m 500.7966,62.43 v 19.7855 h -5.2728 V 62.43 Z" />
    </g>
  </g>
  <g
     id="Layer1003">
    <g
       id="Layer1004">
      <path
         id="path83"
         style="fill:#004586;fill-rule:evenodd"
         d="m 104.024,62.3239 h 38.4554 c 17.7429,0.0731 18.3078,0.0731 21.2691,1.5237 3.9295,1.8562 5.4602,5.3836 5.4602,12.4324 0,7.642 -1.8598,10.7708 -7.2233,12.3027 7.0653,1.1982 9.2305,4.3305 9.2305,12.9077 0,7.4757 -1.9341,11.3227 -6.4226,13.0858 -1.8574,0.638 -4.8965,1.0448 -9.7152,1.1993 -0.6416,0 -4.8187,0 -12.5209,0.0814 H 104.024 Z m 38.4554,21.1146 v 0 c 5.5334,0 7.9345,-0.158 8.9994,-0.5649 1.276,-0.4835 1.9176,-1.8398 1.9176,-3.8517 0,-2.1652 -0.7348,-3.3717 -2.3245,-3.7738 -0.8892,-0.2323 -1.0472,-0.2323 -8.5925,-0.3125 h -22.9721 v 8.5029 z m 0.0778,19.5838 v 0 c 9.5549,-0.0813 9.5549,-0.0813 10.7578,-0.5649 1.4506,-0.5566 2.0886,-1.7631 2.0886,-4.0958 0,-2.4046 -0.7312,-3.5261 -2.3976,-4.0097 -0.8939,-0.2358 -0.8939,-0.2358 -10.4488,-0.2358 h -23.0499 v 8.9062 z" />
      <path
         id="path85"
         style="fill:#004586;fill-rule:evenodd"
         d="m 176.925,62.3239 h 38.4554 c 17.7464,0.0731 18.2901,0.0731 21.2726,1.5237 3.9248,1.8562 5.452,5.3836 5.452,12.4324 0,7.642 -1.8527,10.7708 -7.2151,12.3027 7.0606,1.1982 9.2141,4.3305 9.2141,12.9077 0,7.4757 -1.9176,11.3227 -6.4108,13.0858 -1.8527,0.638 -4.8954,1.0448 -9.7141,1.1993 -0.638,0 -4.8152,0 -12.5221,0.0814 h -38.532 z m 38.4554,21.1146 v 0 c 5.5334,0 7.938,-0.158 8.9782,-0.5649 1.3008,-0.4835 1.9376,-1.8398 1.9376,-3.8517 0,-2.1652 -0.7182,-3.3717 -2.3398,-3.7738 -0.8738,-0.2323 -1.0437,-0.2323 -8.576,-0.3125 h -22.972 v 8.5029 z m 0.0766,19.5838 v 0 c 9.5443,-0.0813 9.5443,-0.0813 10.7625,-0.5649 1.4306,-0.5566 2.0886,-1.7631 2.0886,-4.0958 0,-2.4046 -0.7312,-3.5261 -2.414,-4.0097 -0.8928,-0.2358 -0.8928,-0.2358 -10.4371,-0.2358 h -23.0486 v 8.9062 z" />
      <path
         id="path87"
         style="fill:#004586;fill-rule:evenodd"
         d="m 266.938,62.3239 v 53.533 h -17.1131 v -53.533 z" />
    </g>
  </g>
  <path
     id="path91"
     style="fill:#626266;fill-rule:evenodd"
     d="M 500.8744,93.4616 H 279.3292 v -0.8562 h 221.5452 z" />
  <path
     id="path93"
     style="fill:#626266;fill-rule:evenodd"
     d="m 239.6779,323.3896 v -7.71 h 1.5969 c 0.503,0 0.9048,0.0144 1.1819,0.0722 0.2613,0.0328 0.5398,0.155 0.7643,0.3125 0.5043,0.3796 0.7801,0.9324 0.7801,1.6468 0,0.855 -0.3979,1.3527 -1.1622,1.5799 0.4517,0.0853 0.8339,0.2797 1.0952,0.6277 0.2587,0.3257 0.3979,0.7604 0.3979,1.2856 0,0.3126 -0.0525,0.6054 -0.172,0.8865 -0.1064,0.2718 -0.2784,0.5029 -0.4715,0.7288 -0.2416,0.2443 -0.587,0.3979 -1.0059,0.4833 -0.2942,0.0552 -0.7643,0.0867 -1.4078,0.0867 z m 0.9035,-6.909 v 0 2.5832 h 0.6934 c 0.6435,0 1.0952,-0.1038 1.3553,-0.2758 0.2784,-0.172 0.4189,-0.5017 0.4189,-0.9731 0,-0.5201 -0.1248,-0.8812 -0.4032,-1.0585 -0.2758,-0.1943 -0.7275,-0.2758 -1.371,-0.2758 z m 0,3.2989 v 0 2.8142 h 0.6776 c 0.398,0 0.6435,0 0.7289,0 0.3821,-0.0551 0.6789,-0.1273 0.851,-0.2626 0.3453,-0.2403 0.52,-0.629 0.52,-1.1451 0,-0.5516 -0.2088,-0.9731 -0.6409,-1.199 -0.1392,-0.0854 -0.3138,-0.1405 -0.5055,-0.176 -0.1721,-0.0131 -0.3993,-0.0315 -0.6764,-0.0315 z" />
  <path
     id="path95"
     style="fill:#626266;fill-rule:evenodd"
     d="m 249.9408,321.1006 h -3.8202 v 0.0854 c 0,0.5029 0.1563,0.9363 0.4505,1.2488 0.2784,0.3297 0.6763,0.4886 1.1464,0.4886 0.6422,0 1.1636,-0.3664 1.5641,-1.0585 l 0.6238,0.4163 c -0.4872,0.868 -1.2331,1.3211 -2.2233,1.3211 -0.7446,0 -1.3343,-0.2272 -1.7847,-0.7328 -0.4557,-0.4662 -0.6816,-1.1083 -0.6816,-1.9094 0,-0.7472 0.2259,-1.371 0.6816,-1.8412 0.4504,-0.4885 1.0217,-0.7288 1.7321,-0.7288 0.6974,0 1.2713,0.2259 1.6849,0.6737 0.4189,0.453 0.6264,1.0768 0.6264,1.8779 z m -0.8864,-0.6619 v 0 c 0,-0.415 -0.1221,-0.7459 -0.4005,-0.9718 -0.2601,-0.2442 -0.6212,-0.348 -1.0756,-0.348 -0.3808,0 -0.7288,0.1208 -0.9888,0.3664 -0.2614,0.239 -0.4163,0.5516 -0.4689,0.9534 z" />
  <path
     id="path97"
     style="fill:#626266;fill-rule:evenodd"
     d="m 250.9835,325.7324 1.3041,-2.809 -1.8963,-4.3573 h 0.9547 l 1.4078,3.4656 1.4918,-3.4656 h 0.8878 l -3.228,7.1663 z" />
  <path
     id="path99"
     style="fill:#626266;fill-rule:evenodd"
     d="m 255.5339,320.9969 c 0,-0.3494 0.0512,-0.679 0.1878,-0.9915 0.1405,-0.331 0.3139,-0.6107 0.5739,-0.851 0.5043,-0.5069 1.132,-0.7643 1.8595,-0.7643 0.7105,0 1.3185,0.2574 1.8412,0.7643 0.5187,0.503 0.7656,1.1267 0.7656,1.8556 0,0.7144 -0.2469,1.3211 -0.7656,1.8411 -0.5385,0.507 -1.1465,0.7512 -1.8412,0.7512 -0.7275,0 -1.3395,-0.2442 -1.8595,-0.7656 -0.5017,-0.524 -0.7617,-1.1346 -0.7617,-1.8398 z m 0.8654,0 v 0 c 0,0.52 0.1747,0.9534 0.5214,1.3027 0.3296,0.3427 0.7485,0.52 1.2344,0.52 0.4662,0 0.8851,-0.1773 1.2305,-0.5069 0.331,-0.3624 0.5069,-0.7958 0.5069,-1.3027 0,-0.5201 -0.1759,-0.9324 -0.5069,-1.3041 -0.3454,-0.3611 -0.7643,-0.5384 -1.2305,-0.5384 -0.4859,0 -0.9048,0.1773 -1.2344,0.5384 -0.3467,0.3717 -0.5214,0.784 -0.5214,1.291 z" />
  <path
     id="path101"
     style="fill:#626266;fill-rule:evenodd"
     d="m 262.0436,323.3896 v -4.8235 h 0.8168 v 0.7656 c 0.398,-0.612 0.9889,-0.9416 1.7532,-0.9416 0.5739,0 1.0059,0.176 1.3369,0.4478 0.3125,0.3165 0.4688,0.7328 0.4688,1.2896 v 3.2621 h -0.8155 v -2.8143 c 0,-0.9731 -0.4334,-1.4564 -1.2844,-1.4564 -0.5042,0 -0.8864,0.1721 -1.1648,0.524 -0.1379,0.155 -0.2062,0.3086 -0.2429,0.4846 -0.0355,0.176 -0.0513,0.4347 -0.0513,0.7774 v 2.4847 z" />
  <path
     id="path103"
     style="fill:#626266;fill-rule:evenodd"
     d="m 272.5337,315.2278 v 8.1618 h -0.801 v -0.8641 c -0.398,0.7288 -0.9732,1.0768 -1.7532,1.0768 -0.6763,0 -1.2515,-0.2272 -1.6652,-0.7013 -0.4189,-0.4845 -0.6264,-1.1083 -0.6264,-1.891 0,-0.8103 0.2075,-1.4393 0.6067,-1.9055 0.4334,-0.4741 0.9718,-0.7013 1.6849,-0.7013 0.78,0 1.371,0.3493 1.7532,1.0821 v -4.2575 z m -0.801,5.7993 v 0 c 0,-0.57 -0.1379,-1.0034 -0.4347,-1.3212 -0.3099,-0.3112 -0.6921,-0.4832 -1.199,-0.4832 -0.4662,0 -0.8484,0.1536 -1.1268,0.4517 -0.2784,0.2994 -0.4176,0.7105 -0.4176,1.2305 0,0.612 0.1392,1.0637 0.4176,1.4078 0.2784,0.3296 0.6764,0.5069 1.1478,0.5069 0.5017,0 0.8838,-0.1773 1.178,-0.4885 0.2968,-0.2994 0.4347,-0.7472 0.4347,-1.304 z" />
  <path
     id="path105"
     style="fill:#626266;fill-rule:evenodd"
     d="m 277.4807,323.3896 v -7.6956 h 1.5995 c 0.52,0 0.918,0 1.178,0.0578 0.2784,0.046 0.5226,0.155 0.7643,0.3257 0.5226,0.3808 0.7656,0.9192 0.7656,1.6336 0,0.855 -0.3835,1.3711 -1.1268,1.6022 0.4505,0.063 0.7959,0.2758 1.0743,0.6054 0.26,0.3441 0.3821,0.7604 0.3821,1.2856 0,0.3126 -0.0525,0.6054 -0.1576,0.8865 -0.1208,0.2718 -0.2587,0.52 -0.4504,0.7288 -0.2613,0.2443 -0.6067,0.4111 -1.0073,0.4833 -0.2968,0.0722 -0.7827,0.0867 -1.4222,0.0867 z m 0.9048,-6.909 v 0 2.5832 h 0.6947 c 0.6395,0 1.0939,-0.0814 1.3526,-0.2574 0.2955,-0.1904 0.4163,-0.5201 0.4163,-0.9731 0,-0.5385 -0.1208,-0.8996 -0.3979,-1.0585 -0.2771,-0.1904 -0.7315,-0.2942 -1.371,-0.2942 z m 0,3.3173 v 0 2.7958 h 0.6947 c 0.3822,0 0.6238,0 0.7118,0 0.3821,-0.0367 0.6592,-0.1273 0.8693,-0.2626 0.3283,-0.2403 0.5017,-0.629 0.5017,-1.1268 0,-0.5699 -0.2075,-0.9731 -0.6422,-1.2173 -0.1405,-0.0854 -0.2941,-0.1405 -0.4872,-0.1576 -0.1891,-0.0315 -0.4176,-0.0315 -0.696,-0.0315 z" />
  <path
     id="path107"
     style="fill:#626266;fill-rule:evenodd"
     d="m 284.2005,318.5661 v 2.394 c 0,0.6605 0.1051,1.1438 0.2968,1.4248 0.2075,0.2942 0.5542,0.4347 1.0742,0.4347 0.5227,0 0.8694,-0.1405 1.0611,-0.4347 0.1904,-0.281 0.2942,-0.7643 0.2942,-1.4248 v -2.3796 h 0.8168 v 2.8143 c 0,1.4747 -0.7288,2.2075 -2.2062,2.2075 -0.6934,0 -1.2318,-0.1773 -1.5969,-0.5384 -0.3638,-0.3717 -0.5555,-0.9048 -0.5555,-1.6022 v -2.8956 z" />
  <path
     id="path109"
     style="fill:#626266;fill-rule:evenodd"
     d="m 288.8362,322.5937 0.6763,-0.4898 c 0.2811,0.5253 0.679,0.784 1.2345,0.784 0.2784,0 0.5029,-0.0683 0.6763,-0.2088 0.1563,-0.1405 0.2456,-0.3165 0.2456,-0.52 0,-0.3126 -0.2456,-0.5621 -0.7656,-0.7289 -0.5897,-0.2075 -0.9561,-0.348 -1.1097,-0.4202 -0.5043,-0.2587 -0.784,-0.6435 -0.784,-1.1399 0,-0.4347 0.1746,-0.8063 0.4714,-1.0637 0.3126,-0.2587 0.7276,-0.4032 1.2305,-0.4032 0.4189,0 0.7827,0.0906 1.0769,0.2679 0.2941,0.1668 0.5226,0.3927 0.6448,0.6921 l -0.679,0.4163 c -0.1904,-0.4662 -0.5568,-0.6973 -1.0952,-0.6973 -0.2416,0 -0.4321,0.0722 -0.5883,0.2088 -0.1563,0.1221 -0.2259,0.2981 -0.2259,0.52 0,0.2666 0.1536,0.4518 0.4688,0.5962 0.0355,0 0.3126,0.0827 0.7801,0.2403 0.4859,0.1537 0.8352,0.3126 1.0427,0.5253 0.2272,0.222 0.348,0.5161 0.348,0.918 0,0.4478 -0.1563,0.8102 -0.4701,1.09 -0.3297,0.2994 -0.7644,0.4346 -1.2831,0.4346 -0.8864,-0.0131 -1.5286,-0.344 -1.895,-1.0217 z" />
  <path
     id="path111"
     style="fill:#626266;fill-rule:evenodd"
     d="m 293.5783,316.2732 c 0,-0.1773 0.0539,-0.331 0.1734,-0.4531 0.1037,-0.1038 0.2416,-0.1576 0.4189,-0.1576 0.172,0 0.3099,0.0538 0.4347,0.176 0.1195,0.1221 0.172,0.2574 0.172,0.4347 0,0.1536 -0.0525,0.3112 -0.172,0.4333 -0.1051,0.1051 -0.2627,0.1721 -0.4347,0.1721 -0.1773,0 -0.3152,-0.067 -0.4189,-0.1721 -0.1195,-0.1221 -0.1734,-0.2797 -0.1734,-0.4333 z m 0.1891,7.1164 v 0 -4.8091 h 0.8169 v 4.8091 z" />
  <path
     id="path113"
     style="fill:#626266;fill-rule:evenodd"
     d="m 296.3374,323.3896 v -4.8091 h 0.8169 v 0.7512 c 0.4031,-0.612 0.9717,-0.9285 1.7374,-0.9285 0.5725,0 1.0243,0.1629 1.3368,0.4347 0.3113,0.3165 0.4859,0.7328 0.4859,1.2896 v 3.2621 h -0.8326 v -2.8143 c 0,-0.9731 -0.4176,-1.4564 -1.2843,-1.4564 -0.5043,0 -0.8864,0.1721 -1.1648,0.524 -0.1379,0.155 -0.2088,0.3086 -0.243,0.4846 -0.0157,0.176 -0.0354,0.4347 -0.0354,0.7774 v 2.4847 z" />
  <path
     id="path115"
     style="fill:#626266;fill-rule:evenodd"
     d="m 306.6371,321.1137 h -3.8215 v 0.0723 c 0,0.5161 0.1589,0.9494 0.4531,1.2488 0.2941,0.3297 0.6737,0.4886 1.1438,0.4886 0.6448,0 1.1635,-0.3533 1.5654,-1.0585 l 0.6224,0.4347 c -0.4858,0.868 -1.2331,1.3158 -2.239,1.3158 -0.7289,0 -1.3198,-0.2403 -1.7689,-0.7275 -0.4557,-0.4714 -0.679,-1.1136 -0.679,-1.9107 0,-0.746 0.2233,-1.375 0.679,-1.8583 0.4491,-0.4714 1.0217,-0.7157 1.7164,-0.7157 0.713,0 1.2672,0.2272 1.7019,0.679 0.4176,0.457 0.6264,1.0768 0.6264,1.8779 z m -0.8877,-0.6566 v 0 c 0,-0.4334 -0.1222,-0.7512 -0.3979,-0.9718 -0.2627,-0.2456 -0.6081,-0.3664 -1.0585,-0.3664 -0.4032,0 -0.7302,0.1208 -1.0086,0.3664 -0.2784,0.239 -0.4163,0.57 -0.4688,0.9534 z" />
  <path
     id="path117"
     style="fill:#626266;fill-rule:evenodd"
     d="m 307.3647,322.5937 0.6973,-0.4714 c 0.2574,0.52 0.6763,0.7656 1.2305,0.7656 0.26,0 0.4859,-0.0683 0.6605,-0.1957 0.1563,-0.1536 0.2443,-0.3296 0.2443,-0.5161 0,-0.3112 -0.2443,-0.5791 -0.7485,-0.7459 -0.6068,-0.2075 -0.9732,-0.348 -1.1294,-0.4202 -0.5043,-0.2587 -0.7801,-0.6251 -0.7801,-1.1399 0,-0.4347 0.172,-0.7879 0.4859,-1.0637 0.2942,-0.2587 0.7131,-0.4032 1.2148,-0.4032 0.4189,0 0.7826,0.0906 1.0768,0.2679 0.2942,0.1668 0.5227,0.3927 0.6448,0.6921 l -0.6606,0.4163 c -0.2074,-0.4478 -0.5738,-0.6973 -1.1123,-0.6973 -0.2416,0 -0.4346,0.0722 -0.5883,0.2088 -0.1563,0.1221 -0.2285,0.3112 -0.2285,0.52 0,0.2666 0.1563,0.4518 0.4859,0.5962 0.021,0 0.2968,0.0827 0.7656,0.2403 0.4859,0.1537 0.8339,0.3297 1.0401,0.5253 0.2443,0.222 0.3506,0.5161 0.3506,0.918 0,0.4478 -0.1589,0.8102 -0.4701,1.09 -0.3152,0.2994 -0.7656,0.4346 -1.2857,0.4346 -0.8864,0 -1.5259,-0.344 -1.8936,-1.0217 z" />
  <path
     id="path119"
     style="fill:#626266;fill-rule:evenodd"
     d="m 311.743,322.5937 0.6934,-0.4714 c 0.2784,0.52 0.692,0.7656 1.2305,0.7656 0.2784,0 0.4872,-0.0683 0.6605,-0.1957 0.1773,-0.1536 0.26,-0.3296 0.26,-0.5161 0,-0.3112 -0.26,-0.5791 -0.7616,-0.7459 -0.5923,-0.2075 -0.9758,-0.348 -1.1307,-0.4202 -0.503,-0.2587 -0.7604,-0.6251 -0.7604,-1.1399 0,-0.4347 0.1537,-0.7879 0.4662,-1.0637 0.3139,-0.2587 0.7275,-0.4032 1.2344,-0.4032 0.4137,0 0.7801,0.0906 1.0743,0.2679 0.2968,0.1668 0.5056,0.3927 0.6435,0.6921 l -0.6593,0.4163 c -0.2101,-0.4478 -0.5923,-0.6973 -1.1097,-0.6973 -0.2442,0 -0.4557,0.0722 -0.5936,0.2088 -0.1562,0.1221 -0.2442,0.3112 -0.2442,0.52 0,0.2666 0.1773,0.4518 0.5069,0.5962 0.0158,0 0.2784,0.0827 0.7801,0.2403 0.4714,0.1537 0.8168,0.3297 1.0072,0.5385 0.2443,0.2088 0.3638,0.5029 0.3638,0.9048 0,0.4478 -0.1563,0.8102 -0.4859,1.1084 -0.3126,0.281 -0.7459,0.4162 -1.2673,0.4162 -0.9048,0 -1.5286,-0.344 -1.9081,-1.0217 z" />
  <path
     id="path121"
     style="fill:#626266;fill-rule:evenodd"
     d="m 319.9021,323.3896 0.0197,-7.6956 h 0.9009 v 7.6956 z" />
  <path
     id="path123"
     style="fill:#626266;fill-rule:evenodd"
     d="m 322.5955,323.3896 v -4.8091 h 0.8484 v 0.7512 c 0.3821,-0.612 0.9731,-0.9285 1.7374,-0.9285 0.5568,0 1.0073,0.1629 1.3369,0.4531 0.3125,0.2981 0.4714,0.7144 0.4714,1.2712 v 3.2621 h -0.8168 v -2.8143 c 0,-0.9547 -0.4347,-1.4393 -1.287,-1.4393 -0.5029,0 -0.8851,0.1773 -1.1635,0.5214 -0.1379,0.1536 -0.2259,0.3164 -0.2416,0.4701 -0.0368,0.176 -0.0368,0.4478 -0.0368,0.7774 v 2.4847 z" />
  <path
     id="path125"
     style="fill:#626266;fill-rule:evenodd"
     d="m 328.7415,319.2594 h -0.8838 v -0.6789 h 0.8838 v -1.9278 h 0.8168 v 1.9278 h 0.9009 v 0.6789 h -0.9009 v 4.1302 h -0.8168 z" />
  <path
     id="path127"
     style="fill:#626266;fill-rule:evenodd"
     d="m 335.7043,321.1137 h -3.8202 v 0.0723 c 0,0.5161 0.1562,0.9494 0.453,1.2672 0.2771,0.3113 0.6763,0.4702 1.1465,0.4702 0.6395,0 1.1622,-0.3297 1.5614,-1.0585 l 0.6264,0.4347 c -0.4872,0.8812 -1.2357,1.3158 -2.2246,1.3158 -0.7485,0 -1.3369,-0.2403 -1.7702,-0.7144 -0.4689,-0.4845 -0.6947,-1.1267 -0.6947,-1.9238 0,-0.746 0.2258,-1.375 0.6763,-1.8583 0.4517,-0.4714 1.0243,-0.7157 1.7374,-0.7157 0.6947,0 1.2659,0.2272 1.6849,0.679 0.4136,0.457 0.6238,1.0768 0.6238,1.8779 z m -0.8865,-0.6566 v 0 c 0,-0.4202 -0.1195,-0.7328 -0.3979,-0.9718 -0.26,-0.2456 -0.6264,-0.3493 -1.0768,-0.3493 -0.3822,0 -0.7289,0.1234 -0.9902,0.3625 -0.26,0.2258 -0.4163,0.5568 -0.4688,0.9586 z" />
  <path
     id="path129"
     style="fill:#626266;fill-rule:evenodd"
     d="m 336.9899,323.408 v -8.1631 h 0.8168 v 8.1631 z" />
  <path
     id="path131"
     style="fill:#626266;fill-rule:evenodd"
     d="m 339.5941,323.408 v -8.1631 h 0.8155 v 8.1631 z" />
  <path
     id="path133"
     style="fill:#626266;fill-rule:evenodd"
     d="m 342.0091,316.2732 c 0,-0.1773 0.0525,-0.3126 0.172,-0.4347 0.1064,-0.1222 0.2417,-0.176 0.4163,-0.176 0.176,0 0.3296,0.0722 0.4347,0.176 0.1038,0.1221 0.176,0.2757 0.176,0.4347 0,0.1707 -0.0525,0.3112 -0.176,0.4333 -0.1051,0.1221 -0.2587,0.1721 -0.4347,0.1721 -0.1746,0 -0.3099,-0.05 -0.4163,-0.1721 -0.1195,-0.1221 -0.172,-0.2626 -0.172,-0.4333 z m 0.1904,7.1348 v 0 -4.8275 h 0.8168 v 4.8275 z" />
  <path
     id="path135"
     style="fill:#626266;fill-rule:evenodd"
     d="m 349.266,318.5805 v 4.7408 c 0,0.4163 -0.0184,0.7288 -0.0696,0.9232 -0.0683,0.3073 -0.1904,0.5699 -0.3979,0.7958 -0.4504,0.4662 -1.1136,0.7105 -1.9462,0.7105 -0.7446,0 -1.3027,-0.1721 -1.719,-0.5017 -0.4163,-0.3441 -0.6422,-0.8194 -0.6422,-1.4248 h 0.9363 v 0.0669 c 0,0.3664 0.1222,0.6422 0.3664,0.8366 0.2601,0.2088 0.6081,0.3125 1.0585,0.3125 0.6789,0 1.1465,-0.2075 1.392,-0.6422 0.0828,-0.1405 0.1353,-0.2981 0.1708,-0.4517 0.0183,-0.1773 0.0341,-0.3848 0.0341,-0.6435 v -0.8142 c -0.3822,0.7105 -0.9705,1.0585 -1.7532,1.0585 -0.6934,0 -1.2502,-0.2259 -1.6665,-0.6961 -0.4346,-0.4885 -0.6421,-1.0899 -0.6421,-1.8739 0,-0.7998 0.2075,-1.4065 0.6264,-1.8727 0.432,-0.457 0.9705,-0.6829 1.6652,-0.6829 0.8168,0 1.4064,0.3533 1.7702,1.0637 v -0.9048 z m -0.8168,2.4295 v 0 c 0,-0.5529 -0.1536,-0.9863 -0.4504,-1.3041 -0.2929,-0.3296 -0.6764,-0.4832 -1.1623,-0.4832 -0.4885,0 -0.8864,0.1405 -1.1464,0.4517 -0.2784,0.2994 -0.4189,0.7328 -0.4189,1.2673 0,0.5923 0.1405,1.0269 0.4189,1.3579 0.2784,0.3112 0.6763,0.4649 1.1806,0.4649 0.4846,0 0.8667,-0.1537 1.1451,-0.4518 0.2798,-0.3125 0.4334,-0.7472 0.4334,-1.3027 z" />
  <path
     id="path137"
     style="fill:#626266;fill-rule:evenodd"
     d="m 355.2216,321.1321 h -3.8202 v 0.0539 c 0,0.5384 0.1405,0.9494 0.4346,1.2672 0.2955,0.3113 0.679,0.4702 1.1649,0.4702 0.6395,0 1.1622,-0.3297 1.5601,-1.0454 l 0.6277,0.4216 c -0.5043,0.8812 -1.2331,1.3158 -2.2404,1.3158 -0.7301,0 -1.3184,-0.2403 -1.7728,-0.7144 -0.4662,-0.4845 -0.6763,-1.1267 -0.6763,-1.9041 0,-0.7657 0.2101,-1.3763 0.6605,-1.878 0.4505,-0.4478 1.0401,-0.6973 1.7374,-0.6973 0.7105,0 1.2817,0.2259 1.6849,0.6606 0.4294,0.4701 0.6396,1.0952 0.6396,1.8779 z m -0.8865,-0.675 v 0 c 0,-0.4202 -0.1352,-0.7328 -0.3979,-0.9718 -0.26,-0.2259 -0.6067,-0.3493 -1.0768,-0.3493 -0.3822,0 -0.7289,0.1234 -0.9876,0.3625 -0.2784,0.2258 -0.4347,0.5568 -0.4714,0.9586 z" />
  <path
     id="path139"
     style="fill:#626266;fill-rule:evenodd"
     d="m 356.4547,323.408 v -4.8275 h 0.8168 v 0.7643 c 0.3979,-0.6251 0.9915,-0.9232 1.7532,-0.9232 0.5568,0 1.0072,0.1445 1.3211,0.4347 0.3283,0.3112 0.4872,0.7328 0.4872,1.2712 v 3.2805 h -0.8352 v -2.8327 c 0,-0.9547 -0.4163,-1.4393 -1.2686,-1.4393 -0.503,0 -0.9009,0.1773 -1.1793,0.5214 -0.1405,0.1536 -0.2088,0.3164 -0.2442,0.4832 -0.0184,0.1773 -0.0342,0.4347 -0.0342,0.7827 v 2.4847 z" />
  <path
     id="path141"
     style="fill:#626266;fill-rule:evenodd"
     d="m 366.1621,322.2628 v 0.9679 c -0.4531,0.2495 -0.9915,0.3847 -1.631,0.3847 -0.7459,0 -1.3395,-0.2258 -1.79,-0.7144 -0.4491,-0.4845 -0.6776,-1.0913 -0.6776,-1.8556 0,-0.7826 0.2285,-1.4248 0.6934,-1.891 0.4714,-0.4833 1.0795,-0.7328 1.8083,-0.7328 0.5384,0 1.0401,0.1037 1.4905,0.3309 v 0.8904 c -0.4136,-0.2797 -0.8483,-0.4202 -1.3342,-0.4202 -0.5214,0 -0.9731,0.172 -1.3041,0.5016 -0.3112,0.331 -0.4675,0.7827 -0.4675,1.3579 0,0.4833 0.1563,0.8864 0.4675,1.2305 0.331,0.3296 0.7499,0.5069 1.2516,0.5069 0.4859,0 0.9731,-0.1773 1.4931,-0.5568 z" />
  <path
     id="path143"
     style="fill:#626266;fill-rule:evenodd"
     d="m 371.5792,321.1321 h -3.8018 v 0.0722 c 0,0.5201 0.1563,0.9311 0.4504,1.2489 0.2771,0.3297 0.6803,0.4702 1.1465,0.4702 0.6422,0 1.1622,-0.3297 1.5627,-1.0454 l 0.6251,0.4347 c -0.4872,0.8681 -1.2305,1.3027 -2.222,1.3027 -0.7459,0 -1.3368,-0.2258 -1.7886,-0.7144 -0.4504,-0.4845 -0.6789,-1.1083 -0.6789,-1.9041 0,-0.7657 0.2285,-1.3763 0.6789,-1.8609 0.4518,-0.4649 1.006,-0.7144 1.7374,-0.7144 0.6934,0 1.2686,0.2259 1.6823,0.6829 0.4005,0.4478 0.608,1.0729 0.608,1.8556 z m -0.8654,-0.675 v 0 c 0,-0.4202 -0.1405,-0.7328 -0.4032,-0.9718 -0.2574,-0.2259 -0.6225,-0.3493 -1.0742,-0.3493 -0.4005,0 -0.7315,0.1234 -0.9889,0.3625 -0.2626,0.2258 -0.4189,0.5568 -0.4701,0.9586 z" />
  <g
     id="Layer1005">
    <path
       id="path145"
       style="fill:#0367a6;fill-rule:evenodd"
       d="m 243.4311,292.5706 v 11.7718 h -3.769 v -11.7718 z" />
    <path
       id="path147"
       style="fill:#0367a6;fill-rule:evenodd"
       d="m 247.9106,295.9863 v 1.2712 h 0.1536 c 0.5739,-1.0768 1.5286,-1.48 3.5418,-1.48 1.9804,0 3.0415,0.281 3.769,1.0453 0.7643,0.7972 0.9206,1.4249 0.9206,3.7139 v 3.8057 h -3.1242 v -3.8057 c 0,-1.3343 -0.0512,-1.6285 -0.3822,-1.9581 -0.3296,-0.2994 -0.9573,-0.453 -2.1195,-0.453 -1.1281,0 -1.7532,0.172 -2.1353,0.5568 -0.3822,0.3979 -0.4505,0.7787 -0.4505,2.3257 v 3.3343 h -3.1255 v -8.3561 z" />
    <path
       id="path149"
       style="fill:#0367a6;fill-rule:evenodd"
       d="m 261.7127,294.0637 v 1.9226 h 4.9522 v 2.2443 h -4.9522 v 2.4466 c 0,0.8693 0.0367,1.0046 0.1405,1.2305 0.1746,0.2994 0.4846,0.4176 1.0952,0.4176 1.023,0 1.2673,-0.222 1.2673,-1.2134 v -0.3297 h 2.8471 c -0.0355,1.6009 -0.1576,2.0986 -0.6264,2.7092 -0.6396,0.7972 -1.5969,1.0769 -3.7322,1.0769 -2.0158,0 -2.8314,-0.176 -3.4381,-0.7774 -0.453,-0.4347 -0.5923,-0.8917 -0.6605,-1.7966 -0.0158,-0.2403 -0.0158,-0.2403 -0.0158,-1.3171 v -2.4466 h -1.6494 v -2.2443 h 1.6494 v -1.9226 z" />
    <path
       id="path151"
       style="fill:#0367a6;fill-rule:evenodd"
       d="m 279.0434,301.6818 c -0.2245,2.3126 -1.3867,2.8865 -5.8517,2.8865 -2.4138,0 -3.5589,-0.2259 -4.3232,-0.7774 -0.8168,-0.6291 -1.0611,-1.4656 -1.0611,-3.597 0,-2.2259 0.26,-3.073 1.1294,-3.6836 0.8168,-0.5739 1.8753,-0.7459 4.5687,-0.7459 2.7421,0 3.7322,0.1576 4.4979,0.7288 0.8155,0.587 1.1096,1.547 1.1096,3.5063 0,0.1038 0,0.4833 -0.017,0.855 h -8.1592 c 0,0.8457 0.0828,1.1267 0.3822,1.3526 0.327,0.239 1.0033,0.3441 2.1353,0.3441 1.9607,0 2.3428,-0.1222 2.4807,-0.8694 z m -3.0716,-2.5516 v 0 c -0.021,-0.6553 -0.0723,-0.8103 -0.2443,-1.0046 -0.2942,-0.2981 -0.9389,-0.4163 -2.1694,-0.4163 -2.0828,0 -2.5897,0.2587 -2.6213,1.4209 z" />
    <path
       id="path153"
       style="fill:#0367a6;fill-rule:evenodd"
       d="m 283.2313,295.9863 v 1.2528 h 0.1537 c 0.5896,-1.0584 1.4747,-1.4616 3.2122,-1.4616 1.4064,0 2.2929,0.2994 2.8142,0.9416 0.3992,0.52 0.5555,1.1806 0.5555,2.4111 v 0.5568 h -2.9364 v -0.0722 c 0,-0.5884 -0.088,-0.8825 -0.2941,-1.09 -0.2233,-0.2456 -0.7118,-0.3992 -1.3697,-0.3992 -0.6974,0 -1.287,0.2271 -1.5654,0.6067 -0.3126,0.3979 -0.3992,0.8693 -0.3992,2.1537 v 3.4564 h -3.1229 v -8.3561 z" />
    <path
       id="path155"
       style="fill:#0367a6;fill-rule:evenodd"
       d="m 293.7884,295.9863 v 1.2712 h 0.1537 c 0.5739,-1.0768 1.547,-1.48 3.5628,-1.48 1.9764,0 3.0191,0.281 3.7637,1.0453 0.7486,0.7972 0.9048,1.4249 0.9048,3.7139 v 3.8057 h -3.1268 v -3.8057 c 0,-1.3343 -0.0512,-1.6285 -0.3795,-1.9581 -0.348,-0.2994 -0.956,-0.453 -2.1038,-0.453 -1.1622,0 -1.7689,0.172 -2.1353,0.5568 -0.3979,0.3979 -0.4675,0.7787 -0.4675,2.3257 v 3.3343 h -3.1242 v -8.3561 z" />
    <path
       id="path157"
       style="fill:#0367a6;fill-rule:evenodd"
       d="m 303.6141,298.6101 c 0.0709,-1.2173 0.453,-1.8043 1.3894,-2.2942 0.6973,-0.3939 2.1537,-0.5515 4.7407,-0.5515 2.7447,0 3.3842,0.1182 4.0816,0.8326 0.5384,0.5752 0.7104,1.1989 0.7104,2.7105 v 5.0349 h -3.0047 v -1.1491 h -0.1195 c -0.2416,0.5253 -0.5725,0.8182 -1.111,1.0638 -0.5226,0.239 -1.3184,0.3112 -3.3855,0.3112 -2.7788,0 -3.6468,-0.6238 -3.6468,-2.6055 0,-1.4931 0.5739,-2.3257 1.7886,-2.6553 0.7446,-0.2088 1.631,-0.2627 3.8727,-0.2627 1.4393,0 1.8583,0.1222 2.3599,0.6422 h 0.1379 v -0.4347 c 0,-1.3027 -0.2416,-1.4747 -2.1353,-1.4747 -2.2575,0 -2.482,0.0682 -2.57,0.8325 z m 3.2489,2.398 v 0 c -0.3139,0.1353 -0.4701,0.3611 -0.4701,0.6921 0,0.6829 0.4859,0.851 2.155,0.851 2.1878,0 2.8287,-0.1852 2.8287,-0.9508 0,-0.3126 -0.1747,-0.5608 -0.5214,-0.6829 -0.172,-0.0814 -0.6934,-0.1037 -2.0315,-0.1037 -1.0401,0 -1.7361,0.0722 -1.9607,0.1943 z" />
    <path
       id="path159"
       style="fill:#0367a6;fill-rule:evenodd"
       d="m 319.9533,294.0637 v 1.9226 h 4.9522 v 2.2443 h -4.9522 v 2.4466 c 0,0.8693 0.021,1.0046 0.1405,1.2305 0.1563,0.2994 0.4872,0.4176 1.111,0.4176 1.0086,0 1.2358,-0.222 1.2358,-1.2134 v -0.3297 h 2.8628 c -0.0183,1.6009 -0.1589,2.0986 -0.6448,2.7092 -0.6211,0.7972 -1.5785,1.0769 -3.7322,1.0769 -1.9948,0 -2.8116,-0.176 -3.4196,-0.7774 -0.4531,-0.4347 -0.6094,-0.8917 -0.6619,-1.7966 -0.0158,-0.2403 -0.0158,-0.2403 -0.0158,-1.3171 v -2.4466 h -1.6323 v -2.2443 h 1.6323 v -1.9226 z" />
    <path
       id="path161"
       style="fill:#0367a6;fill-rule:evenodd"
       d="m 329.2445,292.5706 v 2.3388 h -3.1242 v -2.3388 z m 0,3.4157 v 0 8.3561 h -3.1242 v -8.3561 z" />
    <path
       id="path163"
       style="fill:#0367a6;fill-rule:evenodd"
       d="m 341.1923,296.5418 c 0.8326,0.6304 1.0742,1.3947 1.0742,3.4748 0,2.2759 -0.2259,3.0901 -0.9692,3.702 -0.7984,0.6737 -1.8779,0.8497 -4.9338,0.8497 -3.09,0 -4.1669,-0.176 -4.964,-0.8497 -0.784,-0.629 -0.9561,-1.3933 -0.9561,-3.8228 0,-1.9462 0.2443,-2.7604 1.0585,-3.354 0.7827,-0.5686 2.0132,-0.7643 4.8458,-0.7643 2.8287,0 4.0448,0.1957 4.8446,0.7643 z m -7.6404,3.6836 v 0 c 0,1.0953 0.1379,1.4748 0.6763,1.7059 0.3821,0.1852 1.1123,0.2758 2.1353,0.2758 2.3638,0 2.7617,-0.2994 2.7617,-2.0684 0,-1.0939 -0.172,-1.5102 -0.7104,-1.736 -0.3664,-0.1721 -1.1307,-0.2771 -2.0513,-0.2771 -2.3612,0 -2.8116,0.3309 -2.8116,2.0998 z" />
    <path
       id="path165"
       style="fill:#0367a6;fill-rule:evenodd"
       d="m 346.3848,295.9863 v 1.2712 h 0.1536 c 0.5582,-1.0768 1.5286,-1.48 3.5445,-1.48 1.9764,0 3.0217,0.281 3.7663,1.0453 0.7643,0.7972 0.9206,1.4249 0.9206,3.7139 v 3.8057 h -3.1242 v -3.8057 c 0,-1.3343 -0.0512,-1.6285 -0.3821,-1.9581 -0.3467,-0.2994 -0.9561,-0.453 -2.1196,-0.453 -1.1451,0 -1.7532,0.172 -2.1353,0.5568 -0.3979,0.3979 -0.4505,0.7787 -0.4505,2.3257 v 3.3343 h -3.1255 v -8.3561 z" />
    <path
       id="path167"
       style="fill:#0367a6;fill-rule:evenodd"
       d="m 356.1947,298.6101 c 0.0879,-1.2173 0.4504,-1.8043 1.3867,-2.2942 0.7157,-0.3939 2.1564,-0.5515 4.7618,-0.5515 2.7447,0 3.3658,0.1182 4.0789,0.8326 0.5227,0.5752 0.7118,1.1989 0.7118,2.7105 v 5.0349 h -3.0034 v -1.1491 h -0.1221 c -0.26,0.5253 -0.5699,0.8182 -1.111,1.0638 -0.5384,0.239 -1.3369,0.3112 -3.4039,0.3112 -2.7604,0 -3.6442,-0.6238 -3.6442,-2.6055 0,-1.4931 0.5699,-2.3257 1.8044,-2.6553 0.7288,-0.2088 1.6139,-0.2627 3.8556,-0.2627 1.459,0 1.874,0.1222 2.3586,0.6422 h 0.1589 v -0.4347 c 0,-1.3027 -0.26,-1.4747 -2.138,-1.4747 -2.239,0 -2.482,0.0682 -2.57,0.8325 z m 3.2463,2.398 v 0 c -0.2942,0.1353 -0.4505,0.3611 -0.4505,0.6921 0,0.6829 0.4872,0.851 2.1537,0.851 2.1879,0 2.8274,-0.1852 2.8274,-0.9508 0,-0.3126 -0.1707,-0.5608 -0.5174,-0.6829 -0.1917,-0.0814 -0.7131,-0.1037 -2.0513,-0.1037 -1.023,0 -1.7019,0.0722 -1.9619,0.1943 z" />
    <path
       id="path169"
       style="fill:#0367a6;fill-rule:evenodd"
       d="m 371.6133,292.5706 v 11.7718 h -3.1241 v -11.7718 z" />
  </g>
  <g
     id="Layer1006">
    <path
       id="path172"
       style="fill:#004586;fill-rule:evenodd"
       d="m 239.6937,241.7589 h 31.1381 c 14.3786,0.0722 14.829,0.0722 17.2427,1.2344 3.1754,1.4892 4.4099,4.3534 4.4099,10.0896 0,6.1801 -1.4761,8.7186 -5.836,9.9491 5.7152,0.9718 7.4697,3.5247 7.4697,10.4507 0,6.0619 -1.5654,9.1835 -5.2123,10.6096 -1.4931,0.5201 -3.9581,0.8497 -7.8466,0.9955 -0.5384,0 -3.9095,0 -10.1591,0.0486 h -31.2064 z m 31.1381,17.1246 v 0 c 4.4952,0 6.4427,-0.1629 7.2911,-0.4715 1.0427,-0.3979 1.5653,-1.4931 1.5653,-3.1255 0,-1.7558 -0.5922,-2.7289 -1.8963,-3.0585 -0.7091,-0.1904 -0.8313,-0.1904 -6.9601,-0.2587 h -18.5981 v 6.9142 z m 0.0683,15.852 v 0 c 7.7454,-0.0722 7.7454,-0.0722 8.7159,-0.4517 1.1648,-0.4478 1.6849,-1.4393 1.6849,-3.3212 0,-1.9409 -0.5726,-2.8642 -1.9436,-3.2397 -0.7118,-0.2128 -0.7118,-0.2128 -8.4572,-0.2128 h -18.6664 v 7.2254 z" />
    <path
       id="path174"
       style="fill:#004586;fill-rule:evenodd"
       d="m 298.7511,241.7589 h 31.1539 c 14.3602,0.0722 14.8277,0.0722 17.2257,1.2344 3.1964,1.4892 4.4269,4.3534 4.4269,10.0896 0,6.1801 -1.4931,8.7186 -5.8517,9.9491 5.7322,0.9718 7.4854,3.5247 7.4854,10.4507 0,6.0619 -1.5614,9.1835 -5.2096,10.6096 -1.4932,0.5201 -3.9607,0.8497 -7.8663,0.9955 -0.5213,0 -3.9069,0 -10.1408,0.0486 h -31.2235 z m 31.1539,17.1246 v 0 c 4.4965,0 6.4427,-0.1629 7.2753,-0.4715 1.0427,-0.3979 1.5628,-1.4931 1.5628,-3.1255 0,-1.7558 -0.5752,-2.7289 -1.8727,-3.0585 -0.7131,-0.1904 -0.8536,-0.1904 -6.9654,-0.2587 h -18.6151 v 6.9142 z m 0.0696,15.852 v 0 c 7.7428,-0.0722 7.7428,-0.0722 8.7002,-0.4517 1.178,-0.4478 1.7006,-1.4393 1.7006,-3.3212 0,-1.9409 -0.5896,-2.8642 -1.9449,-3.2397 -0.7131,-0.2128 -0.7131,-0.2128 -8.4559,-0.2128 h -18.6847 v 7.2254 z" />
    <path
       id="path176"
       style="fill:#004586;fill-rule:evenodd"
       d="m 371.6659,241.7589 v 43.3775 h -13.856 v -43.3775 z" />
  </g>
  <path
     id="path179"
     style="fill:#626266;fill-rule:evenodd"
     d="M 371.5293,311.2868 H 239.7462 v -0.524 h 131.7831 z" />
</svg>
