<?xml version="1.0" encoding="UTF-8" standalone="no"?>
<svg
   xmlns:dc="http://purl.org/dc/elements/1.1/"
   xmlns:cc="http://creativecommons.org/ns#"
   xmlns:rdf="http://www.w3.org/1999/02/22-rdf-syntax-ns#"
   xmlns:svg="http://www.w3.org/2000/svg"
   xmlns="http://www.w3.org/2000/svg"
   version="1.1"
   id="svg7561"
   viewBox="0 0 380 100"
   height="100"
   width="380">
  <defs
     id="defs7563" />
  <metadata
     id="metadata7566">
    <rdf:RDF>
      <cc:Work
         rdf:about="">
        <dc:format>image/svg+xml</dc:format>
        <dc:type
           rdf:resource="http://purl.org/dc/dcmitype/StillImage" />
        <dc:title></dc:title>
      </cc:Work>
    </rdf:RDF>
  </metadata>
  <g
     transform="translate(0,-952.36216)"
     id="layer1">
    <path
       id="path6966"
       style="fill:#e30102;fill-opacity:1;fill-rule:nonzero;stroke:none"
       d="m 3.6635714,1002.7908 0,-49.00252 117.5399986,0 0,49.00252 0,49.0025 -58.936248,0 -58.6037506,0 0,-49.0025 z m 94.0312496,37.4138 c 3.973749,-0.9938 6.953749,-2.6488 9.933749,-5.6288 1.32375,-1.3237 2.3175,-2.6487 2.3175,-2.98 0,-0.3312 -1.325,-3.6425 -3.31125,-7.2837 l -3.31125,-6.9538 -1.655,2.6488 c -2.3175,2.98 -3.973749,4.305 -6.622499,5.2975 -3.9725,1.6562 -8.277499,0.9937 -11.257499,-1.9863 -3.31125,-3.6425 -4.96625,-8.6087 -5.2975,-15.8925 -0.33125,-9.27128 1.98625,-17.21753 6.6225,-21.52128 1.986249,-1.98625 4.303749,-2.98 7.946249,-2.64875 3.6425,0 5.297499,0.9925 7.946249,3.64125 1.655,1.9875 1.655,1.9875 1.98625,0.99375 0.33125,-0.33125 1.65625,-3.6425 3.31125,-6.9525 l 2.64875,-6.62249 -1.655,-1.32375 c -4.9675,-4.305 -14.899999,-6.29125 -22.514998,-4.305 -7.28375,1.98625 -13.575,8.2775 -17.54875,17.21749 -2.64875,5.96 -3.64125,12.9125 -3.31,21.18998 0,6.6226 0.66125,10.5951 2.3175,15.5613 1.655,4.6363 3.64125,8.2775 6.62125,11.2575 3.6425,3.9738 6.95375,5.96 12.25125,6.9538 2.979999,0.6612 9.601249,0.3312 12.581249,-0.6625 z m -63.90125,-12.2513 0,-12.25 0.66125,0.3313 c 1.325,0.3312 7.285,-0.3313 9.93375,-0.9938 5.62875,-1.3237 10.595,-5.2975 12.9125,-9.9325 1.986251,-4.6363 2.648751,-6.95378 2.648751,-13.90628 0,-5.62875 0,-5.96 -0.99375,-8.60875 -2.317501,-6.62249 -6.952501,-10.92624 -14.567501,-12.58124 -5.62875,-1.65625 -10.92625,-1.65625 -22.18375,-0.99375 l -2.64875,0.33125 0,35.42747 0,35.7588 14.2375,0 0,-12.5825 z m 264.216249,13.245 c -9.27125,-1.6562 -15.56125,-7.285 -17.54875,-16.555 -0.33,-2.98 -0.33,-4.9675 -0.33,-29.46878 l 0,-25.82499 13.905,0 0.33125,25.49499 0,25.49378 0.99375,1.6563 c 0,0 3.6425,4.3037 7.28375,3.9725 3.6425,-0.3313 5.62875,-1.655 7.285,-4.635 l 0.66125,-1.6563 0,-25.16253 0.33125,-25.49499 6.95375,0 7.28,0.33125 -0.325,25.16374 c 0,14.89873 0,26.15633 -0.3375,27.48133 -0.6625,5.2975 -3.3125,10.9262 -6.94875,13.9062 -1.98625,1.655 -5.96,3.9725 -8.60875,4.635 -1.98625,0.6625 -8.94,0.9925 -10.92625,0.6625 z m -61.25375,-35.7588 c -5.95875,-19.53498 -10.98125,-36.05622 -10.98125,-36.05622 l 15.28625,-0.0337 0.6625,2.64875 c 0.9925,2.64875 4.96625,17.54749 8.2775,29.13627 0.9925,3.6425 1.98625,6.2912 1.98625,6.2912 0.33125,0 1.98625,-6.2912 9.60125,-31.12372 l 1.9875,-6.9525 15.23,0 c 0,0.33125 -4.30375,13.24374 -9.27125,29.46749 -4.96625,15.89253 -10.26375,31.78503 -11.25625,35.42753 l -2.31875,6.9538 -8.29375,-0.017 -10.91,-35.7413 z m -100.65375,-0.6625 0,-35.42747 2.64875,-0.33125 c 15.8925,-1.325 21.8525,-0.6625 27.48125,1.98625 6.6225,3.31125 10.26375,9.93374 10.26375,19.20374 0,6.29125 -2.3175,11.92003 -6.62125,16.22373 -1.325,1.6563 -2.3175,2.6488 -2.3175,2.98 0,0.3313 3.64125,7.2851 8.2775,15.5626 4.30375,8.2775 8.2775,15.23 8.2775,15.23 0,0 -3.97375,0.3312 -8.2775,0.3312 l -7.94625,0 -1.325,-1.9862 c -0.33125,-0.9938 -3.6425,-7.285 -7.28375,-13.9063 l -6.29125,-11.92 -1.325,0 -0.9925,-0.3312 0,13.9062 0,14.2375 -7.285,0 -7.28375,0 0,-35.7588 z m 22.515,-7.94623 c 1.98625,-0.99375 2.98,-2.3175 2.98,-4.96625 0.33125,-5.96 -1.3075,-7.86625 -7.93,-8.1975 l -2.99625,-0.08 0,7.28375 0,7.28375 3.01625,-0.01 c 2.64875,0 3.605,-0.65125 4.93,-1.31375 z m 26.15625,43.37383 0,-70.85507 39.40125,0 0,7.28375 0,7.28499 -12.58125,0.33 -12.5825,0 -0.33125,10.92625 18.5425,0 0,7.28498 0,7.615 -9.27125,0 -9.27125,0 0.33125,14.9001 12.25125,0 12.58125,0.33 0,7.6162 0,7.615 -19.535,0 c -10.595,0 -19.20375,-0.3312 -19.535,-0.3312 z m 146.02,-35.4276 0,-35.42747 39.4,0 0,7.28375 0,7.28499 -12.5875,0.33 -12.575,0 0,5.2975 -0.3375,5.62875 18.5375,0 0,7.28498 0,7.615 -9.2625,0 -8.9375,0 0,7.6151 0,7.615 24.825,0 0,7.6162 0,7.615 -19.5375,0 -19.525,0 0,-35.7588 z m -296.999999,-12.25123 0,-8.93875 2.64875,0.33125 c 4.635,0.33 7.615,1.98625 8.6075,4.635 0.6625,0.9925 0.6625,5.62875 0,7.28375 0,0.6625 -0.66125,1.65625 -1.32375,2.64875 -1.325,1.325 -3.31125,1.98623 -7.28375,2.31753 l -2.64875,0.3312 0,-8.60873 z" />
  </g>
</svg>
