<?xml version="1.0" standalone="no"?><!DOCTYPE svg PUBLIC "-//W3C//DTD SVG 1.1//EN" "http://www.w3.org/Graphics/SVG/1.1/DTD/svg11.dtd"><svg width="100%" height="100%" viewBox="0 0 3491 2213" version="1.1" xmlns="http://www.w3.org/2000/svg" xmlns:xlink="http://www.w3.org/1999/xlink" xml:space="preserve" style="fill-rule:evenodd;clip-rule:evenodd;stroke-linejoin:round;stroke-miterlimit:1.41421;"><path d="M536.279,2212.78l-450.466,0c-30.914,0 -57.253,-15.943 -70.997,-38.524c-12.133,-21.018 -14.816,-55.254 -14.816,-77.955c0,-22.689 2.683,-56.938 14.816,-77.955c13.744,-22.594 40.083,-38.524 70.997,-38.524l450.466,0c30.905,0 57.237,15.93 70.982,38.524c12.12,21.017 14.819,55.266 14.819,77.931c0,22.713 -2.699,56.961 -14.819,77.979c-13.745,22.581 -40.076,38.523 -70.982,38.524ZM1195.8,2209.42l-1.325,0l0,-5.828l1.039,0c0.298,0 0.728,-0.059 1.266,-0.179c0.453,-0.047 0.979,-0.191 1.552,-0.43c0.609,-0.238 1.206,-0.644 1.791,-1.206c0.526,-0.501 1.003,-1.242 1.433,-2.185l2.078,-4.598l-9.804,-28.839l7.034,-2.113l6.293,21.877l0.131,0l7.535,-21.877l6.664,2.113l-12.539,32.565c-1.254,3.463 -2.83,6.114 -4.729,7.93c-1.922,1.815 -4.728,2.722 -8.419,2.77ZM1746.25,2145.99l-7.081,0l-1.552,-5.923c-3.595,-13.518 -4.24,-18.676 -4.24,-35.287c0,-12.623 0.514,-19.19 1.923,-25.758c7.607,-35.276 27.179,-63.745 56.794,-82.935c14.557,-9.398 27.813,-14.939 44.817,-18.546c12.109,-2.567 39.408,-2.698 51.254,-0.119c40.315,8.622 73.537,34.129 90.924,69.285c9.649,19.704 13.386,35.802 13.386,58.204c0,21.889 -3.606,38.249 -12.873,57.177c-6.699,13.78 -5.791,13.136 -15.452,11.846c-8.765,-1.158 -20.349,-0.131 -27.824,2.317c-3.344,1.038 -4.252,1.934 -4.634,4.382c-0.382,2.58 -1.421,3.344 -6.699,5.41c-4.371,1.672 -7.977,4.251 -12.873,9.016c-3.738,3.606 -7.595,7.081 -8.753,7.595c-2.974,0.776 -8.121,2.065 -8.121,1.421c0,-0.514 8.121,-12.491 17.519,-25.89c3.343,-4.765 4.502,-7.463 4.896,-11.333c0.251,-2.698 1.409,-8.371 2.567,-12.491c1.159,-4.119 1.935,-7.726 1.684,-7.988c-0.263,-0.251 -2.579,0.131 -4.896,1.038c-5.278,1.923 -8.765,1.923 -14.808,0.383c-3.869,-1.027 -5.29,-0.896 -9.147,0.513c-4.382,1.672 -4.896,1.672 -8.884,0c-4.001,-1.672 -4.897,-1.672 -14.689,0.131c-18.151,3.225 -23.955,1.421 -36.052,-10.95c-7.475,-7.595 -10.305,-9.398 -11.714,-7.081c-0.394,0.513 -1.684,1.027 -3.093,1.027c-1.803,0 -3.356,-1.41 -5.673,-5.147c-1.803,-2.831 -4.633,-6.055 -6.185,-7.213c-8.622,-6.174 -18.534,-1.672 -18.534,8.502c0,4.12 8.371,16.743 12.623,18.928c5.529,2.83 2.436,7.213 -4.646,6.317c-3.606,-0.513 -5.278,-1.552 -10.043,-6.831c-5.146,-5.66 -6.173,-6.305 -9.78,-6.185c-2.197,0 -5.935,0.907 -8.252,1.934c-5.922,2.711 -13.78,4.251 -21.889,4.251ZM1493.61,2170.39l-0.155,8.825c-0.036,3.021 -0.048,5.66 -0.048,7.929c-0.047,2.054 0.741,3.105 2.353,3.152c1.194,-0.047 2.257,-0.513 3.248,-1.433l1.994,4.431l-2.376,1.301c-0.908,0.502 -1.756,0.812 -2.532,0.92c-0.764,0.191 -1.373,0.275 -1.839,0.275c-5.147,0.071 -7.786,-2.926 -7.893,-9.016c0,-1.78 0.024,-4.18 0.048,-7.201l0.203,-9.183l-3.953,0l0,-5.493l3.953,0.119l0.226,-10.7l6.998,0l-0.215,10.7l6.461,-0.119l0,5.493l-6.473,0ZM1509.76,2180.89c0.036,1.016 0.204,2.055 0.454,3.069c0.239,1.063 0.609,2.054 1.171,2.986c0.979,1.97 2.686,2.973 5.075,3.021c1.409,0 2.675,-0.418 3.821,-1.254c1.123,-0.74 2.126,-1.624 2.974,-2.603l4.036,3.785c-3.105,3.81 -7.058,5.792 -11.846,5.9c-3.75,-0.036 -6.795,-1.493 -9.112,-4.371c-2.352,-2.818 -3.546,-6.604 -3.57,-11.38c0,-4.18 1.17,-7.858 3.522,-11.046c2.269,-3.225 5.517,-4.861 9.757,-4.956c8.048,0.167 12.049,5.767 12.013,16.849l-18.295,0ZM1392.57,2179.91c0.024,-4.167 1.302,-7.834 3.797,-10.962c2.437,-3.189 5.804,-4.813 10.091,-4.908c4.657,0.095 8.168,1.6 10.473,4.55c2.305,2.973 3.463,6.747 3.463,11.32c-0.048,4.335 -1.254,8.049 -3.63,11.106c-2.436,3.105 -5.852,4.693 -10.306,4.777c-4.729,-0.084 -8.204,-1.672 -10.425,-4.777c-2.305,-3.057 -3.463,-6.771 -3.463,-11.106ZM952.487,2187.79c1.218,0.68 2.424,1.254 3.654,1.743c1.23,0.514 2.532,0.764 3.893,0.764c1.206,0 2.198,-0.298 2.986,-0.883c0.752,-0.562 1.158,-1.433 1.194,-2.639c-0.036,-1.457 -0.74,-2.46 -2.126,-2.962c-0.633,-0.286 -1.373,-0.549 -2.197,-0.8c-0.836,-0.227 -1.708,-0.466 -2.615,-0.705c-0.836,-0.334 -1.672,-0.68 -2.496,-1.074c-0.836,-0.442 -1.588,-0.98 -2.269,-1.6c-1.469,-1.29 -2.221,-3.368 -2.269,-6.258c0.048,-3.105 1.171,-5.445 3.368,-6.998c2.066,-1.552 4.585,-2.34 7.583,-2.34c1.755,0 3.534,0.274 5.338,0.788c1.815,0.513 3.391,1.349 4.717,2.52l-3.081,4.585c-1.959,-1.516 -4.168,-2.317 -6.628,-2.388c-1.075,0 -2.066,0.263 -3.021,0.812c-1.027,0.597 -1.565,1.516 -1.6,2.735c0,0.68 0.215,1.265 0.644,1.755c0.442,0.466 1.004,0.836 1.684,1.134c0.657,0.263 1.397,0.526 2.233,0.753c0.836,0.298 1.72,0.597 2.639,0.919c0.92,0.263 1.804,0.597 2.675,1.015c0.836,0.382 1.589,0.908 2.269,1.6c0.657,0.633 1.206,1.433 1.66,2.389c0.346,0.943 0.526,2.125 0.526,3.523c-0.084,3.224 -1.207,5.6 -3.392,7.165c-2.161,1.636 -4.753,2.448 -7.786,2.448c-3.63,-0.036 -7.021,-0.992 -10.162,-2.878l2.579,-5.123ZM1257.4,2180.89c0.036,1.016 0.192,2.055 0.454,3.069c0.227,1.063 0.621,2.054 1.159,2.986c1.003,1.97 2.686,2.973 5.087,3.021c1.397,0 2.675,-0.418 3.809,-1.254c1.135,-0.74 2.114,-1.624 2.974,-2.603l4.048,3.785c-3.117,3.81 -7.082,5.792 -11.846,5.9c-3.75,-0.036 -6.795,-1.493 -9.1,-4.371c-2.376,-2.818 -3.558,-6.604 -3.582,-11.38c0,-4.18 1.158,-7.858 3.522,-11.046c2.281,-3.225 5.517,-4.861 9.757,-4.956c8.036,0.167 12.049,5.767 12.001,16.849l-18.283,0ZM1034.34,2180.89c0.036,1.016 0.191,2.055 0.454,3.069c0.227,1.063 0.609,2.054 1.17,2.986c0.992,1.97 2.687,2.973 5.076,3.021c1.397,0 2.675,-0.418 3.821,-1.254c1.122,-0.74 2.114,-1.624 2.973,-2.603l4.037,3.785c-3.117,3.81 -7.07,5.792 -11.846,5.9c-3.762,-0.036 -6.795,-1.493 -9.112,-4.371c-2.352,-2.818 -3.547,-6.604 -3.582,-11.38c0,-4.18 1.182,-7.858 3.534,-11.046c2.269,-3.225 5.517,-4.861 9.757,-4.956c8.036,0.167 12.037,5.767 12.001,16.849l-18.283,0ZM898.356,2180.89c0.036,1.016 0.191,2.055 0.454,3.069c0.226,1.063 0.609,2.054 1.158,2.986c0.991,1.97 2.699,2.973 5.087,3.021c1.397,0 2.663,-0.418 3.821,-1.254c1.123,-0.74 2.114,-1.624 2.962,-2.603l4.048,3.785c-3.129,3.81 -7.069,5.792 -11.846,5.9c-3.762,-0.036 -6.795,-1.493 -9.112,-4.371c-2.352,-2.818 -3.546,-6.604 -3.582,-11.38c0,-4.18 1.17,-7.858 3.523,-11.046c2.281,-3.225 5.529,-4.861 9.756,-4.956c8.049,0.167 12.049,5.767 12.013,16.849l-18.282,0ZM994.438,2191.3c-1.111,1.325 -2.412,2.388 -3.917,3.176c-1.576,0.836 -3.26,1.278 -5.063,1.314c-3.117,-0.036 -5.254,-1.039 -6.401,-3.01c-1.158,-1.815 -1.719,-4.227 -1.683,-7.212c0,-1.828 0.024,-3.678 0.059,-5.589l0.168,-15.082l7.009,0l-0.059,7.535c-0.072,4.49 -0.108,8.454 -0.108,11.882c-0.036,1.707 0.251,2.973 0.872,3.761c0.513,0.8 1.493,1.218 2.926,1.218c1.122,0 2.257,-0.453 3.391,-1.325c1.111,-0.836 2.114,-1.72 3.009,-2.639l0.108,-20.432l7.069,0l-0.227,30.045l-7.033,0l0,-3.642l-0.12,0ZM1151.2,2170.08c3.105,-2.603 5.637,-4.287 7.619,-5.039c1.875,-0.729 3.559,-1.063 5.063,-1.015c2.281,0 4.228,0.692 5.84,2.09c1.612,1.445 2.448,3.618 2.484,6.556c0,1.003 -0.012,1.839 -0.06,2.507l-0.239,8.658c-0.083,1.314 -0.107,2.567 -0.107,3.75c0,0.836 0.167,1.516 0.501,2.042c0.299,0.537 0.645,0.812 1.051,0.812c0.263,0.036 0.955,-0.215 2.09,-0.765l1.672,3.643c-1.469,0.991 -2.675,1.636 -3.642,1.946c-0.956,0.335 -1.768,0.49 -2.425,0.49c-1.218,-0.024 -2.28,-0.418 -3.176,-1.135c-0.92,-0.68 -1.541,-1.624 -1.839,-2.878c-2.126,2.639 -4.598,3.989 -7.44,4.013c-2.627,-0.024 -4.705,-0.848 -6.233,-2.448c-1.672,-1.517 -2.508,-3.619 -2.508,-6.317c0,-1.278 0.263,-2.472 0.764,-3.595c0.466,-1.075 1.266,-2.102 2.377,-3.045c2.149,-1.935 6.317,-3.451 12.467,-4.526l0,-1.982c0,-1.624 -0.299,-2.735 -0.908,-3.284c-0.621,-0.514 -1.433,-0.752 -2.436,-0.705c-0.358,0 -0.728,0.036 -1.099,0.12c-0.477,0.107 -1.003,0.31 -1.588,0.585c-1.11,0.525 -2.746,1.66 -4.92,3.415l-3.308,-3.893ZM1455.31,2170.08c3.093,-2.603 5.637,-4.287 7.619,-5.039c1.863,-0.729 3.571,-1.063 5.063,-1.015c2.281,0 4.228,0.692 5.84,2.09c1.624,1.445 2.46,3.618 2.484,6.556c0,1.003 -0.012,1.839 -0.06,2.507l-0.227,8.658c-0.095,1.314 -0.143,2.567 -0.143,3.75c0,0.836 0.191,1.516 0.525,2.042c0.311,0.537 0.657,0.812 1.051,0.812c0.251,0.036 0.956,-0.215 2.09,-0.765l1.66,3.643c-1.445,0.991 -2.675,1.636 -3.618,1.946c-0.968,0.335 -1.768,0.49 -2.437,0.49c-1.206,-0.024 -2.268,-0.418 -3.176,-1.135c-0.931,-0.68 -1.54,-1.624 -1.839,-2.878c-2.114,2.639 -4.598,3.989 -7.44,4.013c-2.639,-0.024 -4.705,-0.848 -6.221,-2.448c-1.684,-1.517 -2.52,-3.619 -2.52,-6.317c0,-1.278 0.263,-2.472 0.764,-3.595c0.478,-1.075 1.266,-2.102 2.365,-3.045c2.173,-1.935 6.329,-3.451 12.479,-4.526l0,-1.982c0,-1.624 -0.311,-2.735 -0.896,-3.284c-0.621,-0.514 -1.445,-0.752 -2.448,-0.705c-0.358,0 -0.716,0.036 -1.099,0.12c-0.477,0.107 -1.003,0.31 -1.576,0.585c-1.122,0.525 -2.758,1.66 -4.932,3.415l-3.308,-3.893ZM921.546,2170.08c3.105,-2.603 5.649,-4.287 7.619,-5.039c1.875,-0.729 3.571,-1.063 5.075,-1.015c2.269,0 4.216,0.692 5.84,2.09c1.612,1.445 2.436,3.618 2.472,6.556c0,1.003 -0.012,1.839 -0.06,2.507l-0.239,8.658c-0.071,1.314 -0.107,2.567 -0.107,3.75c0,0.836 0.167,1.516 0.501,2.042c0.311,0.537 0.657,0.812 1.051,0.812c0.263,0.036 0.967,-0.215 2.09,-0.765l1.672,3.643c-1.469,0.991 -2.675,1.636 -3.63,1.946c-0.968,0.335 -1.768,0.49 -2.437,0.49c-1.218,-0.024 -2.28,-0.418 -3.176,-1.135c-0.931,-0.68 -1.54,-1.624 -1.827,-2.878c-2.126,2.639 -4.61,3.989 -7.452,4.013c-2.627,-0.024 -4.705,-0.848 -6.221,-2.448c-1.672,-1.517 -2.508,-3.619 -2.508,-6.317c0,-1.278 0.251,-2.472 0.752,-3.595c0.478,-1.075 1.266,-2.102 2.377,-3.045c2.161,-1.935 6.317,-3.451 12.467,-4.526l0,-1.982c0,-1.624 -0.299,-2.735 -0.908,-3.284c-0.621,-0.514 -1.433,-0.752 -2.424,-0.705c-0.358,0 -0.728,0.036 -1.111,0.12c-0.465,0.107 -0.991,0.31 -1.588,0.585c-1.11,0.525 -2.746,1.66 -4.92,3.415l-3.308,-3.893ZM1089.46,2170.08c3.093,-2.603 5.636,-4.287 7.607,-5.039c1.887,-0.729 3.57,-1.063 5.075,-1.015c2.281,0 4.215,0.692 5.84,2.09c1.612,1.445 2.436,3.618 2.471,6.556c0,1.003 -0.011,1.839 -0.047,2.507l-0.251,8.658c-0.072,1.314 -0.108,2.567 -0.108,3.75c0,0.836 0.168,1.516 0.514,2.042c0.298,0.537 0.645,0.812 1.039,0.812c0.263,0.036 0.955,-0.215 2.102,-0.765l1.659,3.643c-1.456,0.991 -2.674,1.636 -3.63,1.946c-0.955,0.335 -1.767,0.49 -2.424,0.49c-1.23,-0.024 -2.281,-0.418 -3.188,-1.135c-0.92,-0.68 -1.529,-1.624 -1.827,-2.878c-2.126,2.639 -4.61,3.989 -7.44,4.013c-2.639,-0.024 -4.717,-0.848 -6.234,-2.448c-1.671,-1.517 -2.507,-3.619 -2.507,-6.317c0,-1.278 0.25,-2.472 0.764,-3.595c0.466,-1.075 1.254,-2.102 2.364,-3.045c2.162,-1.935 6.317,-3.451 12.467,-4.526l0,-1.982c0,-1.624 -0.298,-2.735 -0.895,-3.284c-0.621,-0.514 -1.433,-0.752 -2.436,-0.705c-0.359,0 -0.729,0.036 -1.099,0.12c-0.478,0.107 -1.003,0.31 -1.588,0.585c-1.123,0.525 -2.759,1.66 -4.92,3.415l-3.308,-3.893ZM850.47,2194.94l-6.974,0l0.119,-30.045l6.974,0l0,3.964l0.108,0.108c0.991,-1.457 2.257,-2.651 3.821,-3.559c1.552,-0.908 3.26,-1.373 5.123,-1.373c1.839,0 3.403,0.406 4.669,1.218c1.278,0.824 2.173,2.125 2.675,3.917c2.508,-3.344 5.792,-5.04 9.852,-5.135c1.708,0 3.093,0.274 4.168,0.788c1.086,0.561 1.898,1.278 2.448,2.102c0.597,0.836 1.015,1.743 1.241,2.734c0.18,1.039 0.275,2.054 0.275,3.033c-0.048,7.392 -0.06,14.819 -0.06,22.248l-7.033,0l0.06,-11.823c0,-3.713 0.011,-6.663 0.059,-8.86c-0.048,-2.4 -1.289,-3.642 -3.749,-3.702c-0.538,0 -1.075,0.119 -1.636,0.382c-0.621,0.227 -1.242,0.573 -1.863,1.015c-1.171,0.92 -2.126,1.791 -2.866,2.639l-0.239,20.349l-6.95,0l0.059,-11.823c0,-3.713 0.012,-6.663 0.06,-8.86c-0.048,-2.4 -1.29,-3.642 -3.749,-3.702c-0.514,0 -1.063,0.119 -1.637,0.382c-0.62,0.227 -1.241,0.573 -1.85,1.015c-1.183,0.92 -2.138,1.791 -2.878,2.639l-0.227,20.349ZM1246.72,2194.94l-20.612,0l-2.161,-4.263l13.888,-19.943l-13.16,0l0,-5.839l20.54,0l2.209,4.287l-13.972,19.93l13.268,0l0,5.828ZM1368.79,2194.94l-7.057,0l0.274,-30.045l6.95,0l0,3.63l0.12,0c2.34,-2.902 5.469,-4.395 9.374,-4.49c2.997,0.059 5.051,0.967 6.138,2.746c1.075,1.804 1.6,3.917 1.564,6.317c-0.035,2.795 -0.059,5.052 -0.059,6.759l-0.179,15.083l-7.022,0l0.048,-7.524c0.095,-4.49 0.143,-8.442 0.143,-11.834c0,-1.839 -0.239,-3.152 -0.764,-3.952c-0.526,-0.717 -1.541,-1.075 -3.057,-1.075c-1.099,0.06 -2.198,0.466 -3.296,1.254c-1.111,0.836 -2.138,1.743 -3.057,2.722l-0.12,20.409ZM1188.59,2194.94l-6.998,0l0.346,-44.686l7.01,0l-0.358,44.686ZM1016.85,2194.94l-7.082,0l0.299,-30.045l6.998,0l0,5.469l0.071,0.119c0.657,-1.791 1.517,-3.296 2.58,-4.526c1.027,-1.194 2.412,-1.827 4.179,-1.922c0.693,0 1.386,0.107 2.078,0.298l-1.146,6.962c-0.585,-0.155 -1.147,-0.239 -1.696,-0.239c-1.302,0 -2.448,0.466 -3.463,1.386c-1.039,0.955 -1.923,2.233 -2.651,3.869l-0.167,18.629ZM1336.24,2194.94l-7.069,0l0.286,-30.045l6.95,0l0,3.63l0.12,0c2.328,-2.902 5.469,-4.395 9.386,-4.49c2.973,0.059 5.027,0.967 6.15,2.746c1.051,1.804 1.576,3.917 1.54,6.317c-0.035,2.795 -0.071,5.052 -0.071,6.759l-0.167,15.083l-7.034,0l0.06,-7.524c0.095,-4.49 0.143,-8.442 0.143,-11.834c0,-1.839 -0.251,-3.152 -0.764,-3.952c-0.538,-0.717 -1.565,-1.075 -3.057,-1.075c-1.099,0.06 -2.21,0.466 -3.308,1.254c-1.123,0.836 -2.138,1.743 -3.045,2.722l-0.12,20.409ZM1440.08,2194.94l-6.664,0l-9.839,-28.815l7.045,-2.09l6.317,21.901l0.108,0l7.535,-21.901l6.675,2.113l-11.177,28.792ZM1126.42,2194.94l-7.081,0l0.299,-30.045l6.95,0l0,3.63l0.107,0c2.341,-2.902 5.469,-4.395 9.386,-4.49c2.986,0.059 5.04,0.967 6.15,2.746c1.063,1.804 1.588,3.917 1.541,6.317c-0.036,2.795 -0.06,5.052 -0.06,6.759l-0.167,15.083l-7.034,0l0.048,-7.524c0.095,-4.49 0.143,-8.442 0.143,-11.834c0,-1.839 -0.251,-3.152 -0.752,-3.952c-0.549,-0.717 -1.564,-1.075 -3.057,-1.075c-1.099,0.06 -2.209,0.466 -3.308,1.254c-1.123,0.836 -2.138,1.743 -3.057,2.722l-0.108,20.409ZM1541.66,2194.93l-7.679,0l0,-7.953l7.679,0l0,7.953ZM1320.72,2194.93l-6.998,0l0.275,-30.045l7.022,0l-0.299,30.045ZM1289.33,2194.93l-7.702,0l0,-7.953l7.702,0l0,7.953ZM1066.24,2194.93l-7.69,0l0,-7.953l7.69,0l0,7.953ZM323.837,2192.3l0,-192.01l-232.307,0c-17.998,0.036 -39.033,8.837 -49.972,20.587c-17.293,18.569 -21.072,47.707 -21.072,75.424c0,27.716 3.779,56.842 21.072,75.399c10.939,11.763 31.974,20.564 49.972,20.6l232.307,0ZM935.745,2180.46c-3.32,0.764 -5.624,1.6 -6.878,2.519c-1.374,1.015 -2.03,2.269 -1.995,3.762c0,1.098 0.359,1.958 1.051,2.603c0.669,0.621 1.553,0.92 2.663,0.92c1.589,0 3.272,-0.92 5.052,-2.795l0.107,-7.009ZM1469.51,2180.46c-3.32,0.764 -5.613,1.6 -6.89,2.519c-1.362,1.015 -2.018,2.269 -1.971,3.762c0,1.098 0.335,1.958 1.051,2.603c0.657,0.621 1.529,0.92 2.663,0.92c1.588,0 3.26,-0.92 5.028,-2.795l0.119,-7.009ZM1165.39,2180.46c-3.32,0.764 -5.625,1.6 -6.89,2.519c-1.362,1.015 -2.018,2.269 -1.983,3.762c0,1.098 0.347,1.958 1.051,2.603c0.657,0.621 1.553,0.92 2.663,0.92c1.588,0 3.272,-0.92 5.052,-2.795l0.107,-7.009ZM1103.66,2180.46c-3.332,0.764 -5.625,1.6 -6.891,2.519c-1.361,1.015 -2.03,2.269 -1.982,3.762c0,1.098 0.346,1.958 1.051,2.603c0.657,0.621 1.54,0.92 2.663,0.92c1.588,0 3.272,-0.92 5.039,-2.795l0.12,-7.009ZM1399.58,2180.15c0,0.92 0.131,1.911 0.394,3.009c0.227,1.111 0.597,2.174 1.098,3.213c0.502,1.027 1.207,1.863 2.162,2.507c0.896,0.717 1.97,1.087 3.224,1.087c1.302,0 2.4,-0.322 3.332,-0.967c0.884,-0.645 1.576,-1.445 2.09,-2.389c0.573,-0.991 0.979,-2.065 1.23,-3.224c0.179,-1.122 0.286,-2.197 0.286,-3.236c0,-3.188 -0.549,-5.684 -1.612,-7.523c-1.182,-1.827 -2.949,-2.759 -5.326,-2.759c-1.254,0 -2.328,0.347 -3.224,0.979c-0.955,0.669 -1.66,1.529 -2.162,2.568c-1.027,2.221 -1.54,4.466 -1.492,6.735ZM3449.03,2184.67l-675.552,0c-25.532,-24.255 -41.324,-57.762 -41.324,-94.774c0,-37.013 15.792,-70.52 41.324,-94.775l675.552,0c25.53,24.255 41.325,57.763 41.325,94.775c0,37.012 -15.794,70.518 -41.325,94.774ZM2534.38,2165.95c-3.344,0 -6.186,2.83 -6.186,6.186c0,3.343 2.711,6.173 6.186,6.173c3.343,0 6.054,-2.698 6.054,-6.173c0,-3.487 -2.711,-6.186 -6.054,-6.186ZM2460.6,2175.87l-7.475,0l-1.29,-12.359l-3.989,4c-4.896,4.884 -10.043,7.595 -17.255,9.136c-5.541,1.289 -8.371,1.289 -12.24,0.644c-13.65,-3.092 -20.6,-11.464 -20.468,-24.599c0,-8.109 2.185,-13.387 7.857,-19.059c6.95,-6.95 23.692,-12.36 38.5,-12.36l6.568,0l0,-4.896c0,-10.819 -4.502,-18.283 -12.873,-21.507c-6.449,-2.448 -17.65,-1.672 -25.508,1.935l-5.923,2.699l-1.027,-2.568c-1.54,-4.12 -1.289,-4.514 4.383,-7.081c10.688,-4.896 24.719,-5.673 33.735,-1.935c4.514,1.935 9.912,7.082 12.36,11.715c3.355,6.568 4.12,14.557 4.382,45.593l0.263,30.642ZM2250.3,2176.64c7.595,-1.541 12.622,-4.383 17.9,-9.781l4.502,-4.776l-0.119,13.912l20.862,0.262l-0.514,-124.408l-22.414,-5.791l-0.776,48.554l-4.12,-3.606c-2.448,-2.066 -6.568,-4.251 -10.174,-5.278c-20.337,-5.672 -39.921,5.278 -47.648,26.654c-3.093,8.502 -3.343,28.206 -0.513,36.565c4.896,14.425 15.321,24.731 28.206,27.693c5.41,1.421 8.502,1.421 14.808,0ZM2485.96,2086.89l0,-15.966l3.989,-1.158c2.197,-0.645 4.251,-1.159 4.645,-1.159c0.382,0 0.645,4.12 0.645,9.267l0,9.279l24.719,0l0,7.201l-24.719,0l0,32.588c0,27.944 0.251,32.959 1.672,36.052c2.448,5.159 6.568,6.962 14.425,6.186l6.437,-0.645l0.645,3.224c0.25,1.804 0.382,3.476 0.25,3.607c-0.131,0.251 -2.83,0.895 -5.791,1.409c-6.831,1.29 -7.727,1.29 -13.399,-0.776c-5.409,-1.672 -7.845,-3.857 -10.807,-9.267c-2.197,-3.988 -2.329,-5.66 -2.579,-38.38l-0.263,-34.249l-15.453,0l0.383,-3.344l0.262,-3.355l14.939,-0.514ZM2534.38,2167.24c2.71,0 4.896,2.185 4.896,4.896c0,2.698 -2.186,4.896 -4.896,4.896c-2.699,0 -4.896,-2.198 -4.896,-4.896c0,-2.711 2.197,-4.896 4.896,-4.896ZM2135.68,2137.24l0.513,4.001c0.776,6.054 5.541,11.977 11.99,15.321c4.884,2.579 6.687,2.83 15.834,2.83c6.055,0 13.005,-0.633 16.874,-1.672c3.606,-0.896 6.687,-1.54 6.818,-1.29c0.132,0.263 0.908,3.738 1.804,7.858l1.552,7.475l-6.831,2.186c-10.043,3.224 -33.09,3.738 -41.855,1.027c-7.464,-2.448 -15.07,-7.726 -19.704,-13.518c-9.267,-11.715 -11.715,-33.747 -5.409,-49.582c6.568,-16.873 19.572,-26.403 37.604,-27.43c18.163,-1.027 30.785,6.831 37.604,23.561c1.803,4.514 2.197,7.738 2.317,17.387l0.131,11.846l-59.242,0ZM2080.56,2176.64l-22.916,0l0,-90.53l19.059,0l0.645,4.765c0.262,2.567 0.645,6.436 0.645,8.49l0,3.738l1.289,-3.093c3.726,-8.622 12.623,-14.808 22.271,-15.703l6.186,-0.514l0,21.758l-5.541,0c-6.687,0 -10.425,1.29 -14.294,5.027c-6.174,5.923 -6.305,6.568 -6.819,36.828l-0.525,29.234ZM1987.58,2164.15c-3.343,0 -6.185,2.83 -6.185,6.185c0,3.344 2.71,6.174 6.185,6.174c3.344,0 6.055,-2.699 6.055,-6.174c0.131,-3.355 -2.58,-6.185 -6.055,-6.185ZM2321.77,2175.87l-8.884,0l0,-118.855l8.753,2.185l0.514,41.856c12.359,-16.36 46.106,-27.048 57.69,5.41c2.066,5.791 2.066,9.529 2.066,37.855l0,31.299l-8.24,0l0,-26.021c0,-30.26 -0.908,-38.249 -5.028,-45.582c-4.119,-7.212 -11.464,-11.081 -20.217,-10.568c-7.344,0.526 -13.004,3.093 -18.163,8.252c-7.595,7.595 -7.595,7.201 -8.108,42.106l-0.383,32.063ZM1269.03,2175.74c-0.048,-1.744 -0.466,-3.249 -1.278,-4.55c-0.86,-1.29 -2.209,-1.947 -4.06,-1.983c-1.636,0.036 -3.01,0.729 -4.132,2.102c-1.111,1.362 -1.767,2.83 -1.959,4.431l11.429,0ZM909.963,2175.74c-0.036,-1.744 -0.466,-3.249 -1.278,-4.55c-0.848,-1.29 -2.197,-1.947 -4.048,-1.983c-1.636,0.036 -3.009,0.729 -4.132,2.102c-1.122,1.362 -1.767,2.83 -1.958,4.431l11.416,0ZM1521.38,2175.74c-0.048,-1.744 -0.466,-3.249 -1.278,-4.55c-0.848,-1.29 -2.197,-1.947 -4.06,-1.983c-1.636,0.036 -3.01,0.729 -4.132,2.102c-1.111,1.362 -1.755,2.83 -1.947,4.431l11.417,0ZM1045.95,2175.74c-0.048,-1.744 -0.466,-3.249 -1.278,-4.55c-0.86,-1.29 -2.209,-1.947 -4.06,-1.983c-1.636,0.036 -3.01,0.729 -4.132,2.102c-1.111,1.362 -1.756,2.83 -1.959,4.431l11.429,0ZM1987.58,2165.44c2.699,0 4.896,2.186 4.896,4.896c0,2.699 -2.197,4.897 -4.896,4.897c-2.699,0 -4.896,-2.198 -4.896,-4.897c0.132,-2.71 2.317,-4.896 4.896,-4.896ZM2532.59,2174.72l-0.776,0l0,-5.672l2.58,0c0.513,0 0.895,0 1.158,0.131c0.251,0.131 0.513,0.251 0.645,0.514c0.119,0.262 0.251,0.513 0.251,0.895c0,0.394 -0.132,0.776 -0.383,1.039c-0.262,0.251 -0.644,0.514 -1.289,0.514c0.262,0.131 0.382,0.25 0.513,0.25c0.263,0.263 0.394,0.526 0.645,0.777l1.027,1.552l-1.027,0l-0.776,-1.29c-0.251,-0.394 -0.382,-0.645 -0.514,-0.776c-0.119,-0.131 -0.25,-0.263 -0.382,-0.382c-0.131,-0.131 -0.262,-0.131 -0.382,-0.131l-1.29,0l0,2.579ZM1878,2172.52c-1.803,-1.159 -4.502,-2.066 -5.923,-2.066c-2.962,0 -4.383,-2.448 -2.448,-4.634c1.54,-1.934 6.95,-1.934 10.305,0c3.607,2.066 6.568,1.935 8.754,-0.513c2.448,-2.83 3.606,-2.579 3.606,0.645c0,3.344 -5.147,8.622 -8.371,8.622c-1.409,0 -4.12,-0.896 -5.923,-2.054ZM1985.79,2173.04l-0.776,0l0,-5.66l2.579,0c0.514,0 0.896,0 1.159,0.131c0.25,0.132 0.513,0.251 0.644,0.514c0.12,0.262 0.251,0.513 0.251,0.895c0,0.394 -0.131,0.777 -0.382,1.039c-0.263,0.251 -0.645,0.514 -1.29,0.514c0.263,0.131 0.382,0.251 0.514,0.251c0.095,0.107 0.179,0.203 0.251,0.298l0.143,0.191c0.072,0.096 0.155,0.191 0.251,0.287l1.027,1.54l-1.027,0l-0.777,-1.278c-0.25,-0.394 -0.382,-0.644 -0.513,-0.776c-0.131,-0.131 -0.251,-0.262 -0.382,-0.382c-0.131,-0.131 -0.263,-0.131 -0.394,-0.131l-1.278,0l0,2.567ZM2534.64,2169.82l-1.803,0l0,1.934l1.421,0c0.382,0 0.645,0 0.896,-0.131c0.263,-0.131 0.382,-0.131 0.513,-0.382c0.132,-0.131 0.132,-0.394 0.132,-0.525c0,-0.251 -0.132,-0.514 -0.263,-0.633c-0.251,-0.132 -0.514,-0.263 -0.896,-0.263ZM1987.72,2168.01l-1.804,0l0,1.934l1.553,0c0.382,0 0.633,0 0.764,-0.131c0.263,-0.131 0.382,-0.131 0.514,-0.382c0.131,-0.131 0.131,-0.394 0.131,-0.526c0,-0.25 -0.131,-0.513 -0.263,-0.632c-0.251,-0.132 -0.513,-0.263 -0.895,-0.263ZM2415.91,2167.76c-5.66,-3.093 -7.594,-6.568 -8.108,-14.163c-0.525,-8.12 0.764,-11.595 6.043,-16.36c5.027,-4.633 14.688,-7.595 27.31,-8.49l9.78,-0.645l0,11.846c0,11.464 -0.119,11.977 -3.343,17.387c-4.765,7.977 -10.819,11.452 -20.612,12.097c-5.923,0.263 -8.108,0 -11.07,-1.672ZM1321.01,2160.75l-7.034,0l0.048,-7.034l7.057,0l-0.071,7.034ZM2243.34,2158.1c-5.279,-1.803 -8.24,-4.502 -11.333,-10.305c-2.579,-4.634 -3.093,-6.95 -3.344,-14.939c-0.513,-11.07 1.159,-17.387 6.043,-23.311c9.41,-11.452 26.271,-9.648 32.971,3.487c2.83,5.661 2.961,28.195 0.131,34.512c-4.251,9.267 -15.07,13.9 -24.468,10.556ZM296.941,2072.17l-32.499,0c-1.573,-8.634 -8.499,-9.243 -15.438,-9.243c-18.938,0 -19.743,2.34 -19.743,9.672c0,6.15 1.097,10.067 19.731,10.485c37.535,0.836 53.205,2.986 53.205,33.007c0,31.526 -24.121,36.362 -53.193,36.362c-7.122,0 -14.048,0.048 -20.438,-0.453c-21.073,-1.66 -32.486,-9.542 -32.742,-33.604l34.498,0c0.415,12.204 9.634,12.419 18.682,12.419c16.28,0 19.755,-1.027 19.755,-10.509c0,-5.648 -1.659,-8.777 -5.232,-10.341c-3.84,-1.672 -10.389,-1.433 -14.523,-1.433c-45.669,0 -53.18,-10.186 -53.18,-31.956c0,-34.631 22.34,-35.323 53.18,-35.323c20.56,0 47.937,0.37 47.937,26.486l0,4.431ZM172.972,2116.08c-0.17,15.894 -5.512,24.779 -14.487,29.986c-9.256,5.134 -22.499,6.388 -38.474,6.388c-42.985,0 -53.205,-14.664 -53.205,-55.481c0,-42.082 9.39,-55.719 53.205,-55.719c40.914,0 52.961,11.153 52.961,55.719l0,5.255l-71.667,0l0,0.836c0,19.465 3.048,25.841 18.706,25.841c10.841,0 18.744,-1.194 19.097,-12.825l33.864,0ZM457.285,2101.08l0,-4.896c0,-44.363 -11.906,-55.373 -52.627,-55.373c-43.588,0 -52.844,13.434 -52.844,55.373c0,40.662 10.086,55.135 52.844,55.135c15.978,0 29.15,-1.266 38.309,-6.353c8.765,-5.087 14.056,-13.781 14.318,-29.329l-33.186,0c-0.501,11.655 -8.705,12.837 -19.441,12.837c-15.966,0 -19.035,-6.675 -19.035,-26.199l0,-1.195l71.662,0ZM538.548,2151.24l0,-85.168l25.185,0l0,-24.814l-84.893,0l0,24.814l25.209,0l0,85.168l34.499,0ZM3294.63,2084.62c0.882,0 1.468,0.558 1.468,1.394l0,7.808c0,8.364 -0.733,16.171 -2.495,21.329c-4.988,15.197 -18.784,23.703 -36.394,23.703c-17.76,0 -31.555,-7.668 -36.693,-23.006c-2.202,-6.552 -2.786,-11.851 -2.786,-25.93c0,-14.081 0.584,-19.379 2.786,-25.932c5.138,-15.337 18.933,-23.004 36.693,-23.004c18.637,0 30.817,8.784 35.512,20.216c0.442,0.836 0.295,1.673 -0.586,2.091l-15.705,6.274c-1.024,0.279 -1.76,0 -2.053,-0.698c-3.962,-6.413 -8.95,-9.759 -17.168,-9.759c-8.515,0 -13.798,4.043 -16,10.596c-1.174,3.346 -1.611,7.808 -1.611,20.216c0,12.407 0.437,17.008 1.611,20.355c2.202,6.551 7.633,10.456 16.291,10.456c7.485,0 13.942,-3.485 15.996,-9.759c0.735,-2.371 1.174,-5.299 1.174,-9.341c0,-0.558 -0.293,-0.836 -0.879,-0.836l-13.501,0c-0.881,0 -1.47,-0.558 -1.47,-1.396l0,-13.383c0,-0.836 0.589,-1.394 1.47,-1.394l34.34,0ZM2918.85,2040.98c-17.464,0 -31.259,7.669 -36.395,23.004c-2.202,6.552 -2.789,11.852 -2.789,25.932c0,14.082 0.587,19.38 2.789,25.932c5.136,15.336 18.931,23.004 36.395,23.004c17.464,0 31.258,-7.668 36.396,-23.004c2.201,-6.552 2.788,-11.85 2.788,-25.932c0,-14.08 -0.587,-19.38 -2.788,-25.932c-5.138,-15.335 -18.932,-23.004 -36.396,-23.004ZM2839.69,2080.29l-5.285,-0.698c-11.448,-1.532 -15.558,-5.018 -15.558,-10.456c0,-5.995 4.552,-10.318 13.356,-10.318c8.219,0 15.558,2.512 23.189,7.25c0.735,0.419 1.467,0.279 2.053,-0.416l8.953,-12.688c0.734,-0.977 0.587,-1.533 -0.294,-2.092c-8.364,-6.135 -20.692,-9.898 -33.901,-9.898c-21.573,0 -35.368,11.571 -35.368,28.998c0,16.73 11.301,25.792 31.554,28.442l5.284,0.697c11.887,1.533 15.409,5.019 15.409,10.595c0,6.694 -5.872,11.294 -16.292,11.294c-10.565,0 -19.518,-4.742 -26.12,-9.76c-0.736,-0.558 -1.615,-0.558 -2.202,0.14l-11.155,12.128c-0.733,0.838 -0.441,1.814 0.148,2.372c7.777,7.108 22.892,12.965 38.45,12.965c25.829,0 39.183,-12.688 39.183,-29.837c0,-17.146 -10.86,-26.07 -31.404,-28.718ZM3394.56,2080.29l-5.285,-0.698c-11.446,-1.532 -15.556,-5.018 -15.556,-10.456c0,-5.995 4.549,-10.318 13.356,-10.318c8.218,0 15.555,2.512 23.186,7.25c0.736,0.419 1.469,0.279 2.055,-0.416l8.952,-12.688c0.735,-0.977 0.587,-1.533 -0.293,-2.092c-8.364,-6.135 -20.692,-9.898 -33.9,-9.898c-21.574,0 -35.37,11.571 -35.37,28.998c0,16.73 11.301,25.792 31.554,28.442l5.283,0.697c11.889,1.533 15.409,5.019 15.409,10.595c0,6.694 -5.87,11.294 -16.29,11.294c-10.565,0 -19.519,-4.742 -26.12,-9.76c-0.738,-0.558 -1.616,-0.558 -2.202,0.14l-11.154,12.128c-0.735,0.838 -0.442,1.814 0.145,2.372c7.779,7.108 22.894,12.965 38.452,12.965c25.829,0 39.183,-12.688 39.183,-29.837c0,-17.146 -10.861,-26.07 -31.405,-28.718ZM1919.98,2137.1c22.928,-3.475 38.894,-12.873 45.461,-26.785c5.661,-11.978 3.213,-22.928 -6.962,-30.655c-4.884,-3.725 -17.255,-9.004 -20.862,-9.004c-1.027,0 -2.698,1.923 -4.119,4.371c-2.054,3.869 -7.727,9.016 -9.781,9.016c-0.394,0 0.645,-2.579 2.448,-5.792c1.804,-3.475 3.093,-7.344 3.093,-9.529c0,-9.924 -10.699,-39.157 -19.453,-52.675c-3.988,-6.186 -6.054,-8.239 -10.425,-10.688c-7.726,-4.251 -17.005,-4.764 -29.114,-1.671c-7.212,1.803 -10.556,2.185 -17.506,1.671c-28.075,-2.065 -26.916,-2.065 -31.55,0.383c-5.923,2.961 -7.726,6.568 -11.464,21.638c-3.988,16.36 -3.988,21.507 -0.513,25.758c3.606,4.383 15.452,9.78 27.167,12.491c14.043,3.212 23.692,6.054 26.272,7.858c1.289,0.764 2.83,2.961 3.606,4.764c2.961,7.858 4.514,11.07 6.305,12.742c1.039,0.908 1.935,2.329 1.935,2.962c0,7.475 -53.188,-9.136 -66.969,-20.862c-5.923,-5.016 -7.595,-8.754 -6.95,-15.059l0.645,-5.027l-13.65,0.382c-11.464,0.394 -14.425,0.776 -18.545,2.842c-14.163,6.819 -13.518,18.283 1.935,33.09c22.665,21.507 69.022,42.501 105.85,47.91c13.017,1.541 31.299,1.672 43.146,-0.131ZM3084.09,2042.51l-18.491,0c-1.027,0 -1.616,0.557 -1.906,1.394l-34.343,92.015c-0.293,0.837 0,1.395 1.028,1.395l19.225,0c1.026,0 1.614,-0.42 1.907,-1.395l5.576,-16.59l34.928,0l5.723,16.59c0.294,0.976 0.882,1.395 1.91,1.395l19.077,0c1.027,0 1.322,-0.558 1.026,-1.395l-33.751,-92.015c-0.296,-0.837 -0.881,-1.394 -1.909,-1.394ZM3171.56,2042.51l-39.77,0c-0.882,0 -1.47,0.557 -1.47,1.394l0,92.015c0,0.837 0.589,1.395 1.47,1.395l18.638,0c0.881,-0.001 1.465,-0.558 1.465,-1.395l0,-33.878c0,-0.557 0.296,-0.837 0.881,-0.838l13.356,0l17.171,34.716c0.438,0.976 0.88,1.395 2.201,1.395l20.839,0c1.027,-0.001 1.466,-0.837 1.027,-1.674l-19.666,-37.364c11.008,-4.6 17.758,-14.221 17.758,-26.349c0,-17.288 -13.502,-29.417 -33.9,-29.417ZM3332.64,2042.51l-18.639,0c-0.882,0 -1.466,0.557 -1.466,1.393l0,92.017c0,0.836 0.585,1.394 1.466,1.394l18.639,0c0.882,-0.001 1.467,-0.559 1.467,-1.394l0,-92.017c0,-0.836 -0.585,-1.393 -1.467,-1.393ZM2989.98,2042.51l-18.635,0c-0.812,0.001 -1.469,0.625 -1.469,1.395l0,92.017c0,0.768 0.657,1.392 1.466,1.392l45.783,0c0.626,-0.001 1.185,-0.373 1.395,-0.932l5.809,-15.453c0.345,-0.914 -0.368,-1.878 -1.395,-1.878l-30.605,0c-0.485,-0.001 -0.879,-0.375 -0.879,-0.836l0,-74.309c0,-0.771 -0.658,-1.395 -1.47,-1.396ZM2173.93,2121.01l0,-3.606c0,-2.054 -0.896,-5.409 -2.066,-7.595c-5.66,-10.95 -18.534,-13.518 -28.063,-5.409c-3.356,2.83 -8.12,11.595 -8.12,14.939c0,1.671 1.671,1.803 19.19,1.671l19.059,0ZM2934.55,2110.27c-2.202,6.552 -7.485,10.456 -15.703,10.456c-8.218,0 -13.501,-3.904 -15.703,-10.456c-1.175,-3.346 -1.613,-7.948 -1.613,-20.356c0,-12.407 0.438,-17.008 1.613,-20.354c2.202,-6.552 7.485,-10.456 15.703,-10.456c8.218,0 13.501,3.904 15.703,10.456c1.176,3.346 1.615,7.947 1.615,20.354c0,12.408 -0.439,17.01 -1.615,20.356ZM3086.15,2101.9l-23.041,0l11.302,-33.181l0.439,0l11.3,33.181ZM1107.48,2009.48l-17.578,0c0,-7.058 -1.588,-15.238 -11.357,-20.719c-8.216,-4.705 -14.079,-4.311 -21.112,-4.311c-28.553,0 -33.234,23.071 -18.785,30.905c4.311,2.723 10.175,3.893 18.378,5.852c10.963,1.958 21.125,4.311 31.682,7.045c13.697,3.511 25.435,15.25 25.806,28.159c0.788,25.794 -19.143,38.296 -52.783,38.296c-11.726,0 -30.498,-2.71 -41.855,-15.225c-8.586,-9.386 -11.715,-19.178 -11.715,-28.947l18.773,0c0,7.822 4.299,23.466 23.859,28.159c3.893,1.17 9.768,1.564 16.026,1.17c6.651,-0.382 15.249,-1.946 19.942,-5.075c8.61,-5.875 14.856,-19.943 -0.788,-29.735c-7.428,-4.693 -19.548,-6.233 -28.54,-8.216c-16.814,-3.893 -18.379,-4.287 -25.412,-6.233c-5.482,-1.971 -17.996,-7.058 -19.573,-22.307c-1.934,-18.773 14.486,-37.915 44.985,-37.915c10.556,0 23.071,1.946 30.498,6.233c17.208,9.78 19.549,24.647 19.549,32.864ZM862.674,2090.82l-19.166,0l0,-46.166l-29.711,-12.503l29.711,-12.503l0,-47.325l19.166,0l0,39.886l97.766,-41.068l0,17.614l-97.766,41.044l0,4.693l97.766,41.079l0,17.984l-97.766,-41.079l0,38.344ZM994.068,2090.82l-19.154,0l0,-118.497l19.154,0l0,118.497ZM1207.99,1987.97l-41.056,0l0,102.853l-18.378,0l0,-102.853l-41.867,0l0,-15.644l101.301,0l0,15.644ZM1236.14,2074.79l65.321,0l0,16.037l-84.081,0l0,-118.497l18.76,0l0,102.46ZM1406.27,1987.97l-76.259,0l0,33.628l71.172,0l0,15.643l-71.172,0l0,37.545l76.641,0l0,16.037l-95.414,0l0,-118.497l95.032,0l0,15.644ZM1442.25,2090.82l-19.178,0l0,-118.497l60.616,0c20.348,0 40.291,3.511 43.014,30.093c2.352,19.967 -16.42,32.076 -23.454,32.076c3.523,0 17.602,4.323 17.602,28.182c0,21.383 7.352,28.085 7.428,28.146l-20.731,0c0,0 -2.34,-3.534 -3.905,-10.962c-3.14,-13.685 3.511,-38.308 -22.689,-38.309l-38.703,0l0,49.271ZM138.486,2083.91l0,-0.812c0,-17.052 -6.694,-18.282 -19.109,-18.282c-14.706,0 -17.67,4.525 -18.084,19.094l37.193,0ZM3170.39,2083.78l-17.612,0c-0.584,0 -0.881,-0.278 -0.881,-0.836l0,-21.89c0,-0.557 0.296,-0.835 0.881,-0.835l17.612,0c8.219,0 13.502,4.601 13.502,11.711c0,7.25 -5.283,11.849 -13.502,11.85ZM423.49,2083.49l-37.926,0c0.43,-14.891 3.272,-19.799 18.462,-19.799c12.502,0 19.464,1.302 19.464,18.617l0,1.182ZM1823.78,2037.56c-3.738,-3.738 -5.016,-5.923 -5.016,-8.108c0,-5.159 3.726,-7.858 6.687,-4.896c4.514,4.37 6.186,4.896 16.361,4.12c10.687,-0.645 16.742,0.513 17.9,3.475c1.027,2.71 -0.776,3.475 -9.923,4.502c-9.781,1.039 -14.545,2.448 -16.349,4.514c-2.065,2.579 -4.382,1.803 -9.66,-3.607ZM1442.25,1987.97l0,37.951l40.662,0c10.556,0 24.241,-3.535 24.635,-17.626c1.553,-21.125 -14.854,-20.325 -25.029,-20.325l-40.268,0ZM1881.6,2021.33c-4.765,-0.382 -5.027,-1.671 -0.645,-2.83c3.989,-1.158 6.186,-4.12 3.989,-5.541c-2.317,-1.421 -10.175,-2.316 -13.65,-1.54c-2.054,0.513 -2.961,0.382 -2.448,-0.394c1.039,-1.803 11.978,-3.607 18.164,-2.962c6.436,0.645 11.714,2.842 12.741,5.541c1.816,4.502 -7.845,8.622 -18.151,7.726ZM609.291,1979.56c0,3.463 -1.23,6.413 -3.678,8.861c-2.46,2.484 -5.422,3.702 -8.885,3.702c-3.463,0 -6.413,-1.218 -8.861,-3.702c-2.46,-2.448 -3.69,-5.398 -3.69,-8.861c0,-3.451 1.23,-6.401 3.69,-8.861c2.448,-2.472 5.398,-3.69 8.861,-3.69c3.463,0 6.425,1.218 8.885,3.69c2.448,2.46 3.678,5.41 3.678,8.861ZM606.52,1979.56c0,-2.711 -0.967,-5.027 -2.866,-6.95c-1.922,-1.946 -4.215,-2.926 -6.926,-2.926c-2.687,0 -5.015,0.98 -6.914,2.926c-1.911,1.923 -2.866,4.239 -2.866,6.95c0,2.723 0.955,5.028 2.866,6.962c1.899,1.935 4.227,2.926 6.914,2.926c2.711,0 5.004,-0.991 6.926,-2.926c1.899,-1.934 2.866,-4.239 2.866,-6.962ZM594.805,1985.53l-3.092,0l0,-12.527l4.764,0c0.872,0 1.6,0.036 2.138,0.108c0.537,0.071 1.063,0.25 1.576,0.525c0.561,0.322 0.991,0.717 1.254,1.158c0.275,0.454 0.394,1.027 0.394,1.684c0,0.932 -0.239,1.672 -0.764,2.257c-0.514,0.597 -1.194,1.063 -2.018,1.385l4.717,5.41l-3.941,0l-3.786,-4.61l-1.242,0l0,4.61ZM595.797,1975.18l-0.992,0l0,3.511l0.753,0c0.525,0 0.955,-0.035 1.325,-0.107c0.382,-0.072 0.681,-0.179 0.896,-0.37c0.227,-0.156 0.394,-0.359 0.489,-0.609c0.108,-0.227 0.168,-0.538 0.168,-0.872c0,-0.263 -0.06,-0.502 -0.168,-0.729c-0.119,-0.203 -0.298,-0.382 -0.573,-0.513c-0.239,-0.131 -0.525,-0.215 -0.824,-0.251c-0.322,-0.036 -0.692,-0.06 -1.074,-0.06ZM1566.03,1859.99c-63.465,-1.26 -125.249,-19.754 -175.685,-52.537c-17.232,-11.348 -29.421,-21.435 -44.131,-35.725c-13.87,-13.87 -22.276,-24.378 -31.943,-39.088c-30.682,-46.233 -42.871,-99.191 -34.885,-152.148c10.507,-69.77 55.9,-132.815 126.09,-173.163c62.204,-36.566 141.22,-50.857 216.874,-39.929c81.958,11.769 154.25,52.117 198.801,111.379c4.624,5.885 5.464,7.566 5.464,13.45c0,5.464 -0.84,8.406 -4.623,12.189c-5.044,5.884 -13.45,7.565 -20.595,4.203c-3.362,-1.682 -4.623,-2.943 -9.667,-9.247c-22.275,-29.001 -51.276,-52.117 -86.161,-69.349c-32.363,-15.972 -66.407,-25.218 -105.495,-29.001c-9.667,-0.841 -35.725,-1.261 -46.653,-0.841c-42.45,2.943 -81.118,13.03 -117.264,31.103c-47.073,23.957 -83.219,58.841 -103.813,100.871c-10.508,20.595 -16.812,42.03 -18.914,65.147c-0.42,7.145 -0.42,23.536 0.42,31.102c2.943,30.261 13.03,58.001 30.682,84.9c35.305,52.958 97.93,92.046 169.381,105.075c91.625,17.232 186.192,-7.145 249.657,-63.465c10.087,-9.247 21.436,-21.436 28.581,-31.102c2.942,-3.783 5.884,-6.725 8.406,-7.986c10.927,-5.464 23.957,1.261 25.638,13.87c0.84,3.782 0,6.725 -1.261,10.087c-3.783,7.145 -23.537,29.421 -37.407,41.61c-58.001,51.696 -137.017,79.856 -221.497,78.595ZM2990.88,1729.56l-12.242,46.217l-4.203,1.5l-11.394,-40.398l-10.148,38.898l-4.224,1.483l-13.058,-46.439l5.237,-1.923l10.487,37.84l9.946,-35.917l5.341,-1.934l10.476,37.91l10.586,-37.911l3.196,0.674ZM3192.35,1752.48c0,6.331 -1.707,11.894 -5.117,16.691c-3.859,5.392 -8.855,8.088 -14.986,8.087c-6.134,0.001 -11.127,-2.695 -14.986,-8.087c-3.413,-4.798 -5.118,-10.361 -5.118,-16.691c0,-6.282 1.751,-11.698 5.257,-16.248c3.801,-4.946 8.736,-7.419 14.809,-7.419c6.122,0 11.084,2.473 14.885,7.419c3.505,4.55 5.256,9.966 5.256,16.248ZM2865.03,1752.48c0,6.331 -1.705,11.894 -5.118,16.691c-3.858,5.392 -8.852,8.088 -14.986,8.087c-6.133,0.001 -11.127,-2.695 -14.985,-8.087c-3.41,-4.798 -5.118,-10.361 -5.118,-16.691c0,-6.282 1.751,-11.698 5.256,-16.248c3.801,-4.946 8.74,-7.419 14.81,-7.419c6.122,0 11.084,2.473 14.884,7.419c3.506,4.55 5.257,9.966 5.257,16.248ZM3232.47,1760.72c0,4.846 -1.621,8.815 -4.86,11.906c-3.242,3.092 -7.309,4.637 -12.204,4.636c-4.75,0.001 -8.719,-1.532 -11.909,-4.599c-3.193,-3.066 -4.788,-7.024 -4.788,-11.871l0,-30.047l5.561,-1.856l0,31.01c0,8.655 3.861,12.958 11.582,12.908c3.861,0 6.892,-1.187 9.095,-3.561c2.2,-2.373 3.303,-5.537 3.303,-9.494l0,-29.893l4.22,0l0,30.861ZM3448.3,1752.48c0,6.331 -1.708,11.894 -5.121,16.691c-3.855,5.392 -8.852,8.088 -14.986,8.087c-6.131,0.001 -11.124,-2.695 -14.982,-8.087c-3.413,-4.798 -5.118,-10.361 -5.118,-16.691c0,-6.282 1.751,-11.698 5.256,-16.248c3.801,-4.946 8.737,-7.419 14.81,-7.419c6.119,0 11.083,2.473 14.884,7.419c3.503,4.55 5.257,9.966 5.257,16.248ZM3318.6,1753.97c0,6.081 -1.681,11.373 -5.042,15.873c-3.61,4.846 -8.134,7.27 -13.573,7.27c-5.095,0 -10.016,-1.93 -14.763,-5.788l0,-41.553l14.986,0.09c5.983,0.05 10.655,2.622 14.019,7.715c2.914,4.5 4.373,9.963 4.373,16.393ZM2820.37,1763.09c0,4.501 -2.154,8.211 -6.464,11.129l0,0.074c-2.967,1.88 -6.429,2.82 -10.386,2.82c-2.62,0 -5.315,-0.593 -8.085,-1.781c-2.573,-1.04 -4.698,-2.352 -6.38,-3.935l2.301,-3.785c3.908,3.268 7.99,4.877 12.245,4.829c2.921,-0.051 5.245,-0.693 6.979,-1.927c2.324,-1.729 3.488,-3.928 3.488,-6.595c0,-2.025 -0.645,-3.668 -1.934,-4.928c-1.291,-1.259 -3.372,-2.358 -6.246,-3.297l-4.667,-1.586c-4.058,-1.336 -6.854,-2.819 -8.388,-4.451c-1.83,-1.929 -2.747,-4.426 -2.747,-7.493c0,-3.956 1.374,-7.17 4.119,-9.643c2.747,-2.473 6.371,-3.709 10.869,-3.709c4.009,0 7.943,1.411 11.799,4.23l-2.298,3.562c-3.017,-2.224 -6.085,-3.337 -9.2,-3.337c-2.871,0 -5.12,0.692 -6.753,2.077c-1.633,1.385 -2.472,3.264 -2.521,5.638c-0.05,3.164 2.622,5.612 8.012,7.343l5.269,1.706c3.76,1.236 6.533,2.893 8.316,4.971c1.78,2.077 2.672,4.773 2.672,8.088ZM3244.78,1776.59l-3.786,0l0,-46.217l4.295,-1.484l27.309,39.922l0,-38.954l3.714,0l0,46.733l-5.347,0l-26.185,-38.279l0,38.279ZM3359.78,1776.59l-5.711,0l-5.039,-14.542l-18.034,0l-5.35,14.542l-4.07,0l16.914,-45.991l5.268,-1.712l16.022,47.703ZM3029.1,1776.59l-5.714,0l-5.037,-14.542l-18.033,0l-5.35,14.542l-4.073,0l16.917,-45.991l5.265,-1.712l16.025,47.703ZM3376.25,1776.59l-5.488,0l0,-43.103l-13.944,0l1.705,-3.639l31.454,-0.073l0,3.712l-13.727,0l0,43.103ZM3401.39,1776.59l-5.486,0l0,-45.775l5.486,-1.855l0,47.63ZM3458.83,1776.59l-3.786,0l0,-46.217l4.296,-1.484l27.308,39.922l0,-38.954l3.714,0l0,46.733l-5.346,0l-26.186,-38.279l0,38.279ZM2877.12,1776.59l-5.343,0l0,-46.725l25.962,0l-1.928,3.785l-18.691,0l0,15.938l15.649,0l-2.012,3.713l-13.637,0l0,23.289ZM3094.86,1776.59l-25.519,0l0,-46.742l25.965,-0.073l-1.855,3.784l-18.77,0l0,16.029l15.58,0l-1.928,3.713l-13.652,0l0,19.576l20.179,0l0,3.713ZM2918.64,1776.59l-5.486,0l0,-43.103l-13.946,0l1.705,-3.639l31.456,-0.073l0,3.712l-13.729,0l0,43.103ZM3039.72,1776.59l-5.413,0l0,-46.815l14.76,0c3.708,0 6.846,1.225 9.419,3.675c2.571,2.45 3.856,5.432 3.856,8.946c0,3.564 -1.19,6.51 -3.566,8.836c-2.377,2.326 -5.35,3.49 -8.916,3.49l12.717,21.868l-6.534,0l-12.389,-21.877l-3.934,0l0,21.877ZM3130.03,1776.59l-5.344,0l0,-46.725l25.966,0l-1.928,3.785l-18.694,0l0,15.938l15.651,0l-2.011,3.713l-13.64,0l0,23.289ZM3312.45,1754.56c0,-13.992 -5.291,-20.989 -15.874,-20.989l-5.859,0l0,36.49c2.374,2.176 5.095,3.263 8.16,3.263c4.252,0 7.665,-2.052 10.236,-6.156c2.226,-3.609 3.337,-7.812 3.337,-12.608ZM3186.12,1752.48c0.003,-5.047 -1.135,-9.425 -3.41,-13.137c-2.622,-4.255 -6.108,-6.382 -10.461,-6.383c-4.4,0.001 -7.911,2.128 -10.531,6.383c-2.324,3.712 -3.488,8.09 -3.488,13.137c0,5.393 1.187,10.069 3.56,14.027c2.669,4.354 6.131,6.532 10.386,6.532c4.253,0 7.715,-2.178 10.387,-6.532c2.373,-3.958 3.56,-8.634 3.557,-14.027ZM3442.07,1752.48c0.003,-5.047 -1.135,-9.425 -3.413,-13.137c-2.62,-4.255 -6.105,-6.382 -10.459,-6.383c-4.4,0.001 -7.914,2.128 -10.533,6.383c-2.325,3.712 -3.486,8.09 -3.486,13.137c0,5.393 1.187,10.069 3.561,14.027c2.669,4.354 6.131,6.532 10.386,6.532c4.252,0 7.714,-2.178 10.383,-6.532c2.377,-3.958 3.564,-8.634 3.561,-14.027ZM2858.8,1752.48c0,-5.047 -1.138,-9.425 -3.413,-13.137c-2.62,-4.255 -6.108,-6.382 -10.459,-6.383c-4.403,0.001 -7.914,2.128 -10.534,6.383c-2.324,3.712 -3.488,8.09 -3.488,13.137c0,5.393 1.187,10.069 3.561,14.027c2.672,4.354 6.134,6.532 10.386,6.532c4.252,0 7.714,-2.178 10.386,-6.532c2.374,-3.958 3.561,-8.634 3.561,-14.027ZM3347.93,1758.55l-7.433,-22.131l-8.218,22.131l15.651,0ZM3017.25,1758.55l-7.436,-22.131l-8.218,22.131l15.654,0ZM3056.85,1742.24c0,-2.228 -0.84,-4.219 -2.522,-5.976c-1.681,-1.757 -3.658,-2.634 -5.934,-2.634l-8.678,0l0,17.295l8.606,0c2.521,0 4.574,-0.828 6.154,-2.487c1.583,-1.658 2.374,-3.724 2.374,-6.198ZM2664.44,1654.41l0,24.525c0,18.575 -15.976,28.014 -32.18,32.707c-24.372,7.069 -43.909,5.984 -64.28,0c-17.015,-5.007 -32.177,-15.262 -32.177,-32.707l0,-61.274c0,-17.63 14.566,-32.699 32.177,-32.7l64.28,0c21.421,-0.001 40.207,-18.651 40.207,-40.806l0,-28.573l24.154,0c18.729,0 27.555,14.005 32.177,32.626c6.435,25.859 6.716,45.246 0,65.404c-6.504,19.58 -13.477,32.622 -32.177,32.622l-96.461,0l0,8.176l64.28,0ZM2896.85,1583.75c0,17.121 -4.046,31.326 -12.131,42.614c-9.029,12.793 -21.537,19.378 -37.521,19.754c-12.039,0.377 -24.449,-3.386 -37.235,-11.292l0,73.093l-20.329,-7.338l0,-162.263c3.395,-4.14 7.735,-7.715 13.014,-10.725c12.26,-7.147 27.158,-10.818 44.695,-11.006l0.286,0.284c16.028,-0.188 28.38,6.397 37.058,19.753c8.105,12.23 12.163,27.936 12.163,47.126ZM3023.08,1631.73c0.006,22.957 -2.301,38.855 -6.909,47.697c-4.611,8.843 -13.406,15.898 -26.385,21.17c-10.537,4.135 -21.916,6.393 -34.143,6.773l-3.381,-12.986c12.406,-1.693 21.146,-3.386 26.223,-5.079c9.963,-3.387 16.827,-8.561 20.587,-15.526c3.007,-5.644 4.513,-16.466 4.513,-32.462c0.011,-3.575 0.011,-5.362 0,-5.362c-14.106,6.408 -28.866,9.611 -44.286,9.611c-10.158,0 -19.091,-3.198 -26.802,-9.595c-8.65,-6.962 -12.977,-15.804 -12.974,-26.532l0,-85.795l20.876,-7.057l0,86.353c0,9.215 2.962,16.317 8.887,21.307c5.928,4.982 13.594,7.381 23.001,7.197c9.405,-0.192 19.47,-3.861 30.195,-11.01l0,-100.75l20.598,0l0,112.046ZM3479.67,1676.57c5.699,-0.001 10.328,4.626 10.329,10.326c0.001,5.7 -4.626,10.329 -10.326,10.329l-409.077,0.065c-5.7,0.001 -10.328,-4.626 -10.329,-10.326c-0.001,-5.699 4.626,-10.328 10.326,-10.329l409.077,-0.065ZM2636.31,1670.76c6.672,0 12.077,5.467 12.077,12.226c0,6.783 -5.405,12.301 -12.077,12.301c-6.649,0 -12.074,-5.518 -12.074,-12.301c0,-6.759 5.425,-12.226 12.074,-12.226ZM545.722,1539.17c-40.185,0 -72.762,32.577 -72.762,72.761c0,40.195 32.577,72.772 72.762,72.772c40.186,0 72.762,-32.577 72.762,-72.772c0,-40.184 -32.576,-72.761 -72.762,-72.761ZM363.794,1684.7l-29.106,0l0,-145.533l65.51,0c32.148,0 58.211,26.057 58.211,58.216c0,32.146 -26.062,58.203 -58.211,58.203l-21.852,0l14.553,-29.102l7.299,0c16.076,0 29.106,-13.028 29.106,-29.101c0,-16.074 -13.031,-29.114 -29.106,-29.114l-36.404,0l0,116.431ZM669.419,1684.69l-29.105,0l0,-145.521l36.402,0l80.019,106.711l0,-106.711l29.106,0l0,145.533l-36.391,0l-80.031,-106.746l0,106.734ZM931.395,1568.27l-87.341,0l0,29.114l65.512,0l0,29.101l-65.512,0l0,29.102l87.341,0l0,29.102l-116.45,0l0,-145.521l116.45,0l0,29.102ZM312.869,1684.69l-36.379,0l-36.374,-48.507l-36.362,48.495l-36.389,0.012l54.562,-72.76l-54.562,-72.761l36.389,0.012l36.363,48.483l36.372,-48.495l36.38,0l-54.564,72.761l54.564,72.76ZM1091.46,1684.69l-31.263,0l-41.497,-105.695l-41.486,105.695l-31.275,0l57.129,-145.533l31.275,0l57.117,145.533ZM145.526,1568.27l-58.209,0l0,29.102l58.209,0l0,29.102l-87.315,0l0,29.113l87.315,0l0,29.102l-145.526,0l0,-29.102l29.107,0l0,-58.215l29.104,0l0,-58.204l87.315,0l0,29.102ZM1745.08,1669.18c-3.783,-1.261 -5.464,-2.942 -7.565,-5.884l-0.841,-2.102l0,-48.334c-0.42,-55.059 -0.42,-50.856 3.363,-54.639c2.521,-2.942 5.463,-3.783 9.246,-3.363c5.044,0.421 8.406,2.522 10.087,6.725l1.261,2.522l0,96.248l-1.261,2.522c-1.681,4.203 -5.464,6.305 -10.087,6.725c-1.261,0 -3.362,0 -4.203,-0.42ZM1592.51,1668.76c-2.522,-1.26 -3.783,-2.942 -4.624,-5.463c-2.101,-5.464 -32.363,-94.988 -32.363,-96.669c-0.84,-3.363 0.421,-7.145 2.942,-9.247c2.102,-1.681 3.783,-2.522 7.566,-2.522c3.783,0 6.304,1.261 7.986,4.203c0.84,1.261 5.463,15.131 12.608,36.987c6.305,18.913 11.349,34.464 11.349,34.464c0.42,0 5.884,-15.13 12.609,-33.624c7.145,-18.493 13.449,-34.884 13.869,-36.566c1.261,-2.101 2.102,-3.362 2.942,-3.782c4.624,-3.363 11.769,-2.102 14.291,2.521c0.42,0.841 6.724,17.233 13.87,36.566c7.145,18.914 13.029,34.465 13.029,34.885c0.42,0 2.942,-6.304 5.464,-14.71c2.521,-8.406 7.985,-24.378 11.768,-35.726l6.725,-20.594l1.681,-1.681c2.942,-3.363 7.145,-3.783 12.189,-2.102c3.362,1.681 6.304,6.305 5.464,10.508c-0.421,1.681 -31.943,96.668 -33.204,98.349c-0.841,1.682 -2.522,3.363 -4.623,4.203c-1.682,0.841 -6.725,0.841 -8.827,0c-2.101,-0.84 -4.203,-2.942 -5.043,-5.043c-0.421,-1.261 -6.725,-17.653 -13.45,-36.566c-7.145,-18.914 -13.029,-34.465 -13.029,-34.885c-0.42,0 -6.305,15.551 -13.029,34.885c-7.145,19.334 -13.45,35.725 -13.87,36.986c-1.261,2.102 -2.942,3.783 -5.044,4.623c-2.101,0.841 -7.145,0.841 -9.246,0ZM1514.75,1668.76c-3.782,-1.681 -6.724,-4.623 -7.145,-8.406c-0.42,-1.26 -0.42,-16.811 -0.42,-49.595c0,-47.073 0,-47.073 0.841,-49.175c2.942,-5.884 10.507,-8.406 16.391,-5.464c1.681,0.841 2.942,2.102 3.783,2.942c2.942,3.783 2.942,1.261 2.522,54.219c0,47.494 0,47.494 -0.841,49.595c-1.261,2.102 -3.362,4.203 -5.464,5.464c-2.101,0.841 -7.565,1.261 -9.667,0.42ZM2082.57,1668.34c-19.334,-3.362 -34.885,-15.551 -42.45,-33.203c-8.406,-21.436 -4.203,-46.233 10.928,-62.625c11.768,-12.609 29.841,-19.334 48.334,-16.812c20.174,2.102 36.986,14.29 44.552,33.204c6.725,15.551 6.304,35.725 -1.681,50.436c-8.406,15.971 -22.697,26.058 -40.769,29c-4.624,0.841 -14.291,0.841 -18.914,0ZM1468.43,1553.91c1.221,0.019 2.449,0.334 3.874,0.944c4.623,1.682 7.986,6.305 7.986,10.928c0,5.044 0,4.624 -21.435,26.059l-19.334,19.754l19.334,18.913c10.507,10.928 19.754,20.175 20.174,21.015c3.362,6.305 -0.42,14.711 -7.565,16.812c-2.522,0.841 -4.203,0.841 -6.305,0c-0.315,-0.157 -0.749,-0.315 -1.212,-0.473l-0.939,-0.315c-0.463,-0.158 -0.896,-0.315 -1.211,-0.473c-0.841,-0.42 -11.769,-11.768 -24.798,-24.797c-26.479,-26.059 -25.638,-25.639 -25.638,-31.102c-0.42,-5.044 -0.42,-4.624 26.479,-31.523c22.696,-22.696 23.957,-23.957 26.479,-24.798c1.471,-0.63 2.731,-0.945 3.992,-0.945l0.119,0.001ZM1969.09,1667.92c-12.188,-2.102 -23.957,-8.406 -31.102,-16.812c-7.565,-8.826 -11.768,-18.493 -13.449,-30.682c-0.421,-5.464 0,-16.392 0.84,-21.855c4.203,-18.494 15.131,-31.943 31.523,-39.088c15.131,-6.305 34.464,-5.884 48.754,1.261c6.305,3.362 13.03,8.826 14.291,12.188c0.84,2.102 0.84,5.885 0,7.986c-2.102,4.623 -7.566,7.145 -13.03,5.464c-0.84,-0.42 -3.782,-2.102 -6.304,-3.783c-7.565,-5.043 -12.189,-6.304 -20.174,-6.304c-5.885,-0.421 -10.088,0.84 -15.131,2.942c-8.826,4.623 -14.711,12.188 -17.653,22.696c-1.261,4.623 -1.261,14.71 0,19.334c2.522,10.927 8.827,19.333 17.653,23.536c5.043,2.522 8.826,3.363 15.131,3.363c8.406,0 13.029,-1.681 20.594,-6.725c1.681,-1.261 3.363,-2.522 4.203,-2.942c5.464,-2.942 11.769,-0.841 14.29,4.203c2.102,4.623 1.261,8.826 -2.942,13.029c-6.725,6.305 -15.971,10.928 -26.899,12.609c-5.464,0.841 -14.71,0.841 -20.595,-0.42ZM1387.82,1667.08c-2.942,-1.261 -5.043,-3.362 -5.884,-6.725c-0.841,-2.942 -0.841,-94.987 0,-97.929c2.522,-8.406 12.609,-11.348 19.334,-5.464c0.84,0.42 2.101,2.101 2.521,3.362l1.261,2.522l0,48.755c0,48.334 0,48.334 -0.84,50.436c-2.942,5.884 -10.508,8.406 -16.392,5.043ZM2178.82,1668.34c-2.102,-0.84 -3.783,-1.681 -5.464,-3.362c-2.942,-3.363 -2.942,0 -2.522,-53.378c0,-46.653 0,-48.335 0.841,-50.016c1.681,-3.782 5.043,-5.464 9.666,-5.464c4.624,0 7.566,2.102 10.508,7.986c15.131,31.522 34.044,71.031 34.464,71.031c0,0 8.406,-16.812 18.073,-37.407c10.087,-21.435 18.073,-37.407 18.914,-38.247c2.522,-3.363 7.145,-4.203 11.768,-2.942c2.102,0.42 5.464,3.782 5.884,5.884c0.421,1.261 0.421,15.971 0.421,50.015l0,47.914l-0.841,2.102c-3.783,7.986 -14.71,7.986 -18.913,0c-0.841,-1.681 -0.841,-2.102 -0.841,-27.319l-0.42,-25.639l-12.189,26.479c-7.145,14.711 -13.029,27.32 -13.87,28.58c-2.101,2.522 -4.623,3.783 -8.406,3.783c-3.362,0 -5.884,-1.261 -7.565,-3.783c-0.841,-1.26 -7.145,-14.29 -13.87,-28.58l-12.609,-26.899l0,26.059c-0.42,28.58 -0.42,26.899 -3.362,30.261c-2.102,2.102 -6.725,3.362 -9.667,2.942ZM545.722,1655.59c-24.113,0 -43.659,-19.548 -43.659,-43.658c0,-24.111 19.546,-43.659 43.659,-43.659c24.112,0 43.658,19.548 43.658,43.659c0,24.11 -19.546,43.658 -43.658,43.658ZM2101.07,1647.74c3.783,-1.261 9.247,-3.783 12.609,-6.305c5.464,-4.623 9.247,-10.928 11.348,-18.493c1.682,-5.464 1.682,-14.711 0.421,-19.754c-2.942,-13.029 -11.348,-22.696 -22.696,-26.059c-15.972,-5.043 -33.204,2.102 -40.769,16.812c-2.943,5.884 -4.624,15.551 -3.783,22.276c2.101,17.232 12.189,28.58 27.319,31.943c3.363,0.84 12.189,0.42 15.551,-0.42ZM2527.78,1646.23l-22.128,0c-18.704,0 -29.63,-13.573 -34.202,-32.622c-6.17,-25.596 -5.91,-40.892 0,-65.404c5.121,-21.386 21.501,-32.626 40.204,-32.626l88.51,0l0,-8.178l-64.357,0l0,-24.521c0,-18.572 4.943,-28.643 32.177,-33.454c9.245,-1.635 19.753,-2.573 30.755,-2.622c11.003,-0.053 22.468,0.781 33.525,2.622c17.465,2.912 32.18,16.014 32.18,33.454l0,61.272c0,17.972 -14.282,32.704 -32.18,32.704l-64.28,0c-21.826,0 -40.204,18.736 -40.204,39.98l0,29.395ZM3367.87,1579.24c0,18.441 -4.707,33.775 -14.114,46c-10.352,13.738 -24.657,20.605 -42.911,20.601c-18.072,0.004 -32.186,-6.863 -42.35,-20.601c-9.222,-12.225 -13.833,-27.559 -13.833,-46c0,-17.309 4.987,-31.89 14.962,-43.744c10.54,-12.603 24.373,-18.908 41.504,-18.908c17.125,0 31.052,6.305 41.779,18.908c9.973,11.854 14.963,26.435 14.963,43.744ZM3080.41,1519.68l23.149,0l0,13.296l-23.149,0l0,80.423c0,7.71 2.067,13.165 6.212,16.364c3.575,2.634 9.219,4.139 16.937,4.515l0,10.724c-2.446,0.188 -4.704,0.282 -6.774,0.282c-11.668,0 -20.746,-2.775 -27.239,-8.325c-6.496,-5.55 -9.741,-13.217 -9.741,-22.996l0,-80.987l-14.123,0l0,-13.296l14.123,0l0,-34.418l20.605,-7.338l0,41.756ZM3411.01,1643.29l-20.599,0l0,-106.106c11.854,-8.655 22.767,-14.294 32.739,-16.928c9.408,-2.446 17.69,-3.671 24.84,-3.671c4.892,0 9.503,0.472 13.83,1.413c8.094,1.881 14.679,5.361 19.754,10.441c5.65,5.644 8.473,12.412 8.467,20.315l0,94.536l-20.599,0l0,-84.071c0,-9.219 -2.773,-16.411 -8.328,-21.584c-5.552,-5.17 -12.939,-7.665 -22.159,-7.477c-9.784,0.188 -19.099,3.387 -27.945,9.593l0,103.539ZM3152.27,1643.29l-20.604,0l0,-190.217l20.604,-6.49l0,86.647c13.165,-9.582 27.558,-14.37 43.172,-14.37c10.913,0 19.75,3.668 26.527,11c6.773,7.338 10.157,16.46 10.157,27.372l0,86.058l-20.876,0l0,-79.555c0,-8.09 -1.882,-15.048 -5.645,-20.878c-4.328,-6.582 -10.348,-9.876 -18.057,-9.876c-9.414,0 -21.172,4.987 -35.278,14.954l0,95.355ZM1843.42,1636.82c-15.131,-4.203 -20.174,-23.117 -8.406,-33.624c7.986,-7.145 19.334,-7.145 27.32,0.84c7.565,7.566 7.565,19.754 -0.421,27.74c-4.623,4.623 -12.188,6.725 -18.493,5.044ZM3345.27,1579.25c0.006,-12.986 -2.44,-23.71 -7.332,-32.176c-5.833,-10.348 -14.864,-15.804 -27.091,-16.372c-22.576,1.317 -33.86,17.489 -33.86,48.521c0,14.306 2.36,26.261 7.084,35.86c6.044,12.237 15.116,18.261 27.204,18.073c22.668,-0.188 34.001,-18.159 33.995,-53.906ZM2873.15,1582.35c0,-33.67 -9.642,-50.975 -28.924,-51.916c-7.674,-0.376 -15.162,0.848 -22.463,3.668c-5.807,2.067 -9.738,4.136 -11.796,6.206l0,80.411c12.355,7.709 23.308,11.284 32.855,10.724c20.22,-1.321 30.328,-17.686 30.328,-49.093ZM2563.93,1466.53c6.649,0 12.077,5.517 12.077,12.302c0,6.757 -5.428,12.225 -12.077,12.225c-6.672,0 -12.074,-5.468 -12.074,-12.225c0,-6.785 5.402,-12.302 12.074,-12.302Z" style="fill:#ff4c44;"/><path d="M782.464,1243.94l-236.493,0c-22.419,0 -39.778,-18.079 -39.778,-39.77l0,-426.705c0,-21.699 17.359,-39.778 39.778,-39.778c22.42,0 40.499,18.079 40.499,39.778l0,386.198l195.994,0c20.978,0 39.778,18.088 39.778,40.507c0,21.691 -18.8,39.77 -39.778,39.77ZM1110.81,723.225c-69.436,0 -133.075,29.65 -177.193,77.387c-44.839,47.73 -71.598,111.377 -71.598,182.975c0,71.597 26.759,135.965 71.598,182.974c44.118,47.008 107.757,77.378 177.193,77.378c66.529,0 130.176,-30.37 172.845,-77.378c44.839,-47.009 73.047,-111.377 73.047,-182.974c0,-71.598 -28.208,-135.245 -73.047,-182.975c-42.669,-47.737 -106.316,-77.387 -172.845,-77.387ZM1635.14,1236.71c-1.449,-1.441 -2.899,-2.17 -5.068,-3.611c0,-0.728 -0.721,-0.728 -0.721,-2.17c-1.441,-1.449 -2.89,-2.898 -3.611,-4.339c0,0 -0.729,0 -0.729,-0.729c-0.72,-1.441 -2.17,-4.34 -3.611,-5.781l-177.193,-422.365c-8.68,-19.521 0.72,-43.39 21.699,-51.349c19.529,-8.679 42.669,0.729 51.348,20.979l141.026,334.849l141.026,-334.849c8.679,-20.25 32.548,-29.658 52.077,-20.979c20.25,7.959 29.65,31.828 21.691,51.349l-178.635,422.365c-0.72,1.441 -1.441,4.34 -2.89,5.781c0,0.729 0,0.729 -0.721,0.729c-0.729,1.441 -2.898,2.89 -3.619,4.339c-0.721,1.442 -0.721,1.442 -1.449,2.17c-1.441,1.441 -2.891,2.17 -4.332,3.611l-1.449,0.729c-1.45,0.721 -3.619,2.891 -5.789,3.611c-0.721,0 -0.721,0 -1.441,0.721c-2.17,0 -3.62,0.728 -5.789,1.449c0,0 -0.721,0 -1.45,0c-2.89,0.72 -5.06,0.72 -7.23,0.72c-2.17,0 -5.06,0 -7.23,-0.72l-1.45,0c-1.441,-0.721 -4.339,-1.449 -5.78,-1.449c0,-0.713 -0.713,-0.721 -0.729,-0.721l-0.721,0c-1.449,-0.72 -4.339,-2.89 -6.509,-4.34l-0.721,0ZM1997.47,1124.61l-35.438,94.018c-6.51,15.909 -21.691,25.309 -37.601,25.309c-5.068,0 -9.408,-0.72 -13.748,-2.169c-20.97,-7.951 -31.099,-31.091 -23.86,-52.069l159.826,-425.977c6.509,-15.909 22.419,-26.038 38.337,-25.309c16.63,-0.729 31.82,9.4 38.329,25.309l159.826,425.977c7.239,20.978 -2.89,44.118 -23.86,52.069c-3.62,1.449 -8.68,2.169 -13.74,2.169c-15.918,0 -31.099,-9.4 -36.888,-25.309l-35.439,-94.018l-175.744,0ZM3413.55,1218.63c5.781,15.909 20.97,25.309 36.879,25.309c5.061,0 10.129,-0.72 13.74,-2.169c20.979,-7.951 31.099,-31.091 23.869,-52.069l-159.834,-425.977c-6.51,-15.909 -21.691,-26.038 -38.329,-25.309c-15.91,-0.729 -31.82,9.4 -38.329,25.309l-159.835,425.977c-7.23,20.978 2.891,44.118 23.869,52.069c4.34,1.449 8.68,2.169 13.74,2.169c15.91,0 31.099,-9.4 37.608,-25.309l35.439,-94.018l175.744,0l35.439,94.018ZM2422.01,1243.94c22.42,0 39.779,-18.079 39.779,-39.77l0,-102.696l75.209,-76.667l156.215,204.673c7.959,9.4 18.808,14.46 29.658,14.46c9.4,0 18.079,-2.89 25.309,-9.4c17.359,-13.739 20.25,-39.049 5.789,-55.688l-160.554,-210.454l159.105,-158.385c15.189,-15.909 15.189,-41.227 0,-56.416c-15.91,-15.91 -40.499,-15.91 -56.409,0l-234.322,235.051l0,-207.564c0,-20.978 -17.359,-39.778 -39.779,-39.778c-22.419,0 -39.778,18.8 -39.778,39.778l0,423.086c0,21.691 17.359,39.77 39.778,39.77ZM2904.39,1204.17c0,22.42 17.359,39.77 39.779,39.77c21.699,0 40.499,-17.35 40.499,-39.77l0,-426.705c0,-22.419 -18.8,-39.778 -40.499,-39.778c-22.42,0 -39.779,17.359 -39.779,39.778l0,426.705ZM205.333,938.019c36.888,7.23 70.877,16.639 99.806,30.378c29.65,14.461 55.688,33.269 72.327,60.028c10.841,17.359 17.351,39.05 17.351,61.469c0,46.288 -26.031,86.067 -62.198,112.105c-35.431,26.031 -82.447,41.22 -133.796,41.22c-78.107,-0.721 -143.916,-39.779 -185.144,-72.318c-15.91,-13.02 -18.08,-36.889 -5.781,-52.798c13.02,-15.91 36.88,-18.08 52.79,-5.061c31.827,26.031 86.787,56.409 138.135,55.689c36.168,0 68.708,-10.85 90.406,-26.76c21.699,-15.909 31.099,-33.997 31.099,-52.077c0,-9.4 -2.17,-15.909 -6.509,-23.14c-4.34,-7.23 -10.85,-14.468 -21.699,-21.698c-20.97,-13.74 -56.409,-26.031 -99.078,-33.99l-1.449,0c-33.989,-6.509 -65.809,-15.189 -93.297,-28.208c-27.479,-13.02 -51.348,-31.099 -67.258,-56.409c-10.849,-17.359 -16.63,-37.608 -16.63,-59.307c0,-43.39 24.589,-80.998 57.858,-105.587c33.989,-24.59 78.107,-38.33 125.116,-38.33c69.428,0 120.776,33.99 157.664,57.858c16.631,11.57 21.691,34.71 10.121,51.349c-0.861,1.383 -1.805,2.691 -2.824,3.917l16.506,16.498l23.537,0c3.52,0 6.377,2.857 6.377,6.385c0,3.52 -2.857,6.378 -6.377,6.386l-19.636,0l0,19.786c0,3.528 -2.858,6.385 -6.377,6.385c-3.529,0 -6.386,-2.857 -6.386,-6.385l0,-23.364l-17.425,-17.417c-11.612,6.708 -26.594,6.758 -38.743,-1.342c-36.888,-24.589 -72.319,-46.288 -116.437,-46.288c-32.548,0 -61.477,10.121 -81.006,24.589c-19.521,14.461 -27.48,30.379 -27.48,45.56c0,8.679 1.45,14.468 5.06,20.257c3.62,5.781 10.129,12.291 19.529,18.801c18.809,13.019 51.349,24.589 90.407,31.819l1.441,0ZM1225.08,1109.42c-30.379,32.548 -70.878,52.069 -114.267,52.069c-46.288,0 -86.787,-19.521 -117.166,-52.069c-30.378,-31.099 -49.178,-76.658 -49.178,-125.836c0,-49.179 18.8,-94.746 49.178,-126.566c30.379,-32.548 70.878,-51.348 117.166,-51.348c43.389,0 83.888,18.8 114.267,51.348c29.649,31.82 49.178,77.387 49.178,126.566c0,49.178 -19.529,94.737 -49.178,125.836ZM3348.45,1045.06l-58.578,-155.495l-58.579,155.495l117.157,0ZM2143.57,1045.06l-58.579,-155.495l-58.587,155.495l117.166,0ZM346.234,804.654c2.518,-4.133 1.201,-9.533 -2.931,-12.05l-12.962,-7.893c-4.132,-2.509 -9.524,-1.201 -12.042,2.932c-2.518,4.133 -1.201,9.524 2.924,12.042l12.969,7.893c4.125,2.517 9.525,1.209 12.042,-2.924ZM2050.27,180.813l231.432,321.109c0.721,1.441 2.17,2.891 3.611,4.34c7.238,8.671 18.088,14.46 29.658,14.46c21.69,0 39.778,-18.079 39.778,-39.778l0,-420.187c0,-20.979 -18.088,-39.058 -39.778,-39.058c-21.699,0 -39.058,18.079 -39.058,39.058l0,297.961l-233.602,-323.279c-12.291,-17.351 -36.88,-20.97 -54.959,-8.68c-10.85,7.959 -16.639,20.978 -15.91,33.269l0,420.916c0,21.699 17.351,39.778 39.77,39.778c20.978,0 39.058,-18.079 39.058,-39.778l0,-300.131ZM2999.14,14.469c0.721,0.72 2.17,0.72 2.891,0.72c2.17,0 2.89,0.729 4.34,1.45c0.72,0 2.169,0 2.89,0.72c2.17,1.449 2.89,2.17 4.34,2.17c0.72,0.729 1.449,1.449 2.89,2.17c0.729,0.72 2.17,1.449 2.899,2.17c1.441,0.72 2.17,2.17 2.89,2.89c0.721,0.729 1.45,1.449 2.17,2.899c0.721,0.72 2.17,2.17 2.891,2.89l0.728,1.45c0,0.72 0.721,1.441 0.721,2.169c0.72,1.442 1.449,2.17 1.449,3.611c0.721,1.45 0.721,2.899 1.441,3.62c0,1.449 0.729,2.89 0.729,3.619c0,2.162 0,3.611 1.441,5.06l0,428.867c0,22.419 -18.8,39.778 -40.499,39.778c-22.419,0 -39.778,-17.359 -39.778,-39.778l0,-355.82l-28.929,16.631c-6.51,4.339 -13.74,5.789 -20.25,5.789c-13.74,0 -26.759,-7.239 -33.989,-20.25c-12.299,-18.088 -5.789,-43.397 13.019,-54.247l88.957,-52.789c0.315,-0.323 0.77,-0.497 1.243,-0.663l0.405,-0.132c0.472,-0.158 0.928,-0.34 1.243,-0.655c1.449,0 2.17,-1.449 3.619,-2.169c0.629,0 1.259,-0.141 1.896,-0.299l0.539,-0.132c0.638,-0.157 1.267,-0.29 1.905,-0.29c0.72,-0.729 2.161,-0.729 2.89,-0.729c1.441,-0.72 3.611,-0.72 5.06,-0.72l7.959,0ZM3386.79,204.673c15.18,-19.529 23.86,-44.839 23.86,-71.598c0,-65.088 -53.518,-118.606 -118.606,-118.606c-66.538,0 -120.056,53.518 -120.056,118.606c0,26.759 8.679,52.069 23.868,71.598c-47.008,31.099 -77.387,83.897 -77.387,143.925c0,94.737 78.108,172.124 173.575,172.124c94.746,0 172.124,-77.387 172.124,-172.124c0,-60.028 -31.099,-112.826 -77.378,-143.925ZM1601.16,0c-69.436,0 -133.075,29.658 -177.194,77.387c-44.838,47.737 -71.597,111.376 -71.597,182.974c0,71.598 26.759,135.966 71.597,182.974c44.119,47.009 107.758,77.387 177.194,77.387c66.529,0 130.176,-30.378 172.845,-77.387c44.839,-47.008 73.047,-111.376 73.047,-182.974c0,-71.598 -28.208,-135.237 -73.047,-182.974c-42.669,-47.729 -106.316,-77.387 -172.845,-77.387ZM193.042,14.469c86.059,0 155.495,69.428 155.495,155.494c0,84.617 -69.436,154.045 -155.495,154.045l-88.957,0l0,156.936c0,21.699 -18.079,39.778 -40.499,39.778c-21.698,0 -39.778,-18.079 -39.778,-39.778l0,-426.697c0,-22.419 18.08,-39.778 39.778,-39.778l129.456,0ZM781.743,27.488c-17.359,-13.019 -41.948,-9.4 -55.688,8.679l-123.675,169.235l-123.667,-169.235c-12.299,-18.079 -36.888,-21.698 -54.967,-8.679c-18.08,13.019 -21.691,37.608 -7.951,54.959l146.815,203.232l0,195.265c0,22.419 18.8,39.778 39.77,39.778c22.428,0 39.778,-17.359 39.778,-39.778l0,-195.265l148.265,-203.232c12.29,-17.351 8.679,-41.94 -8.68,-54.959ZM1255.57,420.477c4.19,15.777 -0.638,33.368 -13.856,43.837c-45.559,35.438 -103.417,56.408 -167.065,56.408c-144.645,0 -264.692,-116.436 -265.421,-260.361c0.729,-143.196 120.776,-259.632 265.421,-260.361c63.648,0 121.506,20.978 167.065,56.417c17.359,14.46 20.249,39.778 7.238,57.858c-14.468,18.08 -41.228,20.97 -57.858,7.951c-31.827,-26.031 -71.606,-39.779 -116.445,-39.779c-49.899,0 -96.187,20.25 -130.176,52.077c-32.548,33.269 -52.798,76.659 -52.798,125.837c0,49.179 20.25,94.017 52.798,125.845c33.989,31.82 80.277,52.069 130.176,52.069c44.839,0 83.897,-13.74 116.445,-39.778c16.63,-12.291 43.39,-9.4 57.858,7.959c0.456,0.637 0.895,1.283 1.317,1.938l26.701,-21.053l2.766,-23.372c0.415,-3.495 3.587,-6.005 7.09,-5.59c3.495,0.414 6.004,3.594 5.59,7.089l-2.31,19.496l19.653,2.327c3.503,0.414 6.004,3.594 5.59,7.089c-0.414,3.495 -3.586,6.005 -7.089,5.591l-23.198,-2.75l-29.492,23.256ZM1208.79,421.272c-2.874,-3.884 -8.373,-4.704 -12.257,-1.822l-12.2,9.036c-3.884,2.874 -4.704,8.373 -1.822,12.257c2.882,3.884 8.373,4.704 12.266,1.822l12.191,-9.027c3.884,-2.882 4.704,-8.373 1.822,-12.266ZM3292.04,441.894c-52.069,0 -94.018,-41.948 -94.738,-93.296c0.72,-51.349 42.669,-94.018 94.738,-94.018c51.348,0 93.296,42.669 93.296,94.018c0,51.348 -41.948,93.296 -93.296,93.296ZM1715.42,386.206c-30.378,32.54 -70.877,52.069 -114.266,52.069c-46.288,0 -86.787,-19.529 -117.166,-52.069c-30.378,-31.099 -49.178,-76.666 -49.178,-125.845c0,-49.178 18.8,-94.738 49.178,-126.565c30.379,-32.54 70.878,-51.349 117.166,-51.349c43.389,0 83.888,18.809 114.266,51.349c29.65,31.827 49.179,77.387 49.179,126.565c0,49.179 -19.529,94.746 -49.179,125.845ZM193.042,243.731c41.949,0 74.489,-33.269 75.217,-73.768c-0.728,-41.948 -33.268,-75.217 -75.217,-75.217l-88.957,0l0,148.985l88.957,0ZM2748.18,12.299c13.74,0 24.59,8.679 24.59,23.868c0,4.34 -1.45,10.121 -2.891,15.91l-52.798,160.555c-5.06,13.74 -13.019,22.419 -26.759,22.419c-14.46,0 -25.31,-10.849 -24.589,-27.479l13.019,-154.774c1.45,-23.14 17.359,-40.499 41.22,-40.499l28.208,0ZM3292.04,93.297c21.698,0 39.778,18.079 39.778,39.778c0,22.42 -18.08,41.228 -39.778,41.228c-23.14,0 -41.22,-18.808 -41.22,-41.228c0,-21.699 18.08,-39.778 41.22,-39.778Z" style="fill:#00ffba;"/></svg>