<?xml version="1.0" encoding="UTF-8" standalone="no"?>
<svg
   xmlns:dc="http://purl.org/dc/elements/1.1/"
   xmlns:cc="http://creativecommons.org/ns#"
   xmlns:rdf="http://www.w3.org/1999/02/22-rdf-syntax-ns#"
   xmlns:svg="http://www.w3.org/2000/svg"
   xmlns="http://www.w3.org/2000/svg"
   version="1.1"
   id="svg8821"
   viewBox="0 0 380 100"
   height="100"
   width="380">
  <defs
     id="defs8823" />
  <metadata
     id="metadata8826">
    <rdf:RDF>
      <cc:Work
         rdf:about="">
        <dc:format>image/svg+xml</dc:format>
        <dc:type
           rdf:resource="http://purl.org/dc/dcmitype/StillImage" />
        <dc:title></dc:title>
      </cc:Work>
    </rdf:RDF>
  </metadata>
  <g
     transform="translate(0,-952.36216)"
     id="layer1">
    <path
       id="path7040"
       style="fill:#65b34c;fill-opacity:1;fill-rule:nonzero;stroke:none"
       d="m 141.56905,999.52709 -5.29,0 -5.0825,-11.41 -23.54625,0 -5.0825,11.41 -4.978748,0 19.707498,-43.56375 4.56375,0 19.70875,43.56375 z m -22.09375,-37.85875 -9.85375,22.0925 19.7075,0 -9.85375,-22.0925 z" />
    <path
       id="path7042"
       style="fill:#65b34c;fill-opacity:1;fill-rule:nonzero;stroke:none"
       d="m 178.1828,956.27459 4.77125,0 0,43.2525 -3.94125,0 -27.90125,-35.47375 0,35.47375 -4.77125,0 0,-43.2525 4.56375,0 27.175,34.64375 0,-34.64375 0.10375,0 z" />
    <path
       id="path7044"
       style="fill:#65b34c;fill-opacity:1;fill-rule:nonzero;stroke:none"
       d="m 206.39655,999.52709 -15.04,0 0,-43.2525 15.04,0 c 13.5875,0 22.9225,9.335 22.9225,21.575 0.10375,12.23875 -9.335,21.6775 -22.9225,21.6775 z m 0,-38.7925 -10.165,0 0,34.22875 10.165,0 c 10.89125,0 17.94375,-7.36375 17.94375,-17.01125 0,-9.64625 -6.94875,-17.2175 -17.94375,-17.2175 z" />
    <path
       id="path7046"
       style="fill:#65b34c;fill-opacity:1;fill-rule:nonzero;stroke:none"
       d="m 264.68905,999.52709 -12.55,-16.8025 -12.34375,0 0,16.8025 -4.875,0 0,-43.2525 18.5675,0 c 9.5425,0 15.66125,5.0825 15.66125,12.86125 0,7.26125 -4.97875,11.41 -11.72,12.655 l 13.27625,17.6325 -6.01625,0 0,0.10375 z m -11.5125,-38.7925 -13.38125,0 0,17.52875 13.2775,0 c 6.43,0 11.0975,-3.31875 11.0975,-8.92 0,-5.39375 -4.045,-8.60875 -10.99375,-8.60875 z" />
    <path
       id="path7048"
       style="fill:#65b34c;fill-opacity:1;fill-rule:nonzero;stroke:none"
       d="m 294.8728,1000.2533 c -13.1725,0 -21.98875,-10.26871 -21.98875,-22.30121 0,-12.03125 8.92,-22.40375 22.0925,-22.40375 13.17375,0 21.99,10.26875 21.99,22.30125 0,12.03125 -8.92,22.40371 -22.09375,22.40371 z m 0,-40.24496 c -9.85375,0 -16.90625,7.8825 -16.90625,17.7375 0,9.85375 7.15625,17.94375 17.01,17.94375 9.85375,0 16.9075,-7.8825 16.9075,-17.7375 0,-9.85375 -7.05375,-17.94375 -17.01125,-17.94375 z" />
    <path
       id="path7050"
       style="fill:#65b34c;fill-opacity:1;fill-rule:nonzero;stroke:none"
       d="m 324.0203,999.52709 4.875,0 0,-43.25312 -4.875,0 0,43.25312 z" />
    <path
       id="path7052"
       style="fill:#65b34c;fill-opacity:1;fill-rule:nonzero;stroke:none"
       d="m 352.8553,999.52709 -15.04,0 0,-43.2525 15.04,0 c 13.5875,0 22.92375,9.335 22.92375,21.575 0.1025,12.23875 -9.33625,21.6775 -22.92375,21.6775 z m 0,-38.7925 -10.165,0 0,34.22875 10.165,0 c 10.89125,0 17.94375,-7.36375 17.94375,-17.01125 0,-9.64625 -6.94875,-17.2175 -17.94375,-17.2175 z" />
    <path
       id="path7054"
       style="fill:#575757;fill-opacity:1;fill-rule:nonzero;stroke:none"
       d="m 113.7703,1034.0671 -8.60875,0 0,13.9 -7.572498,0 0,-43.2538 17.011248,0 c 10.06125,0 16.38875,5.705 16.38875,14.5213 0.10375,9.75 -7.67625,14.8325 -17.21875,14.8325 z m 0.31125,-22.4038 -8.81625,0 0,15.5588 8.81625,0 c 5.705,0 9.335,-3.1125 9.335,-7.78 -0.10375,-5.1863 -3.73375,-7.7788 -9.335,-7.7788 z" />
    <path
       id="path7056"
       style="fill:#575757;fill-opacity:1;fill-rule:nonzero;stroke:none"
       d="m 159.5128,1048.6933 c -13.27625,0 -22.50875,-10.0612 -22.50875,-22.3012 0,-12.24 9.33625,-22.405 22.6125,-22.405 13.27625,0 22.50875,10.0612 22.50875,22.3012 0,12.1363 -9.33625,22.405 -22.6125,22.405 z m 0,-37.7562 c -8.60875,0 -14.52125,6.8462 -14.52125,15.3512 0,8.505 6.12,15.455 14.72875,15.455 8.60875,0 14.52125,-6.8462 14.52125,-15.3512 -0.10375,-8.505 -6.22375,-15.455 -14.72875,-15.455 z" />
    <path
       id="path7058"
       style="fill:#575757;fill-opacity:1;fill-rule:nonzero;stroke:none"
       d="m 219.0503,1047.9671 -10.58,-15.04 -9.5425,0 0,15.04 -7.57125,0 0,-43.2538 19.2925,0 c 9.9575,0 16.0775,5.29 16.0775,13.6925 0,7.1563 -4.2525,11.5125 -10.26875,13.1725 l 11.6175,16.3888 -9.025,0 z m -9.1275,-36.3038 -11.09875,0 0,14.5213 11.09875,0 c 5.39375,0 8.92,-2.8 8.92,-7.2613 0.10375,-4.875 -3.215,-7.26 -8.92,-7.26 z" />
    <path
       id="path7060"
       style="fill:#575757;fill-opacity:1;fill-rule:nonzero;stroke:none"
       d="m 256.0803,1047.9671 -7.675,0 0,-36.2 -13.6925,0 0,-7.0538 35.05875,0 0,7.0538 -13.69125,0 0,36.2 z" />
    <path
       id="path7062"
       style="fill:#575757;fill-opacity:1;fill-rule:nonzero;stroke:none"
       d="m 316.4478,1047.9671 -7.98625,0 -4.46,-10.4763 -20.43375,0 -4.46,10.4763 -7.78,0 18.98125,-43.565 7.05375,0 19.085,43.565 z m -22.715,-34.54 -7.365,17.3212 14.8325,0 -7.4675,-17.3212 z" />
    <path
       id="path7064"
       style="fill:#575757;fill-opacity:1;fill-rule:nonzero;stroke:none"
       d="m 322.7753,1004.7133 7.57125,0 0,36.3038 22.71625,0 0,6.95 -30.2875,0 0,-43.2538 z" />
    <path
       id="path7066"
       style="fill:#65b34c;fill-opacity:1;fill-rule:nonzero;stroke:none"
       d="m 67.509053,987.80709 c 0,1.03625 0.83,1.97 1.97125,1.97 1.0375,0 1.97,-0.83 1.97,-1.97 0,-1.0375 -0.82875,-1.97125 -1.97,-1.97125 -1.14125,0 -1.97125,0.83 -1.97125,1.97125 z" />
    <path
       id="path7068"
       style="fill:#65b34c;fill-opacity:1;fill-rule:nonzero;stroke:none"
       d="m 45.209053,1049.9371 0,-11.4088 -3.735,0 c -3.0075,0 -5.4975,-2.49 -5.4975,-5.4975 l 0,-33.29621 42.216247,0 0,-1.7625 -42.423747,0 c 0,-7.88375 4.77125,-14.83375 11.825,-18.46375 l -3.63,-6.535 c -0.2075,-0.31 -0.10375,-0.725 0.31125,-0.9325 0.31125,-0.2075 0.72625,-0.10375 0.93375,0.31125 l 3.63,6.53375 c 3.0075,-1.3475 6.43125,-2.07375 10.06125,-2.07375 3.63,0 7.0525,0.72625 10.06125,2.07375 l 3.63,-6.6375 c 0.2075,-0.31125 0.6225,-0.51875 0.93375,-0.31125 0.31125,0.2075 0.51875,0.6225 0.31125,0.9325 l -3.63,6.535 c 3.215,1.66 5.91125,4.045 7.986247,6.84625 l 0,-24.89375 c 0,-3.63125 -2.903747,-6.535 -6.534997,-6.535 l -60.88625,0 c -3.6300005,0 -6.5337495,2.90375 -6.5337495,6.535 l 0,82.25371 c 0,3.7338 2.903749,6.6375 6.5337495,6.6375 l 34.54125,0 c -0.10375,-0.1037 -0.10375,-0.2075 -0.10375,-0.3112 z m -11.2025,-24.4788 c 0,2.8013 -2.2825,5.0825 -5.0825,5.0825 -2.80125,0 -5.0825,-2.2812 -5.0825,-5.0825 l 0,-21.4712 c 0,-2.8 2.28125,-5.08251 5.0825,-5.08251 2.8,0 5.0825,2.28251 5.0825,5.08251 l 0,21.4712 z" />
    <path
       id="path7070"
       style="fill:#65b34c;fill-opacity:1;fill-rule:nonzero;stroke:none"
       d="m 46.452803,987.80709 c 0,1.03625 0.83,1.97 1.97125,1.97 1.0375,0 1.97125,-0.83 1.97125,-1.97 0,-1.0375 -0.83,-1.97125 -1.97125,-1.97125 -1.14125,0 -1.97125,0.83 -1.97125,1.97125 z" />
    <path
       id="path7072"
       style="fill:#65b34c;fill-opacity:1;fill-rule:nonzero;stroke:none"
       d="m 76.325303,1038.6321 -3.73375,0 0,11.305 c 0,0.1037 0,0.1037 0,0.2075 3.1125,-0.415 5.601247,-3.215 5.601247,-6.5338 l 0,-5.3937 c -0.6225,0.3112 -1.141247,0.415 -1.867497,0.415 z" />
    <path
       id="path7074"
       style="fill:#65b34c;fill-opacity:1;fill-rule:nonzero;stroke:none"
       d="m 62.426553,1050.2483 0,-11.72 -6.94875,0 0,11.4088 c 0,0.1037 0,0.2075 0,0.3112 l 6.94875,0 z" />
  </g>
</svg>
