<?xml version="1.0" encoding="UTF-8" standalone="no"?>
<svg
   xmlns:dc="http://purl.org/dc/elements/1.1/"
   xmlns:cc="http://creativecommons.org/ns#"
   xmlns:rdf="http://www.w3.org/1999/02/22-rdf-syntax-ns#"
   xmlns:svg="http://www.w3.org/2000/svg"
   xmlns="http://www.w3.org/2000/svg"
   version="1.1"
   id="svg4360"
   viewBox="0 0 744.09448819 1052.3622047"
   height="297mm"
   width="210mm">
  <defs
     id="defs4362">
    <linearGradient
       gradientTransform="matrix(-12.907321,-18.437962,18.437962,-12.907321,288.4578,513.87848)"
       gradientUnits="userSpaceOnUse"
       y2="0"
       x2="1"
       y1="0"
       x1="0"
       id="_Linear2">
      <stop
         id="stop4276"
         style="stop-color:rgb(255,212,59);stop-opacity:1"
         offset="0%" />
      <stop
         id="stop4278"
         style="stop-color:rgb(255,232,115);stop-opacity:1"
         offset="100%" />
    </linearGradient>
    <linearGradient
       gradientTransform="matrix(36.14488,31.398058,-31.398058,36.14488,247.24144,456.38417)"
       gradientUnits="userSpaceOnUse"
       y2="0"
       x2="1"
       y1="0"
       x1="0"
       id="_Linear1">
      <stop
         id="stop4271"
         style="stop-color:rgb(90,159,212);stop-opacity:1"
         offset="0%" />
      <stop
         id="stop4273"
         style="stop-color:rgb(48,105,152);stop-opacity:1"
         offset="100%" />
    </linearGradient>
  </defs>
  <metadata
     id="metadata4365">
    <rdf:RDF>
      <cc:Work
         rdf:about="">
        <dc:format>image/svg+xml</dc:format>
        <dc:type
           rdf:resource="http://purl.org/dc/dcmitype/StillImage" />
        <dc:title></dc:title>
      </cc:Work>
    </rdf:RDF>
  </metadata>
  <g
     id="layer1">
    <path
       id="path4263"
       style="clip-rule:evenodd;fill:url(#_Linear1);fill-rule:evenodd;stroke-linecap:square;stroke-miterlimit:1.41420996"
       d="m 279.61006,456.38524 c -2.70176,0.0118 -5.28172,0.24251 -7.55188,0.64419 -6.68762,1.18155 -7.90122,3.65469 -7.90122,8.21531 l 0,6.02206 15.80244,0 0,2.00842 -15.80244,0 -5.93126,0 c -4.59267,0 -8.61379,2.76052 -9.87225,8.01126 -1.45077,6.01993 -1.51487,9.77611 0,16.06097 1.12386,4.6792 3.80638,8.01233 8.39905,8.01233 l 5.43342,0 0,-7.21964 c 0,-5.21656 4.51361,-9.81777 9.87226,-9.81777 l 15.78428,0 c 4.39396,0 7.90229,-3.6173 7.90229,-8.03049 l 0,-15.04714 c 0,-4.28286 -3.61303,-7.50061 -7.90229,-8.21531 -2.71458,-0.45189 -5.53064,-0.65701 -8.2324,-0.64419 z m -8.54648,4.84372 c 1.63238,0 2.96563,1.35462 2.96563,3.02118 0,1.66015 -1.33325,3.00195 -2.96563,3.00195 -1.63772,0 -2.96563,-1.3418 -2.96563,-3.00195 0,-1.66656 1.32791,-3.02118 2.96563,-3.02118 z" />
    <path
       id="path4266"
       style="clip-rule:evenodd;fill:url(#_Linear2);fill-rule:evenodd;stroke-linecap:square;stroke-miterlimit:1.41420996"
       d="m 297.71471,473.27522 0,7.01666 c 0,5.44091 -4.61189,10.01968 -9.87225,10.01968 l -15.78428,0 c -4.32345,0 -7.90122,3.70063 -7.90122,8.03049 l 0,15.04821 c 0,4.28286 3.72412,6.80193 7.90122,8.03049 5.00289,1.47106 9.7996,1.736 15.78428,0 3.97838,-1.15164 7.90229,-3.46987 7.90229,-8.03049 l 0,-6.02313 -15.78535,0 0,-2.00735 23.68657,0 c 4.59266,0 6.30409,-3.20386 7.90122,-8.01233 1.65054,-4.94948 1.58003,-9.70987 0,-16.06097 -1.13455,-4.5713 -3.30322,-8.01126 -7.90122,-8.01126 l -5.93126,0 z m -8.87766,38.10769 c 1.63879,0 2.96563,1.3418 2.96563,3.00195 0,1.6655 -1.32684,3.02011 -2.96563,3.02011 -1.63237,0 -2.96456,-1.35461 -2.96456,-3.02011 0,-1.66015 1.33219,-3.00195 2.96456,-3.00195 z" />
  </g>
</svg>
