<?xml version="1.0" standalone="no"?><!DOCTYPE svg PUBLIC "-//W3C//DTD SVG 1.1//EN" "http://www.w3.org/Graphics/SVG/1.1/DTD/svg11.dtd"><svg width="100%" height="100%" viewBox="0 0 1706 718" version="1.1" xmlns="http://www.w3.org/2000/svg" xmlns:xlink="http://www.w3.org/1999/xlink" xml:space="preserve" style="fill-rule:evenodd;clip-rule:evenodd;stroke-linejoin:round;stroke-miterlimit:1.41421;"><path d="M287.527,0c2.306,0.007 4.611,0.035 6.916,0.092c4.725,0.118 9.447,0.346 14.162,0.685c12.992,0.934 25.921,2.716 38.685,5.311c10.304,2.095 20.498,4.718 30.542,7.827c10.875,3.367 21.57,7.303 32.057,11.729c8.343,3.522 16.553,7.354 24.631,11.444c6.733,3.41 13.373,7 19.93,10.735c6.183,3.521 12.291,7.172 18.344,10.912c5.188,3.207 10.333,6.482 15.461,9.781l1.026,0.661l1.191,0.769c0.209,-0.287 0.42,-0.574 0.632,-0.86c0.97,-1.299 1.958,-2.583 2.977,-3.845c2.04,-2.525 4.183,-4.967 6.422,-7.317c7.457,-7.827 15.983,-14.628 25.28,-20.147c6.046,-3.589 12.414,-6.634 19.005,-9.083c6.546,-2.432 13.309,-4.275 20.184,-5.5c12.83,-2.285 26.039,-2.412 38.912,-0.375c10.539,1.668 20.842,4.789 30.537,9.246c6.748,3.103 13.2,6.85 19.244,11.168c7.219,5.158 13.854,11.131 19.746,17.765c5.231,5.892 9.875,12.304 13.841,19.113c4.252,7.298 7.722,15.051 10.323,23.086c2.526,7.802 4.232,15.867 5.071,24.024c0.253,2.46 0.428,4.928 0.523,7.399c0.056,1.45 0.081,2.9 0.086,4.351l0,41.541l123.622,-124.003l0.478,-0.475c1.052,-1.033 2.116,-2.054 3.202,-3.051c2.34,-2.149 4.763,-4.206 7.265,-6.163c7.268,-5.686 15.196,-10.527 23.583,-14.378c6.771,-3.109 13.838,-5.572 21.076,-7.341c7.657,-1.871 15.504,-2.963 23.382,-3.254c9.062,-0.335 18.161,0.394 27.055,2.165c8.242,1.641 16.304,4.175 24.005,7.539c5.548,2.425 10.909,5.278 16.02,8.524c5.148,3.27 10.042,6.936 14.632,10.951c2.977,2.605 5.829,5.354 8.533,8.24c2.908,3.103 5.646,6.366 8.197,9.77c1.925,2.569 3.744,5.219 5.45,7.938c0.908,1.447 1.778,2.916 2.626,4.399l0.071,0.126l61.602,-36.56l-5.451,5.289l1.707,-1.554l1.599,-1.375c0.546,-0.445 1.085,-0.897 1.637,-1.333c1.068,-0.846 2.127,-1.636 3.237,-2.424c2.28,-1.618 4.651,-3.108 7.094,-4.47c1.298,-0.723 2.616,-1.41 3.955,-2.056l0.637,-0.383c0.384,-0.223 0.766,-0.45 1.153,-0.67c0.86,-0.489 1.615,-0.899 2.493,-1.361c0.241,-0.127 0.486,-0.248 0.729,-0.372l6.338,-2.871c6.575,-2.27 6.58,-2.272 13.337,-3.923l0.05,-0.007l1.069,-0.294l1.789,-0.449c0.634,-0.143 1.267,-0.294 1.904,-0.43c1.367,-0.291 1.753,-0.35 3.007,-0.573c0.288,-0.064 0.579,-0.122 0.868,-0.182c1.289,-0.259 2.582,-0.5 3.882,-0.702c1.969,-0.305 3.947,-0.547 5.932,-0.722c1.942,-0.172 3.889,-0.278 5.837,-0.329c1.08,-0.029 2.16,-0.038 3.24,-0.038l8.573,0c8.215,0.451 8.223,0.452 16.339,1.801l0.244,0.069l0.524,0.086l1.077,0.191c0.379,0.074 0.759,0.144 1.139,0.22c0.718,0.144 1.49,0.31 2.204,0.473c2.971,0.682 5.904,1.531 8.777,2.548l0.893,0.259c0.369,0.112 0.739,0.22 1.106,0.335c1.686,0.528 3.354,1.111 5,1.751c2.365,0.919 4.686,1.954 6.949,3.1c1.065,0.54 1.927,1.006 2.97,1.586c0.216,0.121 0.429,0.248 0.643,0.372l0.436,0.182c7.263,4.041 7.27,4.045 14.042,8.865l0.255,0.228l0.157,0.106l0.836,0.574c0.256,0.179 0.512,0.358 0.766,0.539c0.52,0.368 0.679,0.487 1.193,0.862c0.171,0.127 0.172,0.125 0.346,0.247c0.965,0.7 1.128,0.809 2.059,1.519c1.496,1.14 2.952,2.334 4.365,3.577c2.233,1.964 4.36,4.054 6.365,6.251c0.599,0.657 1.208,1.345 1.787,2.021c0.252,0.294 0.499,0.593 0.749,0.889l0.119,0.145l0.195,0.216l0.609,0.688c0.547,0.631 0.656,0.751 1.202,1.402c0.788,0.94 1.552,1.897 2.299,2.868l3.046,3.392c4.699,6.518 4.703,6.525 8.677,13.509l0.777,1.553l1.501,3.468l0.525,1.154l0.066,0.151l0.404,0.825c0.226,0.485 0.457,0.967 0.678,1.454c0.596,1.317 0.888,2.01 1.427,3.347c0.141,0.351 0.276,0.706 0.411,1.059c0.535,1.394 1.031,2.803 1.486,4.225c0.298,0.931 0.364,1.172 0.642,2.107l0.518,1.265l2.255,7.86l0.267,1.551l0.154,0.606l0.325,1.379l0.244,1.126l1.38,4.833c1.384,8.219 1.385,8.227 1.848,16.548l0,1.407c0.181,-0.386 0.365,-0.77 0.548,-1.154c0.182,-0.377 0.364,-0.754 0.546,-1.13c0.812,-1.66 1.641,-3.312 2.495,-4.951c1.981,-3.798 4.082,-7.533 6.299,-11.198c6.624,-10.95 14.291,-21.267 22.853,-30.778c10.998,-12.217 23.476,-23.096 37.075,-32.329c12.23,-8.303 25.361,-15.274 39.094,-20.745c10.695,-4.261 21.751,-7.613 33.012,-10.01c11.306,-2.406 22.815,-3.848 34.364,-4.321c7.567,-0.31 15.15,-0.206 22.705,0.327c9.95,0.703 19.847,2.148 29.583,4.32c9.149,2.042 18.153,4.727 26.928,8.026c10.359,3.894 20.395,8.645 29.978,14.18c10.696,6.179 20.828,13.336 30.231,21.348c9.047,7.709 17.421,16.207 24.995,25.368c8.268,10.002 15.583,20.793 21.799,32.184c5.61,10.28 10.329,21.044 14.075,32.14c4.436,13.138 7.507,26.734 9.143,40.504c1.311,11.027 1.698,22.158 1.192,33.251c-0.467,10.213 -1.689,20.392 -3.666,30.423c-0.799,4.053 -1.72,8.083 -2.765,12.08c-0.56,2.144 -1.157,4.277 -1.784,6.402l-0.064,0.214c0.328,0.37 0.655,0.74 0.982,1.111l0.638,0.73c1.072,1.232 2.135,2.471 3.186,3.722c1.891,2.252 3.746,4.536 5.561,6.851c5.26,6.705 10.196,13.666 14.781,20.85c6.58,10.309 12.439,21.078 17.511,32.206c4.726,10.366 8.769,21.044 12.089,31.942c4.179,13.717 7.212,27.78 9.058,42c2.47,19.03 2.818,38.338 1.048,57.445c-1.473,15.912 -4.423,31.685 -8.81,47.052c-4.291,15.034 -9.951,29.676 -16.885,43.689c-5.909,11.942 -12.737,23.427 -20.401,34.326c-9.554,13.586 -20.407,26.258 -32.36,37.791c-10.087,9.733 -20.954,18.656 -32.468,26.65c-11.598,8.052 -23.849,15.163 -36.598,21.23c-10.76,5.121 -21.873,9.498 -33.236,13.087c-10.505,3.318 -21.223,5.961 -32.066,7.91c-9.954,1.789 -20.013,2.991 -30.108,3.603c-23.633,1.434 -47.463,-0.353 -70.616,-5.306c-11.287,-2.414 -22.413,-5.579 -33.281,-9.467c-11.458,-4.1 -22.628,-9.002 -33.404,-14.656c-16.663,-8.743 -32.376,-19.285 -46.791,-31.379c-5.177,-4.344 -10.187,-8.887 -15.015,-13.616c-2.383,-2.335 -4.719,-4.717 -7.015,-7.139c-0.102,0.319 -0.206,0.638 -0.31,0.957c-0.473,1.418 -0.964,2.831 -1.487,4.232c-1.034,2.77 -2.174,5.5 -3.415,8.183c-3.538,7.65 -7.908,14.911 -12.999,21.627c-3.983,5.253 -8.407,10.171 -13.207,14.688c-5.444,5.122 -11.371,9.729 -17.677,13.742c-5.54,3.526 -11.371,6.592 -17.415,9.158c-6.559,2.786 -13.37,4.981 -20.321,6.549c-5.919,1.334 -11.939,2.214 -17.992,2.628c-6.357,0.435 -12.749,0.357 -19.094,-0.223c-10.64,-0.972 -21.145,-3.374 -31.14,-7.152c-6.067,-2.293 -11.943,-5.09 -17.548,-8.356c-5.781,-3.368 -11.271,-7.234 -16.389,-11.543c-6.005,-5.056 -11.496,-10.718 -16.364,-16.876c-3.999,-5.06 -7.577,-10.453 -10.686,-16.103c-4.999,-9.084 -8.777,-18.83 -11.224,-28.904c-0.86,-3.541 -1.557,-7.122 -2.088,-10.728c-0.249,-1.692 -0.457,-3.389 -0.639,-5.09l-0.015,-0.153c-0.063,0.379 -0.128,0.759 -0.194,1.138l-0.128,0.714c-0.129,0.698 -0.26,1.394 -0.4,2.09c-0.282,1.402 -0.589,2.798 -0.922,4.189c-0.945,3.948 -2.096,7.847 -3.446,11.676c-3.939,11.174 -9.579,21.738 -16.671,31.229c-3.701,4.952 -7.793,9.61 -12.225,13.92c-1.437,1.398 -2.91,2.759 -4.417,4.082c-0.755,0.663 -1.52,1.314 -2.29,1.959l-0.163,0.135l-0.314,0.281l-0.347,0.277l-0.477,0.407l-0.512,0.432c-1.058,0.882 -2.127,1.751 -3.214,2.597c-1.818,1.416 -3.679,2.778 -5.58,4.082c-6.226,4.27 -12.878,7.917 -19.829,10.863c-6.129,2.598 -12.489,4.651 -18.977,6.139c-6.776,1.555 -13.69,2.494 -20.632,2.834c-3.097,0.153 -6.201,0.191 -9.301,0.101c-3.8,-0.111 -7.594,-0.414 -11.363,-0.906c-11.094,-1.451 -21.96,-4.554 -32.165,-9.138c-10.766,-4.836 -20.778,-11.314 -29.644,-19.101c-2.952,-2.593 -5.778,-5.33 -8.466,-8.196c-0.717,-0.765 -1.425,-1.539 -2.123,-2.322c-0.523,-0.588 -1.039,-1.182 -1.553,-1.778l-1.658,-1.948l-115.106,-150.809l0,76.65c-0.004,1.44 -0.029,2.88 -0.083,4.319c-0.092,2.46 -0.26,4.917 -0.506,7.366c-0.869,8.668 -2.701,17.237 -5.456,25.501c-3.743,11.231 -9.191,21.885 -16.103,31.497c-7.155,9.95 -15.868,18.769 -25.735,26.037c-4.41,3.249 -9.047,6.188 -13.866,8.789c-5.968,3.221 -12.217,5.921 -18.651,8.063c-6.313,2.101 -12.805,3.663 -19.382,4.666c-5.931,0.905 -11.931,1.357 -17.93,1.357c-6,0 -12,-0.452 -17.931,-1.357c-7.307,-1.115 -14.508,-2.92 -21.476,-5.386c-6.375,-2.256 -12.554,-5.064 -18.445,-8.385c-6.63,-3.737 -12.894,-8.121 -18.676,-13.068c-7.679,-6.571 -14.503,-14.133 -20.255,-22.443c-2.011,-2.905 -3.892,-5.901 -5.633,-8.976c-0.908,-1.601 -1.773,-3.224 -2.607,-4.864c-0.453,0.341 -0.908,0.68 -1.362,1.019c-0.954,0.706 -1.912,1.405 -2.872,2.103c-0.521,0.379 -1.04,0.759 -1.562,1.136c-0.823,0.594 -1.648,1.184 -2.478,1.768c-2.697,1.903 -5.427,3.757 -8.19,5.563c-8.74,5.712 -17.796,10.937 -27.102,15.67c-29.173,14.838 -60.742,24.807 -93.028,30.047c-12.414,2.014 -24.939,3.334 -37.498,3.975c-4.338,0.222 -8.68,0.362 -13.023,0.422c-1.088,0.015 -2.175,0.025 -3.262,0.03c-0.425,0.002 -1.666,0.006 -1.995,0.004c-0.167,0 -1.302,-0.013 -1.603,-0.017c-1.061,-0.014 -2.122,-0.033 -3.183,-0.057c-2.933,-0.067 -5.865,-0.172 -8.795,-0.316c-9.039,-0.444 -18.06,-1.257 -27.034,-2.425c-11.982,-1.561 -23.88,-3.752 -35.637,-6.535c-10.706,-2.535 -21.297,-5.555 -31.738,-9.023c-22.69,-7.537 -44.663,-17.18 -65.72,-28.492c-19.155,-10.29 -37.563,-21.957 -55.147,-34.744c-3.959,-2.879 -7.877,-5.816 -11.751,-8.808c-1.038,-0.801 -2.072,-1.606 -3.103,-2.415c-0.374,-0.294 -1.653,-1.299 -1.807,-1.423c-0.315,-0.253 -1.185,-0.976 -1.586,-1.312c-1.324,-1.113 -2.623,-2.255 -3.895,-3.427c-6.961,-6.408 -13.119,-13.68 -18.295,-21.6c-5.728,-8.767 -10.244,-18.317 -13.405,-28.3c-3.881,-12.253 -5.713,-25.141 -5.418,-37.99c0.16,-6.985 0.945,-13.955 2.346,-20.799c1.195,-5.838 2.838,-11.583 4.912,-17.169c3.792,-10.21 9.03,-19.877 15.526,-28.621c0.255,-0.343 0.613,-0.819 0.873,-1.159c0.358,-0.468 0.71,-0.942 1.077,-1.403c0.241,-0.303 1.2,-1.46 1.62,-1.96c1.431,-1.703 2.91,-3.363 4.437,-4.98c4.526,-4.789 9.465,-9.186 14.748,-13.126c5.346,-3.987 11.042,-7.504 17.001,-10.5c6.244,-3.14 12.775,-5.707 19.484,-7.664c9.884,-2.883 20.15,-4.438 30.444,-4.617c2.969,-0.051 5.94,0.011 8.904,0.187c1.602,0.096 3.2,0.228 4.797,0.385l0.343,0.036c-0.475,-0.275 -0.949,-0.552 -1.424,-0.83l-0.884,-0.521c-1.479,-0.879 -2.954,-1.767 -4.418,-2.671c-2.954,-1.824 -5.873,-3.704 -8.753,-5.641c-7.95,-5.346 -15.606,-11.132 -22.886,-17.362c-6.542,-5.599 -12.778,-11.558 -18.647,-17.86c-5.92,-6.357 -11.464,-13.064 -16.579,-20.085c-1.928,-2.647 -3.796,-5.34 -5.6,-8.074c-0.879,-1.333 -1.746,-2.675 -2.593,-4.029c-2.41,-3.853 -4.682,-7.793 -6.811,-11.808c-4.502,-8.496 -8.36,-17.332 -11.534,-26.408c-4.68,-13.385 -7.866,-27.283 -9.54,-41.362c-0.706,-5.942 -1.145,-11.917 -1.32,-17.898c-0.118,-4.044 -0.118,-8.091 0.007,-12.134c0.179,-5.769 0.61,-11.53 1.292,-17.262c1.134,-9.523 2.961,-18.963 5.451,-28.225c2.35,-8.74 5.289,-17.32 8.771,-25.673c5.107,-12.251 11.383,-24.007 18.648,-35.114c6.195,-9.472 13.108,-18.471 20.624,-26.932c7.02,-7.903 14.567,-15.338 22.556,-22.259c3.381,-2.93 6.841,-5.768 10.375,-8.512c1.175,-0.912 2.358,-1.814 3.549,-2.705c0.332,-0.249 1.237,-0.923 1.49,-1.108c0.274,-0.2 1.155,-0.833 1.51,-1.087c0.796,-0.568 1.594,-1.133 2.396,-1.693c2.602,-1.818 5.236,-3.59 7.9,-5.315c9.016,-5.841 18.377,-11.147 28.004,-15.913c28.479,-14.098 59.246,-23.426 90.661,-28.084c10.671,-1.583 21.422,-2.628 32.197,-3.147c3.287,-0.158 6.578,-0.267 9.868,-0.327c1.523,-0.028 3.045,-0.043 4.567,-0.052c0.703,-0.002 1.405,-0.003 2.107,-0.003ZM984.103,683.393l-0.587,0.48l-0.581,0.469l0.92,-0.734c0.099,-0.084 0.44,-0.375 0.248,-0.215ZM984.936,682.67c-0.26,0.227 -0.519,0.454 -0.781,0.679l0.361,-0.299l0.918,-0.821c-0.166,0.147 -0.332,0.294 -0.498,0.441ZM1076.39,44.653c-0.535,0.433 -1.075,0.859 -1.603,1.301c-1.092,0.914 -2.107,1.822 -3.149,2.792c-0.279,0.26 -0.548,0.531 -0.821,0.797l5.944,-5.175c-0.124,0.095 -0.248,0.19 -0.371,0.285ZM1207.5,44.133c1.687,1.45 1.688,1.449 3.33,2.949l-2.317,-2.233l-1.157,-0.833c0.048,0.039 0.096,0.078 0.144,0.117ZM1211.56,46.036c0.48,0.344 0.481,0.342 0.975,0.666c-0.179,-0.133 -0.359,-0.264 -0.539,-0.395c-0.217,-0.155 -0.433,-0.311 -0.651,-0.464c0.072,0.064 0.143,0.128 0.215,0.193ZM1082.24,40.483c-0.469,0.308 -0.943,0.609 -1.408,0.923c-1.003,0.677 -1.935,1.343 -2.906,2.064c-0.267,0.199 -0.528,0.406 -0.792,0.609l5.655,-3.94c-0.183,0.115 -0.366,0.229 -0.549,0.344ZM1203.32,40.891c0.045,0.032 0.091,0.063 0.136,0.094c0.032,0.022 -0.062,-0.042 -0.093,-0.064l-0.022,-0.015l0.754,0.546l1.366,1.043l1.03,0.55l0.355,0.198l-0.027,-0.026l-3.889,-2.608c0.13,0.094 0.26,0.188 0.39,0.282ZM1202.4,40.229l0.185,0.134l4.135,2.371l-0.037,-0.025l-0.737,-0.464c-0.252,-0.154 -0.503,-0.31 -0.756,-0.463c-0.438,-0.263 -1.017,-0.602 -1.461,-0.853c-0.626,-0.355 -0.847,-0.47 -1.471,-0.808l-0.071,-0.037c0.071,0.048 0.142,0.097 0.213,0.145ZM1202.12,40.068l0.229,0.156l0.056,0.032c-0.139,-0.093 -0.278,-0.186 -0.417,-0.279c-0.004,-0.003 -0.016,-0.009 -0.012,-0.007c0.048,0.033 0.096,0.066 0.144,0.098ZM1201.97,40.01c-0.129,-0.083 -0.259,-0.162 -0.388,-0.243l-0.047,-0.025l-0.28,-0.142c0.238,0.136 0.476,0.273 0.715,0.41ZM1084.89,38.865l-0.256,0.153l0.304,-0.167l0.14,-0.093c-0.063,0.036 -0.125,0.071 -0.188,0.107Z" style="fill:#252525;"/><path d="M1127.09,101.036c5.376,-2.574 11.395,-4.017 17.749,-4.017c22.727,0 41.179,18.452 41.179,41.179c0,0.796 -0.023,1.587 -0.068,2.372l0,459.04c0,24.074 -20.191,42.713 -43.489,42.713c-24.074,0 -42.712,-18.639 -42.712,-42.713l0,-382.082l-31.064,17.861c-6.989,4.66 -14.755,6.213 -21.744,6.213c-14.756,0 -28.734,-7.766 -36.5,-21.744c-13.202,-19.415 -6.213,-46.596 13.978,-58.245l95.521,-56.691c0.478,-0.477 7.096,-3.884 7.15,-3.886ZM1547.45,302.953c16.308,-20.968 25.627,-48.149 25.627,-76.883c0,-69.893 -57.467,-127.36 -127.36,-127.36c-71.447,0 -128.914,57.467 -128.914,127.36c0,28.734 9.319,55.915 25.627,76.883c-50.478,33.393 -83.095,90.084 -83.095,154.541c0,101.733 83.872,184.829 186.382,184.829c101.733,0 184.828,-83.096 184.828,-184.829c0,-64.457 -33.393,-121.148 -83.095,-154.541ZM585.543,636.11c24.074,0 42.712,-19.415 42.712,-42.713l0,-110.275l80.765,-82.319l167.744,219.775c8.542,10.096 20.191,15.532 31.84,15.532c10.096,0 19.415,-3.106 27.181,-10.096c18.638,-14.755 21.744,-41.936 6.212,-59.797l-172.403,-225.988l170.85,-170.073c16.309,-17.085 16.309,-44.266 0,-60.574c-17.085,-17.085 -43.489,-17.085 -60.574,0l-251.615,252.392l0,-222.882c0,-22.521 -18.638,-42.712 -42.712,-42.712c-24.075,0 -42.713,20.191 -42.713,42.712l0,454.305c0,23.298 18.638,42.713 42.713,42.713ZM295.486,305.647c39.61,7.767 76.108,17.862 107.17,32.617c31.84,15.532 59.797,35.723 77.659,64.457c11.649,18.638 18.638,41.936 18.638,66.01c0,49.702 -27.957,92.414 -66.787,120.371c-38.053,27.958 -88.531,44.266 -143.669,44.266c-83.872,-0.777 -154.542,-42.712 -198.807,-77.659c-17.085,-13.979 -19.415,-39.606 -6.213,-56.691c13.979,-17.085 39.606,-19.415 56.691,-5.436c34.17,27.957 93.191,60.574 148.329,59.797c38.829,0 73.776,-11.649 97.074,-28.734c23.297,-17.085 33.393,-36.499 33.393,-55.914c0,-10.096 -2.33,-17.085 -6.989,-24.851c-4.66,-7.766 -11.649,-15.532 -23.298,-23.298c-22.521,-14.755 -60.574,-27.957 -106.393,-36.499l-1.553,0c-36.5,-6.99 -70.67,-16.309 -100.18,-30.287c-29.511,-13.979 -55.138,-33.394 -72.223,-60.575c-11.649,-18.638 -17.862,-40.382 -17.862,-63.68c0,-46.595 26.404,-86.978 62.128,-113.382c36.499,-26.404 83.871,-41.159 134.35,-41.159c74.552,0 129.69,36.499 169.296,62.127c17.862,12.425 23.298,37.276 10.873,55.138c-0.929,1.486 -1.943,2.889 -3.03,4.205l17.718,17.718l25.275,0c3.786,0.003 6.854,3.073 6.854,6.854c0,3.781 -3.068,6.851 -6.854,6.855l-21.081,0l0,21.254c0,3.783 -3.072,6.854 -6.855,6.854c-3.783,0 -6.854,-3.071 -6.854,-6.854l0,-25.09l-18.707,-18.707c-12.474,7.203 -28.561,7.255 -41.604,-1.44c-39.606,-26.404 -77.659,-49.702 -125.031,-49.702c-34.947,0 -66.01,10.872 -86.978,26.404c-20.968,15.532 -29.511,32.617 -29.511,48.925c0,9.319 1.553,15.532 5.436,21.745c3.883,6.212 10.873,13.202 20.968,20.191c20.191,13.978 55.135,26.403 97.074,34.17l1.553,0ZM1445.72,557.674c-55.915,0 -100.957,-45.042 -101.734,-100.18c0.777,-55.138 45.819,-100.957 101.734,-100.957c55.137,0 100.18,45.819 100.18,100.957c0,55.138 -45.043,100.18 -100.18,100.18ZM982.592,491.119l-12.551,42.121c-0.078,0.161 -0.107,0.387 -0.136,0.612c-0.273,1.224 -0.046,2.57 0.738,3.588c1.471,1.908 4.286,2.272 6.194,0.802l36.953,-28.484c1.845,-1.422 2.209,-4.238 0.738,-6.146c-1.47,-1.908 -4.237,-2.209 -6.082,-0.787l-26.204,20.199l12.595,-42.459c0.693,-2.257 -0.656,-4.665 -2.963,-5.422c-1.435,-0.414 -2.972,-0.041 -4.004,0.856l-0.064,0.049l-36.952,28.485c-1.908,1.47 -2.322,4.222 -0.802,6.194c1.422,1.845 4.237,2.209 6.145,0.738l26.395,-20.346ZM968.048,439.366c-4.707,-6.106 -11.629,-9.693 -18.817,-10.337c-7.238,-0.707 -14.648,1.254 -20.945,6.107c-6.297,4.854 -10.143,11.57 -11.238,18.7c-1.143,7.067 0.5,14.723 5.206,20.829c4.511,5.851 11.496,9.389 18.523,9.955c7.174,0.756 14.746,-1.126 21.043,-5.98c6.296,-4.854 9.981,-11.648 11.139,-18.827c1.306,-6.989 -0.401,-14.596 -4.911,-20.447ZM941.83,475.595c-4.921,-0.465 -9.384,-2.703 -12.325,-6.519c-3.138,-4.071 -4.166,-8.956 -3.363,-13.834c0.676,-4.779 3.408,-9.521 7.733,-12.855c4.325,-3.334 9.606,-4.769 14.464,-4.255c4.921,0.465 9.32,2.752 12.458,6.823c2.942,3.816 4.033,8.652 3.23,13.53c-0.788,4.765 -3.471,9.571 -7.796,12.904c-4.325,3.334 -9.656,4.706 -14.401,4.206ZM886.563,428.362c4.314,5.597 10.081,9.264 16.286,10.868c2.385,0.595 4.871,-0.915 5.579,-3.286c0.545,-2.448 -1.014,-4.998 -3.223,-5.627c-4.496,-1.097 -8.352,-3.6 -11.391,-7.544c-3.383,-4.388 -4.74,-9.831 -4.246,-14.978c0.593,-5.019 3.163,-9.84 7.488,-13.173c4.325,-3.334 9.514,-4.495 14.646,-3.888c5.103,0.832 10.021,3.53 13.404,7.919c3.04,3.943 4.528,8.372 4.395,12.936c-0.017,2.345 2.051,4.502 4.622,4.549c2.472,-0.081 4.502,-2.051 4.598,-4.558c0.028,-6.41 -2.05,-12.919 -6.364,-18.516c-9.869,-12.672 -28.247,-15.337 -40.89,-5.693c-12.608,9.82 -14.709,28.271 -4.904,40.991ZM910.084,369.168c-0.032,-2.409 -2.017,-4.327 -4.538,-4.309l-23.266,0.596l6.499,-22.348c0.757,-2.307 -0.592,-4.715 -2.963,-5.422c-2.37,-0.708 -4.778,0.641 -5.373,3.026l-7.92,26.688l-17.172,13.237c-1.972,1.519 -2.224,4.35 -0.802,6.194c1.52,1.972 4.223,2.322 6.195,0.802l17.172,-13.237l27.923,-0.738c2.36,-0.095 4.277,-2.08 4.245,-4.489ZM868.188,340.728c7.569,-5.834 8.968,-16.646 3.134,-24.215l-8.727,-11.321l-0.049,-0.064c-1.471,-1.908 -4.223,-2.321 -6.194,-0.801l-37.526,28.925c-1.908,1.471 -2.272,4.287 -0.801,6.195c1.519,1.971 4.335,2.336 6.243,0.865l13.802,-10.639l6.03,7.823c5.834,7.569 16.646,8.968 24.088,3.232ZM858.232,314.132l6.03,7.823c2.843,3.689 2.124,8.806 -1.516,11.713c-3.611,2.682 -8.743,2.075 -11.586,-1.614l-6.03,-7.823l13.102,-10.099ZM1445.72,183.358c23.297,0 42.712,19.415 42.712,42.712c0,24.075 -19.415,44.266 -42.712,44.266c-24.851,0 -44.266,-20.191 -44.266,-44.266c0,-23.297 19.415,-42.712 44.266,-42.712ZM446.782,162.436c2.702,-4.437 1.293,-10.232 -3.144,-12.934l-13.919,-8.476c-4.437,-2.701 -10.232,-1.292 -12.934,3.144c-2.702,4.437 -1.293,10.233 3.144,12.935l13.919,8.475c4.437,2.702 10.232,1.293 12.934,-3.144Z" style="fill:url(#_Linear1);"/><defs><linearGradient id="_Linear1" x1="0" y1="0" x2="1" y2="0" gradientUnits="userSpaceOnUse" gradientTransform="matrix(1787.17,0,0,567.323,-156.626,358.661)"><stop offset="0%" style="stop-color:#01ff99;stop-opacity:1"/><stop offset="100%" style="stop-color:#29e0ff;stop-opacity:1"/></linearGradient></defs></svg>