<?xml version="1.0" standalone="no"?><!DOCTYPE svg PUBLIC "-//W3C//DTD SVG 1.1//EN" "http://www.w3.org/Graphics/SVG/1.1/DTD/svg11.dtd"><svg width="100%" height="100%" viewBox="0 0 3491 2257" version="1.1" xmlns="http://www.w3.org/2000/svg" xmlns:xlink="http://www.w3.org/1999/xlink" xml:space="preserve" style="fill-rule:evenodd;clip-rule:evenodd;stroke-linejoin:round;stroke-miterlimit:1.41421;"><path d="M2863.99,2142.46l0,90.751c0,12.547 -10.456,23.002 -23.42,23.002c-12.965,0 -23.002,-10.455 -23.002,-23.002l0,-246.744c0,-12.964 10.037,-23.001 23.002,-23.001l74.859,0c49.768,0 89.497,40.148 89.497,89.915c0,27.602 -12.546,51.858 -32.62,68.586c5.437,4.182 10.455,9.201 14.637,15.474c8.365,12.128 13.801,27.602 13.801,45.167c-0.418,12.546 0.837,20.492 1.673,24.674c6.692,2.091 12.128,7.11 14.638,14.219c4.182,12.128 -2.51,25.093 -14.638,29.275c-1.673,0.418 -5.018,1.255 -9.2,1.255l-0.419,0c-4.182,0 -10.455,-0.837 -16.31,-4.601c-5.437,-3.345 -10.037,-8.782 -13.383,-14.637c-5.855,-12.128 -8.782,-27.184 -8.782,-50.185c-0.418,-7.946 -2.091,-13.383 -5.019,-17.983c-2.509,-4.601 -7.527,-8.783 -12.546,-12.128c-8.782,-5.855 -19.654,-9.2 -23.42,-10.037l-49.348,0ZM2735.18,2256.22l-135.5,0c-0.837,0 -0.837,-0.418 -0.837,-0.418l-0.418,0.418c-12.965,0 -23.002,-10.455 -23.002,-23.002l0,-246.744c0,-12.964 10.037,-23.001 23.002,-23.001l136.755,0c12.128,0 23.001,10.037 23.001,23.001c0,12.964 -10.872,23.419 -23.001,23.42l-113.335,0l0,76.532l97.443,0c12.547,0.002 23.001,10.875 23.001,23.002c0,12.964 -10.454,23.419 -23.001,23.42l-97.443,0l0,76.95l113.335,0c12.129,0.002 23.001,10.456 23.001,23.42c0,12.546 -10.872,23.001 -23.001,23.002ZM2487.18,2256.22l-135.5,0c-0.837,0 -0.837,-0.418 -0.837,-0.418l-0.418,0.418c-12.964,0 -23.001,-10.455 -23.001,-23.002l0,-246.744c0,-12.964 10.036,-23.001 23.001,-23.001l136.755,0c12.129,0 23.002,10.037 23.002,23.001c0,12.964 -10.873,23.419 -23.002,23.42l-113.335,0l0,76.532l97.443,0c12.547,0.001 23.002,10.874 23.002,23.002c0,12.964 -10.455,23.419 -23.002,23.42l-97.443,0l0,76.95l113.335,0c12.129,0.001 23.002,10.456 23.002,23.42c0,12.546 -10.873,23.001 -23.002,23.002ZM2168.92,2009.89l0,223.324c0,12.965 -10.037,23.002 -23.002,23.002c-12.546,0 -23.001,-10.037 -23.001,-23.002l0,-223.324l-66.077,0c-12.965,-0.001 -23.002,-10.874 -23.002,-23.42c0,-12.964 10.037,-23.001 23.002,-23.001l178.575,0c12.547,0 23.002,10.037 23.002,23.001c0,12.546 -10.454,23.419 -23.002,23.42l-66.495,0ZM601.889,2255.8c-1.674,0.418 -2.928,0.418 -4.182,0.418c-1.255,0 -2.927,0 -4.182,-0.418l-0.837,0c-0.837,-0.419 -2.509,-0.837 -3.345,-0.837c0,-0.412 -0.407,-0.418 -0.419,-0.418l-0.418,0c-0.837,-0.419 -2.509,-1.673 -3.764,-2.509l-0.418,0c-0.837,-0.837 -1.673,-1.255 -2.927,-2.091c0,-0.419 -0.419,-0.419 -0.419,-1.255c-0.836,-0.836 -1.672,-1.673 -2.091,-2.509c0,0 -0.418,0 -0.418,-0.418c-0.418,-0.837 -1.255,-2.51 -2.091,-3.346l-102.461,-244.235c-5.019,-11.292 0.418,-25.093 12.546,-29.693c11.292,-5.018 24.674,0.418 29.693,12.128l81.551,193.632l81.551,-193.632c5.018,-11.71 18.819,-17.146 30.111,-12.128c11.71,4.6 17.147,18.401 12.546,29.693l-103.298,244.235c-0.418,0.836 -0.836,2.509 -1.673,3.346c0,0.418 0,0.418 -0.418,0.418c-0.418,0.836 -1.673,1.673 -2.091,2.509c-0.418,0.836 -0.418,0.836 -0.836,1.255c-0.837,0.836 -1.673,1.254 -2.509,2.091l-0.837,0.418c-0.836,0.418 -2.091,1.673 -3.346,2.091c-0.418,0 -0.418,0 -0.836,0.418c-1.254,0 -2.09,0.418 -3.346,0.837l-0.836,0ZM1317.87,2256.22l-136.755,0c-12.964,0 -23.001,-10.455 -23.001,-23.002l0,-246.744c0,-12.546 10.037,-23.001 23.001,-23.001c12.965,0 23.42,10.455 23.42,23.001l0,223.324l113.335,0c12.129,0.001 23.002,10.456 23.002,23.42c0,12.546 -10.873,23.001 -23.002,23.002ZM933.53,1955.1c-40.149,0 -76.951,17.147 -102.462,44.749c-25.929,27.602 -41.403,64.404 -41.403,105.807c0,41.403 15.474,78.624 41.403,105.807c25.511,27.184 62.313,44.749 102.462,44.749c38.475,0 75.278,-17.565 99.952,-44.749c25.929,-27.183 42.239,-64.404 42.239,-105.807c0,-41.403 -16.31,-78.205 -42.239,-105.807c-24.674,-27.602 -61.477,-44.749 -99.952,-44.749ZM1779.99,2059.66l133.828,185.685c0.418,0.837 1.254,1.673 2.091,2.51c4.182,5.018 10.455,8.364 17.146,8.364c12.547,0 23.002,-10.455 23.002,-23.002l0,-242.98c0,-12.128 -10.455,-22.583 -23.002,-22.583c-12.546,0 -22.583,10.455 -22.583,22.583l0,172.303l-135.082,-186.94c-7.11,-10.037 -21.329,-12.128 -31.784,-5.019c-6.273,4.6 -9.619,12.128 -9.201,19.238l0,243.398c0,12.547 10.038,23.002 23.002,23.002c12.128,0 22.583,-10.455 22.583,-23.002l0,-173.557ZM1635.7,2135.35l0,-148.883c0,-12.964 -10.037,-23.001 -23.002,-23.001c-12.964,0 -23.42,10.037 -23.42,23.001l0,148.883c0,40.985 -33.038,74.441 -74.441,74.441c-40.985,0 -74.441,-33.456 -74.441,-74.441l0,-148.883c0,-12.964 -10.874,-23.001 -23.42,-23.001c-12.965,0 -23.002,10.037 -23.002,23.001l0,148.883c0,66.495 53.531,120.863 120.863,120.863c66.914,0 120.863,-54.368 120.863,-120.863ZM3299.85,1969.48l33.802,104.032l109.385,0l-88.494,64.295l33.802,104.031l-88.495,-64.295l-88.494,64.295l33.802,-104.031l-88.495,-64.295l109.386,0l33.801,-104.032ZM190.504,1969.48l33.802,104.032l109.385,0l-88.494,64.295l33.802,104.031l-88.495,-64.295l-88.494,64.295l33.802,-104.031l-88.495,-64.295l109.386,0l33.801,-104.032ZM999.607,2178.43c-17.565,18.819 -40.985,30.111 -66.077,30.111c-26.766,0 -50.186,-11.292 -67.75,-30.111c-17.565,-17.983 -28.439,-44.331 -28.439,-72.769c0,-28.438 10.874,-54.785 28.439,-73.187c17.564,-18.819 40.984,-29.693 67.75,-29.693c25.092,0 48.512,10.874 66.077,29.693c17.147,18.402 28.438,44.749 28.438,73.187c0,28.438 -11.291,54.786 -28.438,72.769ZM2915.43,2009.89l-51.439,0l0,86.151l51.439,0c23.839,0 43.076,-19.238 43.076,-42.657c0,-24.256 -19.237,-43.494 -43.076,-43.494ZM790.311,1555.62c5.479,0.034 9.672,4.43 9.672,9.737l0,70.912c0,24.066 -19.657,44.091 -44.091,44.091c-6.797,0 -13.594,-1.653 -19.29,-4.593c-4.776,-2.204 -6.981,-8.267 -4.409,-13.227c2.389,-4.96 8.084,-6.797 13.228,-4.593c3.123,1.654 6.613,2.572 10.471,2.572c11.941,0 21.678,-8.451 24.066,-19.657c-6.613,4.593 -15.064,7.348 -24.066,7.348c-12.125,0 -23.331,-5.327 -31.231,-13.962c-7.899,-8.083 -12.86,-19.473 -12.86,-32.333c0,-12.676 4.961,-24.066 12.86,-32.7c7.9,-8.267 19.106,-13.595 31.231,-13.595c9.553,0 18.004,2.939 24.617,7.716c0.919,-4.409 4.961,-7.716 9.737,-7.716l0.065,0ZM2361.96,1555.62c5.479,0.034 9.672,4.43 9.672,9.737l0,70.912c0,24.066 -19.657,44.091 -44.091,44.091c-6.797,0 -13.595,-1.653 -19.29,-4.593c-4.776,-2.204 -6.981,-8.267 -4.409,-13.227c2.388,-4.96 8.083,-6.797 13.227,-4.593c3.123,1.654 6.614,2.572 10.472,2.572c11.941,0 21.678,-8.451 24.066,-19.657c-6.613,4.593 -15.064,7.348 -24.066,7.348c-12.125,0 -23.331,-5.327 -31.231,-13.962c-7.9,-8.083 -12.86,-19.473 -12.86,-32.333c0,-12.676 4.96,-24.066 12.86,-32.7c7.9,-8.267 19.106,-13.595 31.231,-13.595c9.553,0 18.004,2.939 24.617,7.716c0.919,-4.409 4.96,-7.716 9.737,-7.716l0.065,0ZM523.562,1555.62c5.48,0.034 9.672,4.43 9.672,9.737l0,70.912c0,24.066 -19.657,44.091 -44.091,44.091c-6.797,0 -13.594,-1.653 -19.289,-4.593c-4.777,-2.204 -6.981,-8.267 -4.41,-13.227c2.389,-4.96 8.084,-6.797 13.228,-4.593c3.123,1.654 6.613,2.572 10.471,2.572c11.941,0 21.678,-8.451 24.066,-19.657c-6.613,4.593 -15.064,7.348 -24.066,7.348c-12.125,0 -23.331,-5.327 -31.231,-13.962c-7.899,-8.083 -12.859,-19.473 -12.859,-32.333c0,-12.676 4.96,-24.066 12.859,-32.7c7.9,-8.267 19.106,-13.595 31.231,-13.595c9.553,0 18.004,2.939 24.618,7.716c0.918,-4.409 4.96,-7.716 9.736,-7.716l0.065,0ZM1958.35,1555.62c5.302,0.033 9.859,4.247 9.859,9.737l0,69.443c0,24.617 -19.474,43.907 -43.908,43.907c-6.613,0 -13.41,-1.838 -18.922,-4.593c-5.144,-2.205 -6.981,-7.9 -4.776,-13.044c2.388,-4.409 8.634,-6.43 13.043,-4.041c3.491,1.653 6.981,2.572 10.655,2.572c10.839,-0.184 20.025,-7.165 22.964,-16.718c-5.144,2.939 -11.39,4.409 -17.452,4.409c-21.127,0 -38.396,-17.453 -38.396,-38.58l0,-43.355c0,-5.512 4.593,-9.737 9.553,-9.737c5.695,0 9.737,4.225 9.737,9.737l0,43.355c0,10.656 8.634,18.739 19.106,18.739c10.471,0 18.922,-8.083 18.922,-18.739l0,-43.355c0,-5.512 4.042,-9.737 9.553,-9.737l0.062,0ZM1210.03,1648.02c12.125,0 23.147,-5.328 30.679,-13.962c8.267,-8.084 12.86,-19.474 12.86,-32.334c0,-12.492 -4.593,-23.331 -12.86,-32.149c-7.532,-8.634 -18.554,-13.962 -30.679,-13.962c-12.676,0 -23.332,5.328 -31.599,13.962c-7.899,8.818 -12.676,19.657 -12.676,32.149c0,12.86 4.777,24.25 12.676,32.334c8.267,8.634 18.923,13.962 31.599,13.962ZM2047.02,1648.02c12.125,0 23.147,-5.328 30.679,-13.962c8.267,-8.084 12.86,-19.474 12.86,-32.334c0,-12.492 -4.593,-23.331 -12.86,-32.149c-7.532,-8.634 -18.554,-13.962 -30.679,-13.962c-12.676,0 -23.332,5.328 -31.599,13.962c-7.899,8.818 -12.676,19.657 -12.676,32.149c0,12.86 4.777,24.25 12.676,32.334c8.267,8.634 18.923,13.962 31.599,13.962ZM2962.45,1648.02c12.125,0 23.148,-5.328 30.68,-13.962c8.267,-8.084 12.86,-19.474 12.86,-32.334c0,-12.492 -4.593,-23.331 -12.86,-32.149c-7.532,-8.634 -18.555,-13.962 -30.68,-13.962c-12.676,0 -23.331,5.328 -31.598,13.962c-7.899,8.818 -12.676,19.657 -12.676,32.149c0,12.86 4.777,24.25 12.676,32.334c8.267,8.634 18.922,13.962 31.598,13.962ZM1286.08,1528.98l0,108.389c0,5.512 4.593,10.105 10.104,10.105c5.695,0 10.288,-4.593 10.288,-10.105l0,-108.389c0,-5.512 -4.593,-10.104 -10.288,-10.104c-5.511,0 -10.104,4.592 -10.104,10.104ZM3443.04,1637.37l0,-3.674c0,-5.511 -4.409,-10.104 -9.92,-10.104c-5.511,0 -10.104,4.593 -10.104,10.104l0,3.674c0,5.696 4.593,10.105 10.104,10.105c5.511,0 9.92,-4.409 9.92,-10.105ZM3375.13,1518.87c5.481,0.036 9.856,4.613 9.856,9.92l0,108.757c0,5.328 -4.409,9.921 -9.921,9.921c-4.96,0 -8.818,-3.491 -9.737,-7.9c-6.981,4.776 -15.799,7.9 -24.984,7.9c-24.801,0 -44.642,-20.944 -44.642,-45.745c0,-25.168 19.841,-46.111 44.642,-46.111c9.002,0 17.82,2.939 24.617,7.716l0,-34.538c0,-5.328 4.409,-9.92 10.104,-9.92l0.065,0ZM599.921,1609.63c-5.695,-1.102 -11.206,-2.572 -15.983,-4.776c-4.96,-2.389 -9.369,-5.696 -12.676,-10.656c-2.021,-3.307 -3.123,-7.348 -3.123,-11.574c0,-8.45 4.777,-15.615 10.839,-20.208c6.43,-4.409 14.146,-6.797 22.597,-6.797c12.676,0 21.678,6.062 27.556,10.104c4.409,2.939 5.695,9.002 2.94,13.595c-2.94,4.409 -9.002,5.695 -13.595,2.572c-5.879,-3.858 -11.023,-6.798 -16.901,-6.798c-4.593,0 -8.635,1.47 -11.023,3.307c-2.388,1.654 -2.939,3.307 -2.939,4.225c0,0.735 0,0.919 0.367,1.47c0.184,0.368 0.735,1.102 2.021,1.837c2.388,1.654 7.165,3.307 13.411,4.409l0.183,0.184l0.184,0c6.063,1.102 11.758,2.756 17.085,5.328c4.961,2.204 9.921,5.695 13.044,10.839c2.204,3.674 3.49,7.899 3.49,12.125c0,9.001 -4.96,16.534 -11.573,21.31c-6.614,4.593 -14.881,7.349 -23.883,7.349c-14.329,-0.184 -25.352,-6.798 -32.701,-12.676c-4.041,-3.307 -4.592,-9.553 -1.286,-13.595c3.307,-4.409 9.737,-4.96 13.779,-1.47c4.776,4.042 13.043,8.267 20.208,8.083c4.96,0 9.553,-1.653 12.492,-3.49c2.572,-2.205 3.307,-4.042 3.307,-5.511c0,-0.919 -0.184,-1.286 -0.551,-1.837c-0.184,-0.552 -0.918,-1.286 -2.388,-2.205c-2.572,-1.837 -8.083,-3.858 -14.697,-5.144l-0.184,0ZM2661.35,1555.8c-5.512,0 -9.921,4.225 -9.921,10.104l0,71.647c0,5.512 4.409,9.921 9.921,9.921c5.695,0 9.92,-4.409 9.92,-9.921l0,-71.647c0,-5.879 -4.225,-10.104 -9.92,-10.104ZM135.866,1518.87c5.512,0 10.104,4.409 10.104,10.104c0,5.511 -4.592,10.288 -10.104,10.288l-29.21,0l0,98.101c0,5.696 -4.409,10.105 -10.104,10.105c-5.511,0 -10.104,-4.409 -10.104,-10.105l0,-98.101l-29.026,0c-5.696,-0.001 -10.105,-4.777 -10.105,-10.288c0,-5.695 4.409,-10.104 10.105,-10.104l78.444,0ZM853.627,1608.16c0.918,4.226 2.939,9.002 6.246,12.125c3.858,4.409 11.206,7.716 17.636,8.267c6.614,0.551 14.513,-1.102 19.106,-4.592c3.858,-4.042 11.39,-3.491 13.778,-0.552c2.389,2.572 4.226,8.084 0,11.942c-9.001,8.267 -19.84,12.125 -32.884,12.125c-25.168,-0.184 -44.642,-20.944 -44.825,-45.928c0.183,-24.985 19.657,-45.928 44.825,-45.928c23.883,0 42.805,17.82 44.275,42.621c0,0.184 0,0.551 0,0.918c0,0.368 0,1.286 -0.184,1.654c-0.551,4.409 -4.409,7.348 -9.553,7.348l-58.42,0ZM3204.4,1608.16c0.919,4.226 2.94,9.002 6.247,12.125c3.857,4.409 11.206,7.716 17.636,8.267c6.613,0.551 14.513,-1.102 19.106,-4.592c3.858,-4.042 11.39,-3.491 13.778,-0.552c2.388,2.572 4.226,8.084 0,11.942c-9.002,8.267 -19.841,12.125 -32.884,12.125c-25.169,-0.184 -44.642,-20.944 -44.826,-45.928c0.184,-24.985 19.657,-45.928 44.826,-45.928c23.882,0 42.805,17.82 44.274,42.621c0,0.184 0,0.551 0,0.918c0,0.368 0,1.286 -0.183,1.654c-0.552,4.409 -4.409,7.348 -9.553,7.348l-58.421,0ZM3038.51,1528.98l0,108.389c0,5.512 4.593,10.105 10.104,10.105c5.695,0 10.288,-4.593 10.288,-10.105l0,-108.389c0,-5.512 -4.593,-10.104 -10.288,-10.104c-5.511,0 -10.104,4.592 -10.104,10.104ZM2528.71,1555.62l0,-26.638c0,-5.695 4.593,-10.104 10.288,-10.104c5.695,0 10.104,4.409 10.104,10.104l0,26.638l4.593,0c5.511,0 10.287,4.409 10.287,10.104c0,5.511 -4.776,10.104 -10.287,10.104l-4.593,0l0,51.256c5.695,0 10.104,4.592 10.104,10.287c0,5.696 -4.409,10.105 -10.104,10.105c-11.207,0 -20.392,-9.186 -20.392,-20.392l0,-51.256l-5.328,0c-5.695,0 -10.104,-4.593 -10.104,-10.104c0,-5.695 4.409,-10.104 10.104,-10.104l5.328,0ZM957.056,1555.62l0,-26.638c0,-5.695 4.593,-10.104 10.288,-10.104c5.695,0 10.104,4.409 10.104,10.104l0,26.638l4.593,0c5.511,0 10.288,4.409 10.288,10.104c0,5.511 -4.777,10.104 -10.288,10.104l-4.593,0l0,51.256c5.695,0 10.104,4.592 10.104,10.287c0,5.696 -4.409,10.105 -10.104,10.105c-11.206,0 -20.392,-9.186 -20.392,-20.392l0,-51.256l-5.328,0c-5.695,0 -10.104,-4.593 -10.104,-10.104c0,-5.695 4.409,-10.104 10.104,-10.104l5.328,0ZM2425.28,1608.16c0.919,4.226 2.94,9.002 6.247,12.125c3.858,4.409 11.206,7.716 17.636,8.267c6.613,0.551 14.513,-1.102 19.106,-4.592c3.858,-4.042 11.39,-3.491 13.778,-0.552c2.388,2.572 4.226,8.084 0,11.942c-9.002,8.267 -19.841,12.125 -32.884,12.125c-25.169,-0.184 -44.642,-20.944 -44.826,-45.928c0.184,-24.985 19.657,-45.928 44.826,-45.928c23.882,0 42.805,17.82 44.274,42.621c0,0.184 0,0.551 0,0.918c0,0.368 0,1.286 -0.183,1.654c-0.551,4.409 -4.409,7.348 -9.553,7.348l-58.421,0ZM194.654,1595.85c0.184,-10.839 8.818,-19.657 19.657,-19.841c11.023,0.184 19.841,9.002 19.841,19.841l0,41.518c0,5.696 4.409,10.105 10.104,10.105c5.695,0 10.104,-4.409 10.104,-10.105l0,-41.518c0,-22.046 -17.82,-40.233 -40.049,-40.233c-7.165,0 -13.778,2.204 -19.657,5.328l0,-31.966c0,-5.695 -4.593,-10.104 -10.288,-10.104c-5.511,0 -10.104,4.409 -10.104,10.104l0,108.389c0,0.919 0.184,1.838 0.367,2.572c1.286,4.226 5.144,7.533 9.737,7.533c5.695,0 10.288,-4.409 10.288,-10.105l0,-41.518ZM1735.81,1555.8c-5.512,0 -9.921,4.225 -9.921,10.104l0,71.647c0,5.512 4.409,9.921 9.921,9.921c5.695,0 9.92,-4.409 9.92,-9.921l0,-71.647c0,-5.879 -4.225,-10.104 -9.92,-10.104ZM1451.98,1608.16c0.918,4.226 2.939,9.002 6.246,12.125c3.858,4.409 11.206,7.716 17.636,8.267c6.614,0.551 14.513,-1.102 19.106,-4.592c3.858,-4.042 11.39,-3.491 13.778,-0.552c2.389,2.572 4.226,8.084 0,11.942c-9.001,8.267 -19.84,12.125 -32.884,12.125c-25.168,-0.184 -44.642,-20.944 -44.826,-45.928c0.184,-24.985 19.658,-45.928 44.826,-45.928c23.883,0 42.805,17.82 44.274,42.621c0,0.184 0,0.551 0,0.918c0,0.368 0,1.286 -0.183,1.654c-0.551,4.409 -4.409,7.348 -9.553,7.348l-58.42,0ZM296.981,1555.8c-5.511,0 -9.92,4.225 -9.92,10.104l0,71.647c0,5.512 4.409,9.921 9.92,9.921c5.695,0 9.921,-4.409 9.921,-9.921l0,-71.647c0,-5.879 -4.226,-10.104 -9.921,-10.104ZM1107.15,1609.63c-5.695,-1.102 -11.206,-2.572 -15.983,-4.776c-4.96,-2.389 -9.369,-5.696 -12.676,-10.656c-2.02,-3.307 -3.123,-7.348 -3.123,-11.574c0,-8.45 4.777,-15.615 10.839,-20.208c6.43,-4.409 14.146,-6.797 22.597,-6.797c12.676,0 21.678,6.062 27.556,10.104c4.409,2.939 5.695,9.002 2.94,13.595c-2.94,4.409 -9.002,5.695 -13.595,2.572c-5.879,-3.858 -11.023,-6.798 -16.901,-6.798c-4.593,0 -8.635,1.47 -11.023,3.307c-2.388,1.654 -2.939,3.307 -2.939,4.225c0,0.735 0,0.919 0.367,1.47c0.184,0.368 0.735,1.102 2.021,1.837c2.388,1.654 7.165,3.307 13.411,4.409l0.184,0.184l0.183,0c6.063,1.102 11.758,2.756 17.085,5.328c4.961,2.204 9.921,5.695 13.044,10.839c2.204,3.674 3.49,7.899 3.49,12.125c0,9.001 -4.96,16.534 -11.573,21.31c-6.614,4.593 -14.881,7.349 -23.883,7.349c-14.329,-0.184 -25.352,-6.798 -32.7,-12.676c-4.042,-3.307 -4.593,-9.553 -1.286,-13.595c3.306,-4.409 9.736,-4.96 13.778,-1.47c4.776,4.042 13.043,8.267 20.208,8.083c4.96,0 9.553,-1.653 12.492,-3.49c2.572,-2.205 3.307,-4.042 3.307,-5.511c0,-0.919 -0.183,-1.286 -0.551,-1.837c-0.184,-0.552 -0.918,-1.286 -2.388,-2.205c-2.572,-1.837 -8.083,-3.858 -14.697,-5.144l-0.184,0ZM2845.24,1646.74c-0.552,-0.184 -0.919,-0.551 -1.654,-0.919c0,-0.184 -0.184,-0.184 -0.184,-0.184c-0.367,-0.367 -0.734,-0.551 -1.102,-1.102c-0.183,0 -0.183,0 -0.367,-0.184c-0.184,-0.367 -0.551,-0.918 -0.919,-1.285c-0.183,0 -0.183,0 -0.183,-0.184c-0.368,-0.184 -0.552,-0.735 -0.735,-1.286l-29.762,-71.28c-2.204,-4.96 0.184,-10.288 5.328,-12.493c4.409,-2.204 10.104,0.368 12.309,5.328l21.127,49.97l21.31,-49.97c2.021,-4.96 7.532,-7.532 12.309,-5.328c5.144,2.205 7.532,7.533 5.327,12.493l-30.128,71.28c-0.184,0.551 -0.551,1.102 -0.735,1.286c0,0.184 -0.184,0.184 -0.184,0.184c-0.161,0.16 -0.321,0.356 -0.482,0.556l-0.138,0.173c-0.161,0.2 -0.321,0.396 -0.482,0.556c0,0.184 -0.184,0.184 -0.184,0.184c-0.367,0.551 -0.735,0.735 -1.102,1.102c0,0 -0.184,0 -0.184,0.184c-0.367,0.368 -0.735,0.735 -1.286,0.919l-0.367,0l0,0.183c-0.551,0 -1.103,0.184 -1.47,0.368c-0.184,0 -0.184,0 -0.367,0c-0.735,0.184 -1.286,0.184 -1.837,0.184c-0.368,0 -0.919,0 -1.654,-0.184l-0.367,0c-0.551,-0.184 -0.919,-0.368 -1.47,-0.368l0,-0.183l-0.367,0ZM2741.08,1555.62c-7.164,0 -13.962,2.204 -19.473,5.695c-1.654,-3.491 -5.144,-5.695 -9.002,-5.695c-5.511,0 -9.737,4.409 -9.737,9.737l0,72.382c0,5.328 4.226,9.737 9.737,9.737c4.776,0 8.818,-3.491 9.737,-7.9c0.367,-0.735 0.367,-1.286 0.367,-1.837l0,-43.907c0,-10.288 8.083,-18.555 18.371,-18.555c10.472,0 19.106,8.267 19.106,18.555l0,43.907c0,5.328 4.593,9.737 9.737,9.737c5.328,0 9.553,-4.409 9.553,-9.737l0,-43.907c0,-20.76 -17.085,-38.212 -38.396,-38.212ZM2196.92,1609.26l0,-43.907c0,-5.144 -4.776,-9.737 -9.92,-9.737c-5.512,0 -9.553,4.593 -9.553,9.737l0,43.907c-0.184,10.471 -8.635,18.738 -19.29,18.738c-10.471,0 -18.738,-8.267 -18.738,-18.738l0,-43.907c0,-5.144 -4.226,-9.737 -9.737,-9.737c-5.328,0 -9.737,4.593 -9.737,9.737l0,43.907c0,20.943 17.269,38.212 38.212,38.212c21.127,0 38.763,-17.269 38.763,-38.212ZM1622.71,1518.87c5.481,0.036 9.856,4.613 9.856,9.92l0,108.757c0,5.328 -4.409,9.921 -9.921,9.921c-4.96,0 -8.818,-3.491 -9.736,-7.9c-6.981,4.776 -15.799,7.9 -24.985,7.9c-24.801,0 -44.642,-20.944 -44.642,-45.745c0,-25.168 19.841,-46.111 44.642,-46.111c9.002,0 17.82,2.939 24.617,7.716l0,-34.538c0,-5.328 4.409,-9.92 10.104,-9.92l0.065,0ZM1360.3,1646.74c-0.552,-0.184 -0.919,-0.551 -1.654,-0.919c0,-0.184 -0.184,-0.184 -0.184,-0.184c-0.367,-0.367 -0.734,-0.551 -1.102,-1.102c-0.184,0 -0.184,0 -0.367,-0.184c-0.184,-0.367 -0.551,-0.918 -0.919,-1.285c-0.184,0 -0.184,0 -0.184,-0.184c-0.367,-0.184 -0.551,-0.735 -0.734,-1.286l-29.762,-71.28c-2.204,-4.96 0.184,-10.288 5.328,-12.493c4.409,-2.204 10.104,0.368 12.309,5.328l21.127,49.97l21.31,-49.97c2.021,-4.96 7.532,-7.532 12.309,-5.328c5.144,2.205 7.532,7.533 5.327,12.493l-30.128,71.28c-0.184,0.551 -0.551,1.102 -0.735,1.286c0,0.184 -0.184,0.184 -0.184,0.184c-0.161,0.16 -0.321,0.356 -0.482,0.556l-0.138,0.173c-0.161,0.2 -0.321,0.396 -0.482,0.556c0,0.184 -0.184,0.184 -0.184,0.184c-0.367,0.551 -0.735,0.735 -1.102,1.102c0,0 -0.184,0 -0.184,0.184c-0.367,0.368 -0.735,0.735 -1.286,0.919l-0.367,0l0,0.183c-0.551,0 -1.102,0.184 -1.47,0.368l-0.367,0c-0.735,0.184 -1.286,0.184 -1.837,0.184c-0.368,0 -0.919,0 -1.654,-0.184l-0.367,0c-0.552,-0.184 -0.919,-0.368 -1.47,-0.368l0,-0.183l-0.367,0ZM3112.72,1646.74c-0.551,-0.184 -0.918,-0.551 -1.653,-0.919c0,-0.184 -0.184,-0.184 -0.184,-0.184c-0.367,-0.367 -0.735,-0.551 -1.102,-1.102c-0.184,0 -0.184,0 -0.367,-0.184c-0.184,-0.367 -0.552,-0.918 -0.919,-1.285c-0.184,0 -0.184,0 -0.184,-0.184c-0.367,-0.184 -0.551,-0.735 -0.735,-1.286l-29.761,-71.28c-2.204,-4.96 0.184,-10.288 5.328,-12.493c4.409,-2.204 10.104,0.368 12.308,5.328l21.127,49.97l21.311,-49.97c2.021,-4.96 7.532,-7.532 12.308,-5.328c5.144,2.205 7.533,7.533 5.328,12.493l-30.129,71.28c-0.183,0.551 -0.551,1.102 -0.734,1.286c0,0.184 -0.184,0.184 -0.184,0.184c-0.161,0.16 -0.322,0.356 -0.482,0.556l-0.138,0.173c-0.161,0.2 -0.322,0.396 -0.482,0.556c0,0.184 -0.184,0.184 -0.184,0.184c-0.368,0.551 -0.735,0.735 -1.102,1.102c0,0 -0.184,0 -0.184,0.184c-0.367,0.368 -0.735,0.735 -1.286,0.919l-0.367,0l0,0.183c-0.552,0 -1.103,0.184 -1.47,0.368l-0.368,0c-0.735,0.184 -1.286,0.184 -1.837,0.184c-0.367,0 -0.918,0 -1.653,-0.184l-0.368,0c-0.551,-0.184 -0.918,-0.368 -1.469,-0.368l0,-0.183l-0.368,0ZM376.712,1555.62c-7.165,0 -13.962,2.204 -19.474,5.695c-1.653,-3.491 -5.143,-5.695 -9.001,-5.695c-5.512,0 -9.737,4.409 -9.737,9.737l0,72.382c0,5.328 4.225,9.737 9.737,9.737c4.776,0 8.818,-3.491 9.736,-7.9c0.368,-0.735 0.368,-1.286 0.368,-1.837l0,-43.907c0,-10.288 8.083,-18.555 18.371,-18.555c10.471,0 19.106,8.267 19.106,18.555l0,43.907c0,5.328 4.593,9.737 9.737,9.737c5.327,0 9.553,-4.409 9.553,-9.737l0,-43.907c0,-20.76 -17.086,-38.212 -38.396,-38.212ZM1787.25,1552.12l0,-2.572c0,-6.797 0.735,-12.676 3.49,-18.003c2.572,-5.512 7.716,-9.737 13.228,-11.39c3.674,-1.103 7.164,-1.47 11.022,-1.47c5.512,0 10.104,4.593 10.104,10.104c0,5.695 -4.592,10.288 -10.104,10.288c-2.388,0 -4.041,0.184 -4.776,0.551c-0.735,0.184 -0.919,0.367 -1.103,0.551c-0.183,0 -1.653,2.572 -1.653,9.369l0,2.572l5.511,0c5.512,0 10.105,4.41 10.105,10.105c0,5.511 -4.593,10.104 -10.105,10.104l-5.511,0l0,64.85c0,5.511 -4.409,10.104 -10.104,10.104c-5.695,0 -10.104,-4.593 -10.104,-10.104l0,-64.85l-4.777,0c-5.695,0 -10.288,-4.593 -10.288,-10.104c0,-5.695 4.593,-10.105 10.288,-10.105l4.777,0ZM506.596,1620.83c-4.777,4.961 -10.472,7.533 -17.453,7.533c-6.43,0 -12.492,-2.572 -16.901,-7.533c-4.409,-4.225 -7.349,-11.206 -7.349,-18.922c0,-7.348 2.94,-14.329 7.349,-18.738c4.409,-5.144 10.471,-7.9 16.901,-7.9c6.981,0 12.676,2.756 17.453,7.9c4.041,4.409 6.981,11.39 6.981,18.738c0,7.716 -2.94,14.697 -6.981,18.922ZM2345,1620.83c-4.777,4.961 -10.472,7.533 -17.453,7.533c-6.43,0 -12.492,-2.572 -16.901,-7.533c-4.41,-4.225 -7.349,-11.206 -7.349,-18.922c0,-7.348 2.939,-14.329 7.349,-18.738c4.409,-5.144 10.471,-7.9 16.901,-7.9c6.981,0 12.676,2.756 17.453,7.9c4.041,4.409 6.981,11.39 6.981,18.738c0,7.716 -2.94,14.697 -6.981,18.922ZM773.345,1620.83c-4.777,4.961 -10.472,7.533 -17.453,7.533c-6.43,0 -12.492,-2.572 -16.901,-7.533c-4.409,-4.225 -7.349,-11.206 -7.349,-18.922c0,-7.348 2.94,-14.329 7.349,-18.738c4.409,-5.144 10.471,-7.9 16.901,-7.9c6.981,0 12.676,2.756 17.453,7.9c4.041,4.409 6.981,11.39 6.981,18.738c0,7.716 -2.94,14.697 -6.981,18.922ZM1192.39,1582.62c4.593,-4.041 10.656,-6.981 17.637,-6.981c6.43,0 12.308,2.94 16.901,6.981c4.593,4.961 7.165,11.574 7.165,19.106c0,7.9 -2.572,14.33 -7.165,19.474c-4.593,4.409 -10.471,6.797 -16.901,6.797c-6.981,0 -13.044,-2.388 -17.637,-6.797c-4.225,-5.144 -6.613,-11.574 -6.613,-19.474c0,-7.532 2.388,-14.145 6.613,-19.106ZM2029.38,1582.62c4.593,-4.041 10.656,-6.981 17.637,-6.981c6.43,0 12.308,2.94 16.901,6.981c4.593,4.961 7.165,11.574 7.165,19.106c0,7.9 -2.572,14.33 -7.165,19.474c-4.593,4.409 -10.471,6.797 -16.901,6.797c-6.981,0 -13.044,-2.388 -17.637,-6.797c-4.225,-5.144 -6.613,-11.574 -6.613,-19.474c0,-7.532 2.388,-14.145 6.613,-19.106ZM2944.81,1582.62c4.593,-4.041 10.655,-6.981 17.636,-6.981c6.43,0 12.309,2.94 16.902,6.981c4.593,4.961 7.165,11.574 7.165,19.106c0,7.9 -2.572,14.33 -7.165,19.474c-4.593,4.409 -10.472,6.797 -16.902,6.797c-6.981,0 -13.043,-2.388 -17.636,-6.797c-4.225,-5.144 -6.613,-11.574 -6.613,-19.474c0,-7.532 2.388,-14.145 6.613,-19.106ZM3357.61,1583.17c4.592,4.592 7.348,11.206 7.348,18.554c0,6.981 -2.756,13.595 -7.348,18.188c-4.593,4.776 -10.472,7.532 -17.269,7.532c-6.614,0 -12.676,-2.756 -17.269,-7.532c-4.593,-4.593 -7.349,-11.207 -7.349,-18.188c0,-7.348 2.756,-13.962 7.349,-18.554c4.593,-4.777 10.655,-7.533 17.269,-7.533c6.797,0 12.676,2.756 17.269,7.533ZM1605.19,1583.17c4.593,4.592 7.348,11.206 7.348,18.554c0,6.981 -2.755,13.595 -7.348,18.188c-4.593,4.776 -10.472,7.532 -17.269,7.532c-6.614,0 -12.676,-2.756 -17.269,-7.532c-4.593,-4.593 -7.348,-11.207 -7.348,-18.188c0,-7.348 2.755,-13.962 7.348,-18.554c4.593,-4.777 10.655,-7.533 17.269,-7.533c6.797,0 12.676,2.756 17.269,7.533ZM3433.12,1613.3c5.511,0 9.92,-4.409 9.92,-10.104l0,-74.219c0,-5.512 -4.409,-10.104 -9.92,-10.104c-5.511,0 -10.104,4.592 -10.104,10.104l0,74.219c0,5.695 4.593,10.104 10.104,10.104ZM2476.35,1592.54c-1.837,-7.349 -11.206,-18.188 -27.189,-19.474c-15.616,0.735 -23.331,11.942 -24.801,19.474l51.99,0ZM1503.05,1592.54c-1.837,-7.349 -11.206,-18.188 -27.189,-19.474c-15.615,0.735 -23.331,11.942 -24.801,19.474l51.99,0ZM904.698,1592.54c-1.837,-7.349 -11.206,-18.188 -27.189,-19.474c-15.615,0.735 -23.331,11.942 -24.801,19.474l51.99,0ZM3255.47,1592.54c-1.837,-7.349 -11.206,-18.188 -27.189,-19.474c-15.616,0.735 -23.332,11.942 -24.801,19.474l51.99,0ZM306.902,1528.79c0,-5.511 -4.226,-9.92 -9.921,-9.92c-5.511,0 -9.92,4.409 -9.92,9.92l0,3.858c0,5.511 4.409,10.104 9.92,10.104c5.695,0 9.921,-4.593 9.921,-10.104l0,-3.858ZM2671.27,1528.79c0,-5.511 -4.225,-9.92 -9.92,-9.92c-5.512,0 -9.921,4.409 -9.921,9.92l0,3.858c0,5.511 4.409,10.104 9.921,10.104c5.695,0 9.92,-4.593 9.92,-10.104l0,-3.858ZM1745.73,1528.79c0,-5.511 -4.225,-9.92 -9.92,-9.92c-5.512,0 -9.921,4.409 -9.921,9.92l0,3.858c0,5.511 4.409,10.104 9.921,10.104c5.695,0 9.92,-4.593 9.92,-10.104l0,-3.858ZM2904.39,1204.17c0,22.42 17.359,39.77 39.778,39.77c21.699,0 40.499,-17.35 40.499,-39.77l0,-426.705c0,-22.419 -18.8,-39.778 -40.499,-39.778c-22.419,0 -39.778,17.359 -39.778,39.778l0,426.705ZM1997.47,1124.61l-35.439,94.018c-6.51,15.909 -21.691,25.309 -37.6,25.309c-5.069,0 -9.409,-0.72 -13.748,-2.169c-20.971,-7.951 -31.099,-31.091 -23.861,-52.069l159.826,-425.977c6.51,-15.909 22.419,-26.038 38.337,-25.309c16.631,-0.729 31.82,9.4 38.33,25.309l159.825,425.977c7.239,20.978 -2.89,44.118 -23.86,52.069c-3.619,1.449 -8.679,2.169 -13.74,2.169c-15.918,0 -31.099,-9.4 -36.888,-25.309l-35.438,-94.018l-175.744,0ZM1635.14,1236.71c-1.449,-1.441 -2.898,-2.17 -5.068,-3.611c0,-0.728 -0.721,-0.728 -0.721,-2.17c-1.441,-1.449 -2.89,-2.898 -3.611,-4.339c0,0 -0.728,0 -0.728,-0.729c-0.721,-1.441 -2.17,-4.34 -3.611,-5.781l-177.194,-422.365c-8.679,-19.521 0.721,-43.39 21.699,-51.349c19.529,-8.679 42.669,0.729 51.349,20.979l141.025,334.849l141.026,-334.849c8.68,-20.25 32.548,-29.658 52.077,-20.979c20.25,7.959 29.65,31.828 21.691,51.349l-178.634,422.365c-0.721,1.441 -1.442,4.34 -2.891,5.781c0,0.729 0,0.729 -0.72,0.729c-0.729,1.441 -2.899,2.89 -3.62,4.339c-0.72,1.442 -0.72,1.442 -1.449,2.17c-1.441,1.441 -2.89,2.17 -4.331,3.611l-1.45,0.729c-1.449,0.721 -3.619,2.891 -5.789,3.611c-0.72,0 -0.72,0 -1.441,0.721c-2.17,0 -3.619,0.728 -5.789,1.449c0,0 -0.721,0 -1.449,0c-2.891,0.72 -5.061,0.72 -7.231,0.72c-2.17,0 -5.06,0 -7.23,-0.72l-1.449,0c-1.441,-0.721 -4.34,-1.449 -5.781,-1.449c0,-0.713 -0.712,-0.721 -0.729,-0.721l-0.72,0c-1.45,-0.72 -4.34,-2.89 -6.51,-4.34l-0.721,0ZM3202.36,1124.61l-35.438,94.018c-6.51,15.909 -21.699,25.309 -37.609,25.309c-5.06,0 -9.4,-0.72 -13.74,-2.169c-20.978,-7.951 -31.099,-31.091 -23.868,-52.069l159.834,-425.977c6.51,-15.909 22.419,-26.038 38.329,-25.309c16.639,-0.729 31.819,9.4 38.329,25.309l159.834,425.977c7.231,20.978 -2.89,44.118 -23.868,52.069c-3.611,1.449 -8.68,2.169 -13.74,2.169c-15.91,0 -31.099,-9.4 -36.88,-25.309l-35.439,-94.018l-175.744,0ZM1110.81,723.225c-69.436,0 -133.075,29.65 -177.193,77.387c-44.839,47.73 -71.598,111.377 -71.598,182.975c0,71.597 26.759,135.965 71.598,182.974c44.118,47.008 107.757,77.378 177.193,77.378c66.529,0 130.177,-30.37 172.845,-77.378c44.839,-47.009 73.048,-111.377 73.048,-182.974c0,-71.598 -28.209,-135.245 -73.048,-182.975c-42.668,-47.737 -106.316,-77.387 -172.845,-77.387ZM2422.01,1243.94c22.419,0 39.778,-18.079 39.778,-39.77l0,-102.696l75.209,-76.667l156.215,204.673c7.959,9.4 18.808,14.46 29.658,14.46c9.4,0 18.079,-2.89 25.31,-9.4c17.359,-13.739 20.249,-39.049 5.789,-55.688l-160.555,-210.454l159.105,-158.385c15.19,-15.909 15.19,-41.227 0,-56.416c-15.909,-15.91 -40.499,-15.91 -56.408,0l-234.323,235.051l0,-207.564c0,-20.978 -17.359,-39.778 -39.778,-39.778c-22.42,0 -39.779,18.8 -39.779,39.778l0,423.086c0,21.691 17.359,39.77 39.779,39.77ZM782.463,1243.94l-236.492,0c-22.42,0 -39.779,-18.079 -39.779,-39.77l0,-426.705c0,-21.699 17.359,-39.778 39.779,-39.778c22.419,0 40.499,18.079 40.499,39.778l0,386.198l195.993,0c20.978,0 39.779,18.088 39.779,40.507c0,21.691 -18.8,39.77 -39.779,39.77ZM205.332,938.019c36.888,7.23 70.877,16.639 99.806,30.378c29.65,14.461 55.689,33.269 72.327,60.028c10.841,17.359 17.351,39.05 17.351,61.469c0,46.288 -26.03,86.067 -62.198,112.105c-35.43,26.031 -82.447,41.22 -133.796,41.22c-78.107,-0.721 -143.916,-39.779 -185.144,-72.318c-15.909,-13.02 -18.079,-36.889 -5.78,-52.798c13.019,-15.91 36.879,-18.08 52.789,-5.061c31.828,26.031 86.787,56.409 138.135,55.689c36.168,0 68.708,-10.85 90.407,-26.76c21.699,-15.909 31.099,-33.997 31.099,-52.077c0,-9.4 -2.17,-15.909 -6.51,-23.14c-4.34,-7.23 -10.849,-14.468 -21.699,-21.698c-20.97,-13.74 -56.408,-26.031 -99.077,-33.99l-1.45,0c-33.989,-6.509 -65.808,-15.189 -93.296,-28.208c-27.48,-13.02 -51.349,-31.099 -67.258,-56.409c-10.85,-17.359 -16.631,-37.608 -16.631,-59.307c0,-43.39 24.589,-80.998 57.858,-105.587c33.99,-24.59 78.108,-38.33 125.116,-38.33c69.428,0 120.777,33.99 157.665,57.858c16.63,11.57 21.69,34.71 10.12,51.349c-0.861,1.383 -1.805,2.691 -2.824,3.917l16.506,16.498l23.538,0c3.52,0 6.377,2.857 6.377,6.385c0,3.52 -2.857,6.378 -6.377,6.386l-19.637,0l0,19.786c0,3.528 -2.857,6.385 -6.377,6.385c-3.528,0 -6.385,-2.857 -6.385,-6.385l0,-23.364l-17.426,-17.417c-11.611,6.708 -26.593,6.758 -38.743,-1.342c-36.888,-24.589 -72.318,-46.288 -116.437,-46.288c-32.548,0 -61.477,10.121 -81.006,24.589c-19.52,14.461 -27.479,30.379 -27.479,45.56c0,8.679 1.449,14.468 5.06,20.257c3.619,5.781 10.129,12.291 19.529,18.801c18.808,13.019 51.348,24.589 90.406,31.819l1.441,0ZM1225.08,1109.42c-30.378,32.548 -70.877,52.069 -114.267,52.069c-46.288,0 -86.787,-19.521 -117.165,-52.069c-30.379,-31.099 -49.179,-76.658 -49.179,-125.836c0,-49.179 18.8,-94.746 49.179,-126.566c30.378,-32.548 70.877,-51.348 117.165,-51.348c43.39,0 83.889,18.8 114.267,51.348c29.649,31.82 49.178,77.387 49.178,126.566c0,49.178 -19.529,94.737 -49.178,125.836ZM2143.57,1045.06l-58.579,-155.495l-58.586,155.495l117.165,0ZM3348.45,1045.06l-58.579,-155.495l-58.579,155.495l117.158,0ZM346.234,804.654c2.517,-4.133 1.201,-9.533 -2.932,-12.05l-12.961,-7.893c-4.133,-2.509 -9.525,-1.201 -12.042,2.932c-2.518,4.133 -1.201,9.524 2.923,12.042l12.97,7.893c4.124,2.517 9.524,1.209 12.042,-2.924ZM2050.27,180.813l231.432,321.109c0.721,1.441 2.17,2.891 3.611,4.34c7.239,8.671 18.088,14.46 29.658,14.46c21.691,0 39.779,-18.079 39.779,-39.778l0,-420.187c0,-20.979 -18.088,-39.058 -39.779,-39.058c-21.699,0 -39.058,18.079 -39.058,39.058l0,297.961l-233.602,-323.279c-12.29,-17.351 -36.879,-20.97 -54.959,-8.68c-10.849,7.959 -16.639,20.978 -15.91,33.269l0,420.916c0,21.699 17.351,39.778 39.77,39.778c20.979,0 39.058,-18.079 39.058,-39.778l0,-300.131ZM1601.15,0c-69.436,0 -133.075,29.658 -177.193,77.387c-44.839,47.737 -71.598,111.376 -71.598,182.974c0,71.598 26.759,135.966 71.598,182.974c44.118,47.009 107.757,77.387 177.193,77.387c66.529,0 130.177,-30.378 172.845,-77.387c44.839,-47.008 73.048,-111.376 73.048,-182.974c0,-71.598 -28.209,-135.237 -73.048,-182.974c-42.668,-47.729 -106.316,-77.387 -172.845,-77.387ZM3386.79,204.673c15.181,-19.529 23.86,-44.839 23.86,-71.598c0,-65.088 -53.518,-118.606 -118.606,-118.606c-66.538,0 -120.056,53.518 -120.056,118.606c0,26.759 8.68,52.069 23.869,71.598c-47.009,31.099 -77.387,83.897 -77.387,143.925c0,94.737 78.107,172.124 173.574,172.124c94.746,0 172.125,-77.387 172.125,-172.124c0,-60.028 -31.099,-112.826 -77.379,-143.925ZM2999.14,14.469c0.72,0.72 2.17,0.72 2.89,0.72c2.17,0 2.891,0.729 4.34,1.45c0.72,0 2.17,0 2.89,0.72c2.17,1.449 2.891,2.17 4.34,2.17c0.721,0.729 1.449,1.449 2.891,2.17c0.728,0.72 2.169,1.449 2.898,2.17c1.441,0.72 2.17,2.17 2.891,2.89c0.72,0.729 1.449,1.449 2.17,2.899c0.72,0.72 2.169,2.17 2.89,2.89l0.729,1.45c0,0.72 0.72,1.441 0.72,2.169c0.721,1.442 1.45,2.17 1.45,3.611c0.72,1.45 0.72,2.899 1.441,3.62c0,1.449 0.729,2.89 0.729,3.619c0,2.162 0,3.611 1.441,5.06l0,428.867c0,22.419 -18.801,39.778 -40.499,39.778c-22.42,0 -39.779,-17.359 -39.779,-39.778l0,-355.82l-28.929,16.631c-6.509,4.339 -13.74,5.789 -20.249,5.789c-13.74,0 -26.759,-7.239 -33.99,-20.25c-12.298,-18.088 -5.789,-43.397 13.02,-54.247l88.957,-52.789c0.314,-0.323 0.77,-0.497 1.242,-0.663l0.406,-0.132c0.472,-0.158 0.927,-0.34 1.242,-0.655c1.449,0 2.17,-1.449 3.619,-2.169c0.63,0 1.259,-0.141 1.897,-0.299l0.538,-0.132c0.638,-0.157 1.267,-0.29 1.905,-0.29c0.721,-0.729 2.162,-0.729 2.89,-0.729c1.442,-0.72 3.611,-0.72 5.061,-0.72l7.959,0ZM1255.56,420.477c4.191,15.777 -0.638,33.368 -13.856,43.837c-45.559,35.438 -103.417,56.408 -167.064,56.408c-144.645,0 -264.693,-116.436 -265.422,-260.361c0.729,-143.196 120.777,-259.632 265.422,-260.361c63.647,0 121.505,20.978 167.064,56.417c17.359,14.46 20.25,39.778 7.239,57.858c-14.469,18.08 -41.228,20.97 -57.858,7.951c-31.828,-26.031 -71.607,-39.779 -116.445,-39.779c-49.899,0 -96.187,20.25 -130.177,52.077c-32.548,33.269 -52.797,76.659 -52.797,125.837c0,49.179 20.249,94.017 52.797,125.845c33.99,31.82 80.278,52.069 130.177,52.069c44.838,0 83.896,-13.74 116.445,-39.778c16.63,-12.291 43.389,-9.4 57.858,7.959c0.455,0.637 0.894,1.283 1.316,1.938l26.702,-21.053l2.766,-23.372c0.414,-3.495 3.586,-6.005 7.089,-5.59c3.495,0.414 6.005,3.594 5.591,7.089l-2.311,19.496l19.653,2.327c3.503,0.414 6.005,3.594 5.59,7.089c-0.414,3.495 -3.586,6.005 -7.089,5.591l-23.198,-2.75l-29.492,23.256ZM781.743,27.488c-17.359,-13.019 -41.949,-9.4 -55.689,8.679l-123.675,169.235l-123.666,-169.235c-12.299,-18.079 -36.888,-21.698 -54.968,-8.679c-18.08,13.019 -21.691,37.608 -7.951,54.959l146.815,203.232l0,195.265c0,22.419 18.8,39.778 39.77,39.778c22.428,0 39.779,-17.359 39.779,-39.778l0,-195.265l148.264,-203.232c12.291,-17.351 8.68,-41.94 -8.679,-54.959ZM193.042,14.469c86.058,0 155.494,69.428 155.494,155.494c0,84.617 -69.436,154.045 -155.494,154.045l-88.957,0l0,156.936c0,21.699 -18.08,39.778 -40.499,39.778c-21.699,0 -39.779,-18.079 -39.779,-39.778l0,-426.697c0,-22.419 18.08,-39.778 39.779,-39.778l129.456,0ZM1208.79,421.272c-2.874,-3.884 -8.373,-4.704 -12.257,-1.822l-12.2,9.036c-3.884,2.874 -4.704,8.373 -1.822,12.257c2.883,3.884 8.374,4.704 12.266,1.822l12.191,-9.027c3.884,-2.882 4.704,-8.373 1.822,-12.266ZM3292.04,441.894c-52.069,0 -94.017,-41.948 -94.738,-93.296c0.721,-51.349 42.669,-94.018 94.738,-94.018c51.348,0 93.297,42.669 93.297,94.018c0,51.348 -41.949,93.296 -93.297,93.296ZM1715.42,386.206c-30.379,32.54 -70.877,52.069 -114.267,52.069c-46.288,0 -86.787,-19.529 -117.165,-52.069c-30.379,-31.099 -49.179,-76.666 -49.179,-125.845c0,-49.178 18.8,-94.738 49.179,-126.565c30.378,-32.54 70.877,-51.349 117.165,-51.349c43.39,0 83.888,18.809 114.267,51.349c29.649,31.827 49.178,77.387 49.178,126.565c0,49.179 -19.529,94.746 -49.178,125.845ZM193.042,243.731c41.948,0 74.488,-33.269 75.217,-73.768c-0.729,-41.948 -33.269,-75.217 -75.217,-75.217l-88.957,0l0,148.985l88.957,0ZM2748.18,12.299c13.739,0 24.589,8.679 24.589,23.868c0,4.34 -1.449,10.121 -2.891,15.91l-52.797,160.555c-5.061,13.74 -13.02,22.419 -26.759,22.419c-14.461,0 -25.31,-10.849 -24.59,-27.479l13.02,-154.774c1.449,-23.14 17.359,-40.499 41.219,-40.499l28.209,0ZM3292.04,93.297c21.699,0 39.778,18.079 39.778,39.778c0,22.42 -18.079,41.228 -39.778,41.228c-23.14,0 -41.22,-18.808 -41.22,-41.228c0,-21.699 18.08,-39.778 41.22,-39.778Z" style="fill:#2e2e2e;"/></svg>