<?xml version="1.0" standalone="no"?>
<!DOCTYPE svg PUBLIC "-//W3C//DTD SVG 1.1//EN" "http://www.w3.org/Graphics/SVG/1.1/DTD/svg11.dtd">
<svg width="100%" height="100%" viewBox="0 0 1500 500" version="1.1" xmlns="http://www.w3.org/2000/svg" xmlns:xlink="http://www.w3.org/1999/xlink" xml:space="preserve" style="fill-rule:evenodd;clip-rule:evenodd;stroke-linejoin:round;stroke-miterlimit:1.41421;">
    <g transform="matrix(1.43091,0,0,2.26328,-707.47,-1086.15)">
        <rect x="494.419" y="479.9" width="1048.28" height="220.918" style="fill:rgb(37,37,37);"/>
    </g>
    <g transform="matrix(0.592794,0,0,0.592794,165.216,-600.44)">
        <path d="M471.269,1180.24C471.269,1148.51 445.669,1122.9 413.935,1122.9L366.469,1122.9L366.202,1122.9C358.202,1122.9 351.535,1129.31 351.535,1137.57L351.535,1294.9C351.535,1302.9 358.202,1309.57 366.202,1309.57C374.469,1309.57 381.135,1302.9 381.135,1294.9L381.135,1237.04L413.935,1237.04C445.669,1237.04 471.269,1211.44 471.269,1180.24ZM381.135,1152.51L413.935,1152.51C429.402,1152.51 441.402,1164.77 441.669,1180.24C441.402,1195.17 429.402,1207.44 413.935,1207.44L381.135,1207.44L381.135,1152.51Z" style="fill:url(#_Linear1);fill-rule:nonzero;"/>
        <path d="M631.002,1127.7C624.602,1122.9 615.535,1124.24 610.469,1130.9L564.869,1193.31L519.269,1130.9C514.735,1124.24 505.669,1122.9 499.002,1127.7C492.335,1132.51 491.002,1141.57 496.069,1147.97L550.202,1222.9L550.202,1294.9C550.202,1303.17 557.135,1309.57 564.869,1309.57C573.135,1309.57 579.535,1303.17 579.535,1294.9L579.535,1222.9L634.202,1147.97C638.735,1141.57 637.402,1132.51 631.002,1127.7Z" style="fill:url(#_Linear2);fill-rule:nonzero;"/>
        <path d="M933.135,1117.57C907.535,1117.57 884.069,1128.51 867.802,1146.11C851.269,1163.7 841.402,1187.17 841.402,1213.57C841.402,1239.97 851.269,1263.7 867.802,1281.04C884.069,1298.37 907.535,1309.57 933.135,1309.57C957.669,1309.57 981.135,1298.37 996.869,1281.04C1013.4,1263.7 1023.8,1239.97 1023.8,1213.57C1023.8,1187.17 1013.4,1163.7 996.869,1146.11C981.135,1128.51 957.669,1117.57 933.135,1117.57ZM975.269,1259.97C964.069,1271.97 949.135,1279.17 933.135,1279.17C916.069,1279.17 901.135,1271.97 889.935,1259.97C878.735,1248.51 871.802,1231.7 871.802,1213.57C871.802,1195.44 878.735,1178.64 889.935,1166.9C901.135,1154.9 916.069,1147.97 933.135,1147.97C949.135,1147.97 964.069,1154.9 975.269,1166.9C986.202,1178.64 993.402,1195.44 993.402,1213.57C993.402,1231.7 986.202,1248.51 975.269,1259.97Z" style="fill:url(#_Linear3);fill-rule:nonzero;"/>
        <path d="M1098.74,1184.24L1184.07,1302.64C1184.34,1303.17 1184.87,1303.7 1185.4,1304.24C1188.07,1307.44 1192.07,1309.57 1196.34,1309.57C1204.34,1309.57 1211,1302.9 1211,1294.9L1211,1139.97C1211,1132.24 1204.34,1125.57 1196.34,1125.57C1188.34,1125.57 1181.93,1132.24 1181.93,1139.97L1181.93,1249.84L1095.8,1130.64C1091.27,1124.24 1082.2,1122.9 1075.54,1127.44C1071.54,1130.37 1069.4,1135.17 1069.67,1139.7L1069.67,1294.9C1069.67,1302.9 1076.07,1309.57 1084.34,1309.57C1092.07,1309.57 1098.74,1302.9 1098.74,1294.9L1098.74,1184.24Z" style="fill:url(#_Linear4);fill-rule:nonzero;"/>
        <g transform="matrix(1,0,0,1,60,0)">
            <path d="M1265.67,1194.11C1265.4,1200.24 1269.4,1204.24 1274.74,1204.24C1279.8,1204.24 1282.74,1201.04 1284.6,1195.97L1304.07,1136.77C1304.6,1134.64 1305.13,1132.51 1305.13,1130.9C1305.13,1125.31 1301.13,1122.11 1296.07,1122.11L1285.67,1122.11C1276.87,1122.11 1271,1128.51 1270.47,1137.04L1265.67,1194.11Z" style="fill:url(#_Linear5);fill-rule:nonzero;"/>
        </g>
        <path d="M1461.4,1136.77C1460.87,1136.24 1460.87,1135.7 1460.87,1134.9C1460.87,1134.64 1460.6,1134.11 1460.6,1133.57C1460.34,1133.31 1460.34,1132.77 1460.07,1132.24C1460.07,1131.7 1459.8,1131.44 1459.54,1130.9C1459.54,1130.64 1459.27,1130.37 1459.27,1130.11L1459,1129.57C1458.74,1129.31 1458.2,1128.77 1457.93,1128.51C1457.67,1127.97 1457.4,1127.7 1457.13,1127.44C1456.87,1127.17 1456.6,1126.64 1456.07,1126.37C1455.8,1126.11 1455.27,1125.84 1455,1125.57C1454.47,1125.31 1454.2,1125.04 1453.93,1124.77C1453.4,1124.77 1453.13,1124.51 1452.34,1123.97C1452.07,1123.7 1451.54,1123.7 1451.27,1123.7C1450.74,1123.44 1450.47,1123.17 1449.67,1123.17C1449.4,1123.17 1448.87,1123.17 1448.6,1122.9C1448.07,1122.9 1447.54,1122.9 1446.74,1122.9L1446.47,1122.9C1446.2,1122.9 1445.93,1122.9 1445.67,1122.9C1445.13,1122.9 1444.34,1122.9 1443.8,1123.17C1443.54,1123.17 1443,1123.17 1442.74,1123.44C1442.2,1123.44 1441.67,1123.7 1441.13,1123.7C1440.6,1123.97 1440.34,1124.51 1439.8,1124.51C1439.54,1124.77 1439,1124.77 1438.74,1125.04L1405.93,1144.51C1399,1148.51 1396.6,1157.84 1401.13,1164.51C1403.8,1169.31 1408.6,1171.97 1413.67,1171.97C1416.07,1171.97 1418.74,1171.44 1421.13,1169.84L1431.8,1163.7L1431.8,1294.9C1431.8,1303.17 1438.2,1309.57 1446.47,1309.57C1454.47,1309.57 1461.4,1303.17 1461.4,1294.9L1461.4,1137.57C1461.4,1137.31 1461.4,1137.04 1461.4,1136.77Z" style="fill:url(#_Linear6);fill-rule:nonzero;"/>
        <path d="M1591.54,1193.04C1597.13,1185.84 1600.34,1176.51 1600.34,1166.64C1600.34,1142.64 1580.6,1122.9 1556.6,1122.9C1532.07,1122.9 1512.34,1142.64 1512.34,1166.64C1512.34,1176.51 1515.54,1185.84 1521.13,1193.04C1503.8,1204.51 1492.6,1223.97 1492.6,1246.11C1492.6,1281.04 1521.4,1309.57 1556.6,1309.57C1591.54,1309.57 1620.07,1281.04 1620.07,1246.11C1620.07,1223.97 1608.6,1204.51 1591.54,1193.04ZM1556.6,1151.97C1564.6,1151.97 1571.27,1158.64 1571.27,1166.64C1571.27,1174.9 1564.6,1181.84 1556.6,1181.84C1548.07,1181.84 1541.4,1174.9 1541.4,1166.64C1541.4,1158.64 1548.07,1151.97 1556.6,1151.97ZM1556.6,1280.51C1537.4,1280.51 1521.93,1265.04 1521.67,1246.11C1521.93,1227.17 1537.4,1211.44 1556.6,1211.44C1575.54,1211.44 1591,1227.17 1591,1246.11C1591,1265.04 1575.54,1280.51 1556.6,1280.51Z" style="fill:url(#_Linear7);fill-rule:nonzero;"/>
        <path d="M544.069,1576.24L631.269,1576.24C639.002,1576.24 645.935,1569.57 645.935,1561.57C645.935,1553.31 639.002,1546.64 631.269,1546.64L559.002,1546.64L559.002,1404.24C559.002,1396.24 552.335,1389.57 544.069,1389.57C535.802,1389.57 529.402,1396.24 529.402,1404.24L529.402,1561.57C529.402,1569.57 535.802,1576.24 544.069,1576.24Z" style="fill:url(#_Linear8);fill-rule:nonzero;"/>
        <path d="M752.335,1384.24C726.735,1384.24 703.269,1395.17 687.002,1412.77C670.469,1430.37 660.602,1453.84 660.602,1480.24C660.602,1506.64 670.469,1530.37 687.002,1547.7C703.269,1565.04 726.735,1576.24 752.335,1576.24C776.869,1576.24 800.335,1565.04 816.069,1547.7C832.602,1530.37 843.002,1506.64 843.002,1480.24C843.002,1453.84 832.602,1430.37 816.069,1412.77C800.335,1395.17 776.869,1384.24 752.335,1384.24ZM794.469,1526.64C783.269,1538.64 768.335,1545.84 752.335,1545.84C735.269,1545.84 720.335,1538.64 709.135,1526.64C697.935,1515.17 691.002,1498.37 691.002,1480.24C691.002,1462.11 697.935,1445.31 709.135,1433.57C720.335,1421.57 735.269,1414.64 752.335,1414.64C768.335,1414.64 783.269,1421.57 794.469,1433.57C805.402,1445.31 812.602,1462.11 812.602,1480.24C812.602,1498.37 805.402,1515.17 794.469,1526.64Z" style="fill:url(#_Linear9);fill-rule:nonzero;"/>
        <path d="M945.935,1573.57C946.735,1574.11 947.802,1574.9 948.335,1575.17L948.602,1575.17C948.602,1575.17 948.869,1575.17 948.869,1575.44C949.402,1575.44 950.469,1575.7 951.002,1575.97C951.269,1575.97 951.535,1575.97 951.535,1575.97C952.335,1576.24 953.402,1576.24 954.202,1576.24C955.002,1576.24 955.802,1576.24 956.869,1575.97C957.135,1575.97 957.402,1575.97 957.402,1575.97C958.202,1575.7 958.735,1575.44 959.535,1575.44C959.802,1575.17 959.802,1575.17 960.069,1575.17C960.869,1574.9 961.669,1574.11 962.202,1573.84L962.735,1573.57C963.269,1573.04 963.802,1572.77 964.335,1572.24C964.602,1571.97 964.602,1571.97 964.869,1571.44C965.135,1570.9 965.935,1570.37 966.202,1569.84C966.469,1569.84 966.469,1569.84 966.469,1569.57C967.002,1569.04 967.269,1567.97 967.535,1567.44L1033.4,1411.7C1036.34,1404.51 1032.87,1395.7 1025.4,1392.77C1018.2,1389.57 1009.4,1393.04 1006.2,1400.51L954.202,1523.97L902.202,1400.51C899.002,1393.04 890.469,1389.57 883.269,1392.77C875.535,1395.7 872.069,1404.51 875.269,1411.7L940.602,1567.44C941.135,1567.97 941.669,1569.04 941.935,1569.57C941.935,1569.84 942.202,1569.84 942.202,1569.84C942.469,1570.37 943.002,1570.9 943.535,1571.44C943.535,1571.97 943.802,1571.97 943.802,1572.24C944.602,1572.77 945.135,1573.04 945.669,1573.57L945.935,1573.57Z" style="fill:url(#_Linear10);fill-rule:nonzero;"/>
        <path d="M1157.13,1566.9C1159.27,1572.77 1164.87,1576.24 1170.74,1576.24C1172.6,1576.24 1174.47,1575.97 1175.8,1575.44C1183.54,1572.51 1187.27,1563.97 1184.6,1556.24L1125.67,1399.17C1123.27,1393.31 1117.67,1389.57 1111.54,1389.84C1105.67,1389.57 1099.8,1393.31 1097.4,1399.17L1038.47,1556.24C1035.8,1563.97 1039.54,1572.51 1047.27,1575.44C1048.87,1575.97 1050.47,1576.24 1052.34,1576.24C1058.2,1576.24 1063.8,1572.77 1066.2,1566.9L1079.27,1532.24L1144.07,1532.24L1157.13,1566.9ZM1089.93,1502.9L1111.54,1445.57L1133.13,1502.9L1089.93,1502.9Z" style="fill:url(#_Linear11);fill-rule:nonzero;"/>
        <path d="M1235.8,1576.24C1244.07,1576.24 1250.47,1569.57 1250.47,1561.57L1250.47,1523.7L1278.2,1495.44L1335.8,1570.9C1338.74,1574.37 1342.74,1576.24 1346.74,1576.24C1350.2,1576.24 1353.4,1575.17 1356.07,1572.77C1362.47,1567.7 1363.54,1558.37 1358.2,1552.24L1299,1474.64L1357.67,1416.24C1363.27,1410.37 1363.27,1401.04 1357.67,1395.44C1351.8,1389.57 1342.74,1389.57 1336.87,1395.44L1250.47,1482.11L1250.47,1405.57C1250.47,1397.84 1244.07,1390.9 1235.8,1390.9C1227.54,1390.9 1221.13,1397.84 1221.13,1405.57L1221.13,1561.57C1221.13,1569.57 1227.54,1576.24 1235.8,1576.24Z" style="fill:url(#_Linear12);fill-rule:nonzero;"/>
        <path d="M1413.67,1561.57C1413.67,1569.84 1420.07,1576.24 1428.34,1576.24C1436.34,1576.24 1443.27,1569.84 1443.27,1561.57L1443.27,1404.24C1443.27,1395.97 1436.34,1389.57 1428.34,1389.57C1420.07,1389.57 1413.67,1395.97 1413.67,1404.24L1413.67,1561.57Z" style="fill:url(#_Linear13);fill-rule:nonzero;"/>
        <path d="M1601.4,1566.9C1603.54,1572.77 1609.13,1576.24 1615,1576.24C1616.87,1576.24 1618.74,1575.97 1620.07,1575.44C1627.8,1572.51 1631.54,1563.97 1628.87,1556.24L1569.93,1399.17C1567.54,1393.31 1561.93,1389.57 1555.8,1389.84C1549.93,1389.57 1544.07,1393.31 1541.67,1399.17L1482.74,1556.24C1480.07,1563.97 1483.8,1572.51 1491.54,1575.44C1493.13,1575.97 1494.74,1576.24 1496.6,1576.24C1502.47,1576.24 1508.07,1572.77 1510.47,1566.9L1523.54,1532.24L1588.34,1532.24L1601.4,1566.9ZM1534.2,1502.9L1555.8,1445.57L1577.4,1502.9L1534.2,1502.9Z" style="fill:url(#_Linear14);fill-rule:nonzero;"/>
    </g>
    <g transform="matrix(0.592794,0,0,0.592794,230.929,-669.947)">
        <path d="M307.616,1580.69C321.216,1583.36 333.749,1586.82 344.416,1591.89C355.349,1597.22 364.949,1604.16 371.082,1614.02C375.082,1620.42 377.482,1628.42 377.482,1636.69C377.482,1653.76 367.882,1668.42 354.549,1678.02C341.482,1687.62 324.149,1693.22 305.216,1693.22C276.416,1692.96 252.149,1678.56 236.949,1666.56C231.082,1661.76 230.282,1652.96 234.816,1647.09C239.616,1641.22 248.416,1640.42 254.282,1645.22C266.016,1654.82 286.282,1666.02 305.216,1665.76C318.549,1665.76 330.549,1661.76 338.549,1655.89C346.549,1650.02 350.016,1643.36 350.016,1636.69C350.016,1633.22 349.216,1630.82 347.616,1628.16C346.016,1625.49 343.616,1622.82 339.616,1620.16C331.882,1615.09 318.816,1610.56 303.082,1607.62L302.549,1607.62C290.016,1605.22 278.282,1602.02 268.149,1597.22C258.016,1592.42 249.216,1585.76 243.349,1576.42C239.349,1570.02 237.216,1562.56 237.216,1554.56C237.216,1538.56 246.282,1524.69 258.549,1515.62C271.082,1506.56 287.349,1501.49 304.682,1501.49C330.282,1501.49 349.216,1514.02 362.816,1522.82C368.949,1527.09 370.816,1535.62 366.549,1541.76C366.23,1542.27 365.882,1542.75 365.509,1543.2L371.593,1549.29L380.272,1549.29C381.571,1549.29 382.625,1550.34 382.625,1551.64C382.625,1552.94 381.571,1553.99 380.272,1553.99L373.033,1553.99L373.033,1561.29C373.033,1562.59 371.978,1563.64 370.679,1563.64C369.38,1563.64 368.326,1562.59 368.326,1561.29L368.326,1552.68L361.902,1546.25C357.618,1548.73 352.095,1548.74 347.616,1545.76C334.016,1536.69 320.949,1528.69 304.682,1528.69C292.682,1528.69 282.016,1532.42 274.816,1537.76C267.616,1543.09 264.682,1548.96 264.682,1554.56C264.682,1557.76 265.216,1559.89 266.549,1562.02C267.882,1564.16 270.282,1566.56 273.749,1568.96C280.682,1573.76 292.682,1578.02 307.082,1580.69L307.616,1580.69ZM359.568,1531.52C360.496,1529.99 360.012,1528 358.488,1527.07L353.709,1524.16C352.185,1523.24 350.195,1523.72 349.267,1525.24C348.34,1526.77 348.823,1528.76 350.347,1529.68L355.127,1532.59C356.65,1533.52 358.64,1533.04 359.568,1531.52Z" style="fill:url(#_Linear15);"/>
    </g>
    <g transform="matrix(0.592794,0,0,0.592794,230.929,-669.947)">
        <path d="M694.856,1389.86C696.403,1395.68 694.623,1402.17 689.749,1406.02C672.949,1419.09 651.616,1426.82 628.149,1426.82C574.816,1426.82 530.549,1383.89 530.282,1330.82C530.549,1278.02 574.816,1235.09 628.149,1234.82C651.616,1234.82 672.949,1242.56 689.749,1255.62C696.149,1260.96 697.216,1270.29 692.416,1276.96C687.082,1283.62 677.216,1284.69 671.082,1279.89C659.349,1270.29 644.682,1265.22 628.149,1265.22C609.749,1265.22 592.682,1272.69 580.149,1284.42C568.149,1296.69 560.682,1312.69 560.682,1330.82C560.682,1348.96 568.149,1365.49 580.149,1377.22C592.682,1388.96 609.749,1396.42 628.149,1396.42C644.682,1396.42 659.082,1391.36 671.082,1381.76C677.216,1377.22 687.082,1378.29 692.416,1384.69C692.585,1384.93 692.747,1385.16 692.902,1385.41L702.748,1377.64L703.767,1369.03C703.92,1367.74 705.091,1366.81 706.381,1366.96C707.671,1367.12 708.595,1368.29 708.442,1369.58L707.592,1376.77L714.839,1377.62C716.129,1377.78 717.053,1378.95 716.9,1380.24C716.748,1381.53 715.576,1382.45 714.286,1382.3L705.73,1381.29L694.856,1389.86ZM677.611,1390.15C676.549,1388.72 674.523,1388.42 673.09,1389.48L668.593,1392.81C667.16,1393.88 666.859,1395.9 667.92,1397.33C668.982,1398.77 671.008,1399.07 672.441,1398.01L676.938,1394.68C678.371,1393.61 678.673,1391.59 677.611,1390.15Z" style="fill:url(#_Linear16);"/>
    </g>
    <g transform="matrix(0.658995,0,0,0.658995,155.599,-811.938)">
        <text x="311.23px" y="1875.06px" style="font-family:Quicksand;font-size:100px;font-weight:700;fill:url(#_Linear17);">BRA<tspan x="487.73px " y="1875.06px ">T</tspan>ISLA<tspan x="761.63px 823.13px " y="1875.06px 1875.06px ">VA</tspan>, 9-<tspan x="1042.73px " y="1875.06px ">1</tspan>1 M<tspan x="1217.63px " y="1875.06px ">A</tspan>RCH</text>
    </g>
    <defs>
        <linearGradient id="_Linear1" x1="0" y1="0" x2="1" y2="0" gradientUnits="userSpaceOnUse" gradientTransform="matrix(1322.13,0,0,510.933,323.802,1378.37)"><stop offset="0%" style="stop-color:rgb(0,255,150);stop-opacity:1"/><stop offset="100%" style="stop-color:rgb(39,223,254);stop-opacity:1"/></linearGradient>
        <linearGradient id="_Linear2" x1="0" y1="0" x2="1" y2="0" gradientUnits="userSpaceOnUse" gradientTransform="matrix(1322.13,0,0,510.933,323.802,1378.37)"><stop offset="0%" style="stop-color:rgb(0,255,150);stop-opacity:1"/><stop offset="100%" style="stop-color:rgb(39,223,254);stop-opacity:1"/></linearGradient>
        <linearGradient id="_Linear3" x1="0" y1="0" x2="1" y2="0" gradientUnits="userSpaceOnUse" gradientTransform="matrix(1322.13,0,0,510.933,323.802,1378.37)"><stop offset="0%" style="stop-color:rgb(0,255,150);stop-opacity:1"/><stop offset="100%" style="stop-color:rgb(39,223,254);stop-opacity:1"/></linearGradient>
        <linearGradient id="_Linear4" x1="0" y1="0" x2="1" y2="0" gradientUnits="userSpaceOnUse" gradientTransform="matrix(1322.13,0,0,510.933,323.802,1378.37)"><stop offset="0%" style="stop-color:rgb(0,255,150);stop-opacity:1"/><stop offset="100%" style="stop-color:rgb(39,223,254);stop-opacity:1"/></linearGradient>
        <linearGradient id="_Linear5" x1="0" y1="0" x2="1" y2="0" gradientUnits="userSpaceOnUse" gradientTransform="matrix(1322.13,0,0,510.933,323.802,1378.37)"><stop offset="0%" style="stop-color:rgb(0,255,150);stop-opacity:1"/><stop offset="100%" style="stop-color:rgb(39,223,254);stop-opacity:1"/></linearGradient>
        <linearGradient id="_Linear6" x1="0" y1="0" x2="1" y2="0" gradientUnits="userSpaceOnUse" gradientTransform="matrix(1322.13,0,0,510.933,323.802,1378.37)"><stop offset="0%" style="stop-color:rgb(0,255,150);stop-opacity:1"/><stop offset="100%" style="stop-color:rgb(39,223,254);stop-opacity:1"/></linearGradient>
        <linearGradient id="_Linear7" x1="0" y1="0" x2="1" y2="0" gradientUnits="userSpaceOnUse" gradientTransform="matrix(1322.13,0,0,510.933,323.802,1378.37)"><stop offset="0%" style="stop-color:rgb(0,255,150);stop-opacity:1"/><stop offset="100%" style="stop-color:rgb(39,223,254);stop-opacity:1"/></linearGradient>
        <linearGradient id="_Linear8" x1="0" y1="0" x2="1" y2="0" gradientUnits="userSpaceOnUse" gradientTransform="matrix(1322.13,0,0,510.933,323.802,1378.37)"><stop offset="0%" style="stop-color:rgb(0,255,150);stop-opacity:1"/><stop offset="100%" style="stop-color:rgb(39,223,254);stop-opacity:1"/></linearGradient>
        <linearGradient id="_Linear9" x1="0" y1="0" x2="1" y2="0" gradientUnits="userSpaceOnUse" gradientTransform="matrix(1322.13,0,0,510.933,323.802,1378.37)"><stop offset="0%" style="stop-color:rgb(0,255,150);stop-opacity:1"/><stop offset="100%" style="stop-color:rgb(39,223,254);stop-opacity:1"/></linearGradient>
        <linearGradient id="_Linear10" x1="0" y1="0" x2="1" y2="0" gradientUnits="userSpaceOnUse" gradientTransform="matrix(1322.13,0,0,510.933,323.802,1378.37)"><stop offset="0%" style="stop-color:rgb(0,255,150);stop-opacity:1"/><stop offset="100%" style="stop-color:rgb(39,223,254);stop-opacity:1"/></linearGradient>
        <linearGradient id="_Linear11" x1="0" y1="0" x2="1" y2="0" gradientUnits="userSpaceOnUse" gradientTransform="matrix(1322.13,0,0,510.933,323.802,1378.37)"><stop offset="0%" style="stop-color:rgb(0,255,150);stop-opacity:1"/><stop offset="100%" style="stop-color:rgb(39,223,254);stop-opacity:1"/></linearGradient>
        <linearGradient id="_Linear12" x1="0" y1="0" x2="1" y2="0" gradientUnits="userSpaceOnUse" gradientTransform="matrix(1322.13,0,0,510.933,323.802,1378.37)"><stop offset="0%" style="stop-color:rgb(0,255,150);stop-opacity:1"/><stop offset="100%" style="stop-color:rgb(39,223,254);stop-opacity:1"/></linearGradient>
        <linearGradient id="_Linear13" x1="0" y1="0" x2="1" y2="0" gradientUnits="userSpaceOnUse" gradientTransform="matrix(1322.13,0,0,510.933,323.802,1378.37)"><stop offset="0%" style="stop-color:rgb(0,255,150);stop-opacity:1"/><stop offset="100%" style="stop-color:rgb(39,223,254);stop-opacity:1"/></linearGradient>
        <linearGradient id="_Linear14" x1="0" y1="0" x2="1" y2="0" gradientUnits="userSpaceOnUse" gradientTransform="matrix(1322.13,0,0,510.933,323.802,1378.37)"><stop offset="0%" style="stop-color:rgb(0,255,150);stop-opacity:1"/><stop offset="100%" style="stop-color:rgb(39,223,254);stop-opacity:1"/></linearGradient>
        <linearGradient id="_Linear15" x1="0" y1="0" x2="1" y2="0" gradientUnits="userSpaceOnUse" gradientTransform="matrix(1368.84,0,0,510.933,212.279,1495.62)"><stop offset="0%" style="stop-color:rgb(0,255,150);stop-opacity:1"/><stop offset="100%" style="stop-color:rgb(39,223,254);stop-opacity:1"/></linearGradient>
        <linearGradient id="_Linear16" x1="0" y1="0" x2="1" y2="0" gradientUnits="userSpaceOnUse" gradientTransform="matrix(1494.43,0,0,510.933,171.594,1495.62)"><stop offset="0%" style="stop-color:rgb(0,255,150);stop-opacity:1"/><stop offset="100%" style="stop-color:rgb(39,223,254);stop-opacity:1"/></linearGradient>
        <linearGradient id="_Linear17" x1="0" y1="0" x2="1" y2="0" gradientUnits="userSpaceOnUse" gradientTransform="matrix(1181.5,0,0,91.6,311.23,1850.86)"><stop offset="0%" style="stop-color:rgb(255,193,98);stop-opacity:1"/><stop offset="100%" style="stop-color:rgb(249,6,57);stop-opacity:1"/></linearGradient>
    </defs>
</svg>
